<svg width="2125" height="1057" xmlns="http://www.w3.org/2000/svg" xmlns:xlink="http://www.w3.org/1999/xlink" overflow="hidden"><defs><clipPath id="clip0"><rect x="205" y="1336" width="2125" height="1057"/></clipPath></defs><g clip-path="url(#clip0)" transform="translate(-205 -1336)"><path d="M416 1709.5C416 1662.83 453.608 1625 500 1625 546.392 1625 584 1662.83 584 1709.5 584 1756.17 546.392 1794 500 1794 453.608 1794 416 1756.17 416 1709.5Z" stroke="#000000" stroke-width="10.3125" stroke-miterlimit="8" fill="#FFFFFF" fill-rule="evenodd"/><text font-family="Calibri,Calibri_MSFontService,sans-serif" font-weight="700" font-size="55" transform="matrix(1 0 0 1 478.905 1728)">S<tspan font-size="37" x="25.7813" y="13">F</tspan></text><path d="M1936 1704C1936 1654.29 1976.07 1614 2025.5 1614 2074.93 1614 2115 1654.29 2115 1704 2115 1753.71 2074.93 1794 2025.5 1794 1976.07 1794 1936 1753.71 1936 1704Z" stroke="#000000" stroke-width="10.3125" stroke-miterlimit="8" fill="#FFFFFF" fill-rule="evenodd"/><text font-family="Calibri,Calibri_MSFontService,sans-serif" font-weight="700" font-size="55" transform="matrix(1 0 0 1 2004.34 1722)">S<tspan font-size="37" x="25.7813" y="13">F</tspan></text><path d="M481 1425.5C481 1378.83 518.608 1341 565 1341 611.392 1341 649 1378.83 649 1425.5 649 1472.17 611.392 1510 565 1510 518.608 1510 481 1472.17 481 1425.5Z" stroke="#000000" stroke-width="10.3125" stroke-miterlimit="8" fill="#FFFFFF" fill-rule="evenodd"/><text font-family="Calibri,Calibri_MSFontService,sans-serif" font-weight="700" font-size="55" transform="matrix(1 0 0 1 543.828 1443)">S<tspan font-size="37" x="25.7813" y="13">F</tspan></text><path d="M481 1993.5C481 1946.83 518.608 1909 565 1909 611.392 1909 649 1946.83 649 1993.5 649 2040.17 611.392 2078 565 2078 518.608 2078 481 2040.17 481 1993.5Z" stroke="#000000" stroke-width="10.3125" stroke-miterlimit="8" fill="#FFFFFF" fill-rule="evenodd"/><text font-family="Calibri,Calibri_MSFontService,sans-serif" font-weight="700" font-size="55" transform="matrix(1 0 0 1 543.828 2011)">S<tspan font-size="37" x="25.7813" y="13">F</tspan></text><path d="M1864 1425.5C1864 1378.83 1901.83 1341 1948.5 1341 1995.17 1341 2033 1378.83 2033 1425.5 2033 1472.17 1995.17 1510 1948.5 1510 1901.83 1510 1864 1472.17 1864 1425.5Z" stroke="#000000" stroke-width="10.3125" stroke-miterlimit="8" fill="#FFFFFF" fill-rule="evenodd"/><text font-family="Calibri,Calibri_MSFontService,sans-serif" font-weight="700" font-size="55" transform="matrix(1 0 0 1 1927.24 1443)">S<tspan font-size="37" x="25.7813" y="13">F</tspan></text><path d="M1881 1993.5C1881 1946.83 1918.61 1909 1965 1909 2011.39 1909 2049 1946.83 2049 1993.5 2049 2040.17 2011.39 2078 1965 2078 1918.61 2078 1881 2040.17 1881 1993.5Z" stroke="#000000" stroke-width="10.3125" stroke-miterlimit="8" fill="#FFFFFF" fill-rule="evenodd"/><text font-family="Calibri,Calibri_MSFontService,sans-serif" font-weight="700" font-size="55" transform="matrix(1 0 0 1 1943.77 2011)">S<tspan font-size="37" x="25.7813" y="13">F</tspan><tspan font-weight="400" font-size="83" x="-1688.77" y="303">set of input flows</tspan><tspan font-weight="400" font-size="83" x="-296.048" y="303">set of output flows</tspan></text><path d="M1167 1709.5C1167 1660.07 1207.07 1620 1256.5 1620 1305.93 1620 1346 1660.07 1346 1709.5 1346 1758.93 1305.93 1799 1256.5 1799 1207.07 1799 1167 1758.93 1167 1709.5Z" stroke="#000000" stroke-width="10.3125" stroke-miterlimit="8" fill="#FFFFFF" fill-rule="evenodd"/><text font-family="Calibri,Calibri_MSFontService,sans-serif" font-weight="700" font-size="55" transform="matrix(1 0 0 1 1231.44 1728)">S<tspan font-size="37" x="25.7813" y="13">N</tspan><tspan font-size="83" x="-436.341" y="-245">F</tspan><tspan font-size="55" x="-398.528" y="-225">In</tspan><tspan font-size="83" x="-36.9533" y="208">F</tspan><tspan font-size="55" x="0.859253" y="228">Run</tspan><tspan font-size="83" x="408.974" y="-245">F</tspan><tspan font-size="55" x="446.191" y="-225">Out</tspan></text><path d="M0.145117-3.43444 9.15228-3.05385 18.2827-1.96077 27.2175-0.225242 35.9707 2.15616 44.3836 5.17452 52.4733 8.64153 60.1315 12.6315 67.285 17.0139 73.8913 21.8066 79.8616 26.9982 85.2236 32.4909 89.7068 38.2928 93.422 44.33 96.1908 50.543 97.8957 57.0215 98.5137 63.5445 97.9642 70.069 96.3305 76.5358 93.7049 82.7295 90.1824 88.7777 85.8359 94.573 80.7959 100.071 75.0775 105.205 68.7957 110.062 61.9345 114.463 54.6592 118.391 46.9407 121.928 38.8483 124.93 28.0718 127.312 26.5883 120.599 37.1333 118.268 36.6794 118.402 44.4294 115.527 44.1927 115.625 51.6927 112.188 51.4921 112.288 58.5546 108.475 58.3314 108.607 64.9564 104.357 64.7098 104.531 70.7724 99.8431 70.5786 100.005 76.0786 95.067 75.841 95.3022 80.6535 90.0522 80.4375 90.3125 84.5625 84.8125 84.3421 85.145 87.6546 79.4575 87.4601 79.8459 89.8976 74.0959 89.7297 74.5955 91.2297 68.658 91.1371 69.2116 91.6371 63.2741 91.6403 63.8867 91.0778 57.9492 91.1757 58.4998 89.6132 52.5623 89.7977 53.0868 87.2352 47.3368 87.4474 47.7391 83.9474 42.0516 84.155 42.3519 79.905 36.8519 80.1652 37.1512 75.0402 31.9012 75.2444 32.094 69.4944 27.094 69.7314 27.2824 63.3564 22.6574 63.5793 22.8062 56.6418 18.5562 56.8492 18.6735 49.4117 14.7985 49.6459 14.9096 41.7709 11.5346 41.9641 11.6106 33.7766 8.67306 34.0351 8.75444 25.5351 6.44194 25.782 6.49943 17.0945 4.81193 17.3414 4.85063 8.46639 3.78813 8.72988 3.80944-0.145117 3.43444ZM33.7354 136.957 4.625 127.062 30.0067 109.711Z" fill="#C00000" transform="matrix(1.83697e-16 1 1 -1.83697e-16 1195.5 1771.5)"/><text font-family="Calibri,Calibri_MSFontService,sans-serif" font-weight="400" font-size="83" transform="matrix(1 0 0 1 1047.95 2321)">activity node</text><path d="M584.5 1707.06 1143.62 1707.06 1143.62 1713.94 584.5 1713.94ZM1139.04 1696.75 1166.54 1710.5 1139.04 1724.25Z" fill="#C00000"/><path d="M0.0341164-3.43733 566.639 2.18638 566.571 9.06104-0.0341164 3.43733ZM562.158-8.17111 589.52 5.85115 561.885 19.3275Z" fill="#C00000" transform="matrix(1 0 0 -1 1346.5 1710.35)"/><path d="M626.818 1482.32 1147.48 1698.4 1144.85 1704.75 624.182 1488.67ZM1147.2 1687.12 1167.33 1710.36 1136.66 1712.52Z" fill="#C00000"/><path d="M1.31351-3.17665 521.969 212.108 519.341 218.461-1.31351 3.17665ZM521.673 200.826 541.832 224.041 511.165 226.239Z" fill="#C00000" transform="matrix(1 0 0 -1 625.5 1934.54)"/><path d="M1.31607-3.17559 522.724 212.913 520.092 219.264-1.31607 3.17559ZM522.439 201.631 542.579 224.862 511.91 227.036Z" fill="#C00000" transform="matrix(1 0 0 -1 1346.5 1710.36)"/><path d="M1347.78 1707.31 1885.62 1922.83 1883.06 1929.21 1345.22 1713.69ZM1885.2 1911.55 1905.61 1934.54 1874.97 1937.08Z" fill="#C00000"/><text font-family="Calibri,Calibri_MSFontService,sans-serif" font-weight="700" font-size="83" transform="matrix(1 0 0 1 1640.41 1936)">F<tspan font-size="55" x="37.2167" y="20">Out</tspan><tspan font-size="83" x="-845.315" y="0">F</tspan><tspan font-size="55" x="-807.503" y="20">In</tspan></text></g></svg>