<svg width="1785" height="1079" xmlns="http://www.w3.org/2000/svg" xmlns:xlink="http://www.w3.org/1999/xlink" overflow="hidden"><defs><clipPath id="clip0"><rect x="363" y="123" width="1785" height="1079"/></clipPath></defs><g clip-path="url(#clip0)" transform="translate(-363 -123)"><path d="M543 589.5C543 542.832 580.832 505 627.5 505 674.168 505 712 542.832 712 589.5 712 636.168 674.168 674 627.5 674 580.832 674 543 636.168 543 589.5Z" stroke="#000000" stroke-width="10.3125" stroke-miterlimit="8" fill="#FFFFFF" fill-rule="evenodd"/><text font-family="Calibri,Calibri_MSFontService,sans-serif" font-weight="700" font-size="55" transform="matrix(1 0 0 1 606.196 607)">S<tspan font-size="37" x="25.7813" y="13">F</tspan></text><path d="M1785 587.5C1785 538.071 1825.29 498 1875 498 1924.71 498 1965 538.071 1965 587.5 1965 636.929 1924.71 677 1875 677 1825.29 677 1785 636.929 1785 587.5Z" stroke="#000000" stroke-width="10.3125" stroke-miterlimit="8" fill="#FFFFFF" fill-rule="evenodd"/><text font-family="Calibri,Calibri_MSFontService,sans-serif" font-weight="700" font-size="55" transform="matrix(1 0 0 1 1854.13 605)">S<tspan font-size="37" x="25.7813" y="13">F</tspan></text><path d="M543 305.5C543 258.832 580.832 221 627.5 221 674.168 221 712 258.832 712 305.5 712 352.168 674.168 390 627.5 390 580.832 390 543 352.168 543 305.5Z" stroke="#000000" stroke-width="10.3125" stroke-miterlimit="8" fill="#FFFFFF" fill-rule="evenodd"/><text font-family="Calibri,Calibri_MSFontService,sans-serif" font-weight="700" font-size="55" transform="matrix(1 0 0 1 606.196 323)">S<tspan font-size="37" x="25.7813" y="13">F</tspan></text><path d="M543 873.5C543 826.832 580.832 789 627.5 789 674.168 789 712 826.832 712 873.5 712 920.168 674.168 958 627.5 958 580.832 958 543 920.168 543 873.5Z" stroke="#000000" stroke-width="10.3125" stroke-miterlimit="8" fill="#FFFFFF" fill-rule="evenodd"/><text font-family="Calibri,Calibri_MSFontService,sans-serif" font-weight="700" font-size="55" transform="matrix(1 0 0 1 606.196 891)">S<tspan font-size="37" x="25.7813" y="13">F</tspan></text><path d="M1790 308.5C1790 261.832 1827.83 224 1874.5 224 1921.17 224 1959 261.832 1959 308.5 1959 355.168 1921.17 393 1874.5 393 1827.83 393 1790 355.168 1790 308.5Z" stroke="#000000" stroke-width="10.3125" stroke-miterlimit="8" fill="#FFFFFF" fill-rule="evenodd"/><text font-family="Calibri,Calibri_MSFontService,sans-serif" font-weight="700" font-size="55" transform="matrix(1 0 0 1 1853.24 327)">S<tspan font-size="37" x="25.7813" y="13">F</tspan></text><path d="M1790 877C1790 830.608 1827.83 793 1874.5 793 1921.17 793 1959 830.608 1959 877 1959 923.392 1921.17 961 1874.5 961 1827.83 961 1790 923.392 1790 877Z" stroke="#000000" stroke-width="10.3125" stroke-miterlimit="8" fill="#FFFFFF" fill-rule="evenodd"/><text font-family="Calibri,Calibri_MSFontService,sans-serif" font-weight="700" font-size="55" transform="matrix(1 0 0 1 1853.24 895)">S<tspan font-size="37" x="25.7813" y="13">F</tspan></text><path d="M370.5 590C370.5 335.673 485.339 129.5 627 129.5 768.661 129.5 883.5 335.673 883.5 590 883.5 844.327 768.661 1050.5 627 1050.5 485.339 1050.5 370.5 844.327 370.5 590Z" stroke="#000000" stroke-width="4.58333" stroke-miterlimit="8" stroke-dasharray="18.3333 13.75" fill="none" fill-rule="evenodd"/><path d="M1616.5 590C1616.5 333.464 1732.23 125.5 1875 125.5 2017.77 125.5 2133.5 333.464 2133.5 590 2133.5 846.536 2017.77 1054.5 1875 1054.5 1732.23 1054.5 1616.5 846.536 1616.5 590Z" stroke="#000000" stroke-width="4.58333" stroke-miterlimit="8" stroke-dasharray="18.3333 13.75" fill="none" fill-rule="evenodd"/><text font-family="Calibri,Calibri_MSFontService,sans-serif" font-weight="400" font-size="64" transform="matrix(1 0 0 1 401.676 1145)">set of input flows<tspan font-size="64" x="1214.75" y="-3">set of output flows</tspan></text><path d="M1168 587C1168 537.294 1208.07 497 1257.5 497 1306.93 497 1347 537.294 1347 587 1347 636.706 1306.93 677 1257.5 677 1208.07 677 1168 636.706 1168 587Z" stroke="#000000" stroke-width="10.3125" stroke-miterlimit="8" fill="#FFFFFF" fill-rule="evenodd"/><text font-family="Calibri,Calibri_MSFontService,sans-serif" font-weight="700" font-size="55" transform="matrix(1 0 0 1 1232.54 605)">S<tspan font-size="37" x="25.7813" y="13">N</tspan><tspan font-size="64" x="-301.684" y="-62">O</tspan><tspan font-size="43" x="-258.143" y="-47">NodeIn</tspan><tspan font-size="64" x="-77.3434" y="202">O</tspan><tspan font-size="43" x="-33.8018" y="217">NodeRun</tspan><tspan font-size="64" x="119.61" y="-56">O</tspan><tspan font-size="43" x="163.152" y="-41">NodeOut</tspan></text><path d="M0.139244-3.43468 9.51879-3.05443 18.8911-1.96312 28.1289-0.231037 37.1866 2.14579 45.9094 5.16027 54.2474 8.62376 62.1445 12.6044 69.606 16.9784 76.4702 21.7704 82.6392 26.9653 88.1144 32.4406 92.8605 38.2413 96.65 44.2912 99.5507 50.4974 101.332 57.0046 101.953 63.5625 101.333 70.1035 99.6323 76.5668 96.9358 82.7689 93.2777 88.8213 88.7991 94.6172 83.5642 100.114 77.6546 105.244 71.1194 110.097 64.008 114.493 56.425 118.413 48.4634 121.945 40.0709 124.937 28.0891 127.539 26.6302 120.821 38.3955 118.266 37.9704 118.387 46.0329 115.512 45.7938 115.608 53.5437 112.17 53.3589 112.259 60.7339 108.446 60.505 108.576 67.38 104.326 67.1381 104.49 73.4506 99.8027 73.2465 99.9667 78.934 95.0292 78.6983 95.2543 83.6983 90.0043 83.4675 90.2732 87.7175 84.7732 87.4956 85.0969 90.9331 79.4094 90.7226 79.8169 93.2226 74.0669 93.0507 74.5627 94.6132 68.6252 94.5153 69.1758 95.0778 63.2383 95.0778 63.8867 94.5153 57.9492 94.6219 58.5324 92.9969 52.5949 93.1984 53.143 90.5109 47.393 90.7118 47.7622 87.1493 42.0747 87.402 42.4268 82.902 36.9268 83.1318 37.1807 77.8818 31.9307 78.0983 32.1294 72.1608 27.1294 72.4073 27.3186 65.7823 22.6936 66.0116 22.8405 58.7616 18.5905 58.9527 18.6946 51.2652 14.8196 51.4939 14.9245 43.3689 11.5495 43.5647 11.624 35.0647 8.68646 35.315 8.76243 26.5025 6.44993 26.7415 6.50362 17.7415 4.81612 17.9774 4.85193 8.85243 3.78943 9.11076 3.80968-0.139244 3.43468ZM33.6361 137.244 4.625 127.062 30.177 109.963Z" fill="#C00000" transform="matrix(1.83697e-16 1 1 -1.83697e-16 1196.5 648.5)"/><text font-family="Calibri,Calibri_MSFontService,sans-serif" font-weight="400" font-size="64" transform="matrix(1 0 0 1 1087.64 1146)">activity node</text><path d="M0.0242001-3.43741 262.021-1.59291 261.972 5.28192-0.0242001 3.43741ZM257.51-11.9374 284.913 2.00584 257.317 15.5619Z" fill="#C00000" transform="matrix(1 0 0 -1 883.5 589.506)"/><path d="M1347.53 584.063 1593.22 586.069 1593.16 592.944 1347.47 590.937ZM1588.72 575.72 1616.11 589.694 1588.5 603.219Z" fill="#C00000"/></g></svg>