<svg width="4094" height="1462" xmlns="http://www.w3.org/2000/svg" xmlns:xlink="http://www.w3.org/1999/xlink" overflow="hidden"><defs><clipPath id="clip0"><rect x="-7" y="210" width="4094" height="1462"/></clipPath></defs><g clip-path="url(#clip0)" transform="translate(7 -210)"><path d="M4.23762e-06-5.15625 428.917-5.1559 428.917 5.1566-4.23762e-06 5.15625ZM400.578-22.5004 439.151 0.000358857 400.578 22.5011C398.118 23.9359 394.961 23.1051 393.526 20.6453 392.091 18.1855 392.922 15.0282 395.382 13.5933L426.319-4.45351 426.319 4.45421 395.382-13.5927C392.922-15.0276 392.091-18.1848 393.526-20.6446 394.961-23.1044 398.118-23.9353 400.578-22.5004Z" transform="matrix(-1 0 0 1 1908.13 1322)"/><text font-family="Calibri,Calibri_MSFontService,sans-serif" font-weight="400" font-size="92" transform="matrix(1 0 0 1 48.7021 1591)">Initial</text><path d="M56 1322C56 1267.32 100.324 1223 155 1223 209.676 1223 254 1267.32 254 1322 254 1376.68 209.676 1421 155 1421 100.324 1421 56 1376.68 56 1322Z" stroke="#000000" stroke-width="13.75" stroke-miterlimit="8" fill="none" fill-rule="evenodd"/><path d="M95.9999 1323C95.9999 1290.97 121.744 1265 153.5 1265 185.256 1265 211 1290.97 211 1323 211 1355.03 185.256 1381 153.5 1381 121.744 1381 95.9999 1355.03 95.9999 1323Z" fill-rule="evenodd"/><rect x="435" y="1124" width="71.0002" height="397" stroke="#000000" stroke-width="10.3125" stroke-miterlimit="8" fill="#FFFFFF"/><path d="M254 1316.84 424.855 1316.84 424.855 1327.16 254 1327.16ZM396.516 1299.5 435.089 1322 396.516 1344.5C394.056 1345.94 390.899 1345.11 389.464 1342.65 388.029 1340.19 388.86 1337.03 391.32 1335.59L422.257 1317.55 422.257 1326.45 391.32 1308.41C388.86 1306.97 388.029 1303.82 389.464 1301.36 390.899 1298.9 394.056 1298.06 396.516 1299.5Z"/><path d="M743 1322C743 1267.32 787.324 1223 842 1223 896.676 1223 941 1267.32 941 1322 941 1376.68 896.676 1421 842 1421 787.324 1421 743 1376.68 743 1322Z" stroke="#000000" stroke-width="13.75" stroke-miterlimit="8" fill="none" fill-rule="evenodd"/><rect x="1398" y="1124" width="70.9998" height="397" stroke="#000000" stroke-width="10.3125" stroke-miterlimit="8" fill="#FFFFFF"/><path d="M506 1316.84 732.5 1316.84 732.5 1327.16 506 1327.16ZM704.16 1299.5 742.733 1322 704.16 1344.5C701.7 1345.94 698.543 1345.11 697.108 1342.65 695.673 1340.19 696.504 1337.03 698.964 1335.59L729.901 1317.55 729.901 1326.45 698.964 1308.41C696.504 1306.97 695.673 1303.82 697.108 1301.36 698.543 1298.9 701.7 1298.06 704.16 1299.5Z"/><text font-family="Calibri,Calibri_MSFontService,sans-serif" font-weight="400" font-size="92" transform="matrix(1 0 0 1 718.302 1591)">Merge</text><path d="M1908 1322C1908 1267.32 1952.32 1223 2007 1223 2061.68 1223 2106 1267.32 2106 1322 2106 1376.68 2061.68 1421 2007 1421 1952.32 1421 1908 1376.68 1908 1322Z" stroke="#000000" stroke-width="13.75" stroke-miterlimit="8" fill="none" fill-rule="evenodd"/><path d="M4.06708e-06-5.15625 447.33-5.1559 447.33 5.1566-4.06708e-06 5.15625ZM418.991-22.5004 457.564 0.000358842 418.991 22.5011C416.531 23.9359 413.374 23.1051 411.939 20.6453 410.504 18.1855 411.335 15.0282 413.795 13.5933L444.733-4.45351 444.733 4.45421 413.795-13.5927C411.335-15.0276 410.504-18.1848 411.939-20.6446 413.374-23.1044 416.531-23.9353 418.991-22.5004Z" transform="matrix(-1 0 0 1 1398.54 1322)"/><text font-family="Calibri,Calibri_MSFontService,sans-serif" font-weight="400" font-size="92" transform="matrix(1 0 0 1 1931.56 1593)">Edit</text><rect x="2601" y="1124" width="70.9998" height="397" stroke="#000000" stroke-width="10.3125" stroke-miterlimit="8" fill="#FFFFFF"/><rect x="3560" y="1124" width="71.0002" height="397" stroke="#000000" stroke-width="10.3125" stroke-miterlimit="8" fill="#FFFFFF"/><path d="M3148 1320C3148 1265.32 3192.32 1221 3247 1221 3301.68 1221 3346 1265.32 3346 1320 3346 1374.68 3301.68 1419 3247 1419 3192.32 1419 3148 1374.68 3148 1320Z" stroke="#000000" stroke-width="13.75" stroke-miterlimit="8" fill="none" fill-rule="evenodd"/><text font-family="Calibri,Calibri_MSFontService,sans-serif" font-weight="400" font-size="92" transform="matrix(1 0 0 1 3085.67 1591)">Decision</text><path d="M2601.58 1327.23 2116.21 1327.16 2116.21 1316.85 2601.58 1316.91ZM2144.55 1344.51 2105.98 1322 2144.55 1299.5C2147.01 1298.07 2150.17 1298.9 2151.6 1301.36 2153.04 1303.82 2152.21 1306.98 2149.75 1308.41L2118.81 1326.46 2118.81 1317.55 2149.74 1335.6C2152.2 1337.03 2153.03 1340.19 2151.6 1342.65 2150.16 1345.11 2147.01 1345.94 2144.55 1344.51Z"/><path d="M0.0225218-5.1562 465.81-3.12169 465.765 7.19071-0.0225218 5.1562ZM437.545-20.5898 476.019 2.07921 437.349 24.4112C434.883 25.8354 431.729 24.9907 430.305 22.5247 428.881 20.0586 429.725 16.905 432.191 15.4809L463.207-2.43066 463.169 6.47698 432.31-11.7049C429.857-13.1505 429.04-16.3113 430.485-18.7648 431.931-21.2183 435.092-22.0354 437.545-20.5898Z" transform="matrix(-1 0 0 1 3148 1320)"/><path d="M3346.05 1314.84 3550.16 1316.76 3550.06 1327.07 3345.95 1325.16ZM3521.98 1299.15 3560.34 1322.01 3521.56 1344.15C3519.09 1345.56 3515.94 1344.7 3514.52 1342.23 3513.11 1339.75 3513.97 1336.6 3516.45 1335.19L3547.55 1317.44 3547.47 1326.34 3516.7 1308.01C3514.25 1306.55 3513.45 1303.38 3514.91 1300.94 3516.37 1298.49 3519.53 1297.69 3521.98 1299.15Z"/><path d="M3847 1320C3847 1265.32 3891.32 1221 3946 1221 4000.68 1221 4045 1265.32 4045 1320 4045 1374.68 4000.68 1419 3946 1419 3891.32 1419 3847 1374.68 3847 1320Z" stroke="#000000" stroke-width="13.75" stroke-miterlimit="8" fill="none" fill-rule="evenodd"/><text font-family="Calibri,Calibri_MSFontService,sans-serif" font-weight="400" font-size="92" transform="matrix(1 0 0 1 3854.3 1591)">Final</text><path d="M0.0478757-5.15603 206.249-3.24137 206.153 7.07069-0.0478757 5.15603ZM178.072-20.8482 216.434 2.00967 177.654 24.1513C175.181 25.5633 172.031 24.7031 170.619 22.2301 169.207 19.7571 170.068 16.6077 172.541 15.1957L203.644-2.56314 203.562 6.3442 172.793-11.9892C170.347-13.4468 169.545-16.6117 171.003-19.058 172.46-21.5044 175.625-22.3059 178.072-20.8482Z" transform="matrix(1 0 0 -1 3631 1322.01)"/><text font-family="Calibri,Calibri_MSFontService,sans-serif" font-weight="400" font-size="92" transform="matrix(1 0 0 1 1124.05 352)">Fork</text><rect x="2819" y="417" width="83.9998" height="525" stroke="#000000" stroke-width="10.3125" stroke-miterlimit="8" fill="#FFFFFF"/><path d="M2351 490C2351 435.324 2395.32 391 2450 391 2504.68 391 2549 435.324 2549 490 2549 544.676 2504.68 589 2450 589 2395.32 589 2351 544.676 2351 490Z" stroke="#000000" stroke-width="13.75" stroke-miterlimit="8" fill="none" fill-rule="evenodd"/><path d="M2351 855C2351 800.324 2395.32 756 2450 756 2504.68 756 2549 800.324 2549 855 2549 909.676 2504.68 954 2450 954 2395.32 954 2351 909.676 2351 855Z" stroke="#000000" stroke-width="13.75" stroke-miterlimit="8" fill="none" fill-rule="evenodd"/><text font-family="Calibri,Calibri_MSFontService,sans-serif" font-weight="400" font-size="92" transform="matrix(1 0 0 1 2281.46 325)">Compile<tspan font-size="61" x="306.51" y="22">1</tspan><tspan font-size="92" x="8.19653" y="709">Compile</tspan><tspan font-size="61" x="314.707" y="731">2</tspan></text><path d="M2549 849.844 2808.75 849.844 2808.75 860.156 2549 860.156ZM2780.41 832.499 2818.98 855 2780.41 877.501C2777.95 878.936 2774.79 878.105 2773.35 875.645 2771.92 873.185 2772.75 870.028 2775.21 868.593L2806.15 850.546 2806.15 859.454 2775.21 841.407C2772.75 839.972 2771.92 836.815 2773.35 834.355 2774.79 831.895 2777.95 831.065 2780.41 832.499Z"/><path d="M2549 483.844 2808.75 483.844 2808.75 494.157 2549 494.156ZM2780.41 466.5 2818.98 489.001 2780.41 511.501C2777.95 512.936 2774.79 512.105 2773.35 509.645 2771.92 507.186 2772.75 504.028 2775.21 502.593L2806.15 484.547 2806.15 493.454 2775.21 475.407C2772.75 473.973 2771.92 470.815 2773.35 468.355 2774.79 465.896 2777.95 465.065 2780.41 466.5Z"/><rect x="1982" y="713" width="65" height="276" stroke="#000000" stroke-width="10.3125" stroke-miterlimit="8" fill="#FFFFFF"/><path d="M1515 493C1515 438.324 1559.32 394 1614 394 1668.68 394 1713 438.324 1713 493 1713 547.676 1668.68 592 1614 592 1559.32 592 1515 547.676 1515 493Z" stroke="#000000" stroke-width="13.75" stroke-miterlimit="8" fill="none" fill-rule="evenodd"/><path d="M1512 851C1512 796.324 1556.32 752 1611 752 1665.68 752 1710 796.324 1710 851 1710 905.676 1665.68 950 1611 950 1556.32 950 1512 905.676 1512 851Z" stroke="#000000" stroke-width="13.75" stroke-miterlimit="8" fill="none" fill-rule="evenodd"/><text font-family="Calibri,Calibri_MSFontService,sans-serif" font-weight="400" font-size="92" transform="matrix(1 0 0 1 1510.54 324)">Read<tspan font-size="61" x="186.313" y="22">1</tspan><tspan font-size="92" x="0" y="706">Read</tspan><tspan font-size="61" x="186.313" y="728">2</tspan></text><path d="M1710 845.844 1971.58 845.844 1971.58 856.157 1710 856.156ZM1943.24 828.5 1981.81 851 1943.24 873.501C1940.78 874.936 1937.62 874.105 1936.19 871.645 1934.75 869.186 1935.58 866.028 1938.04 864.593L1968.98 846.547 1968.98 855.454 1938.04 837.407C1935.58 835.973 1934.75 832.815 1936.19 830.355 1937.62 827.896 1940.78 827.065 1943.24 828.5Z"/><path d="M0.0283525-5.15617 258.45-3.73518 258.393 6.57717-0.0283525 5.15617ZM230.206-21.2352 268.655 1.47726 229.959 23.7656C227.491 25.1869 224.338 24.3387 222.917 21.871 221.496 19.4034 222.344 16.2507 224.812 14.8294L255.848-3.04708 255.799 5.8605 224.961-12.3562C222.509-13.8046 221.696-16.9664 223.144-19.4183 224.592-21.8701 227.754-22.6836 230.206-21.2352Z" transform="matrix(1 0 0 -1 1713 492.477)"/><path d="M2047.07 845.844 2340.55 849.616 2340.42 859.927 2046.93 856.156ZM2312.44 831.909 2350.72 854.903 2311.86 876.906C2309.38 878.31 2306.23 877.438 2304.83 874.96 2303.43 872.482 2304.3 869.336 2306.78 867.933L2337.94 850.285 2337.83 859.192 2307.13 840.749C2304.69 839.282 2303.9 836.115 2305.36 833.674 2306.83 831.232 2310 830.442 2312.44 831.909Z"/><path d="M0.0253304-5.15619 293.51-3.71441 293.459 6.59797-0.0253304 5.15619ZM265.256-21.1979 303.717 1.49205 265.035 23.803C262.568 25.2258 259.415 24.3794 257.992 21.9126 256.569 19.4458 257.415 16.2927 259.882 14.8699L290.908-3.02479 290.864 5.88282 260.016-12.3158C257.563-13.7628 256.748-16.9241 258.195-19.3768 259.642-21.8295 262.803-22.6449 265.256-21.1979Z" transform="matrix(1 0 0 -1 2047 491.492)"/><rect x="1169" y="409" width="83.9999" height="525" stroke="#000000" stroke-width="10.3125" stroke-miterlimit="8" fill="#FFFFFF"/><path d="M1253 845.844 1501.95 845.844 1501.95 856.157 1253 856.156ZM1473.61 828.5 1512.18 851 1473.61 873.501C1471.15 874.936 1467.99 874.105 1466.56 871.645 1465.12 869.186 1465.95 866.028 1468.41 864.593L1499.35 846.547 1499.35 855.454 1468.41 837.407C1465.95 835.973 1465.12 832.815 1466.56 830.355 1467.99 827.896 1471.15 827.065 1473.61 828.5Z"/><path d="M1246.03 485.844 1504.6 487.265 1504.54 497.577 1245.97 496.156ZM1476.35 469.765 1514.8 492.477 1476.1 514.766C1473.64 516.187 1470.48 515.339 1469.06 512.871 1467.64 510.403 1468.49 507.251 1470.96 505.829L1501.99 487.953 1501.95 496.86 1471.11 478.644C1468.66 477.195 1467.84 474.034 1469.29 471.582 1470.74 469.13 1473.9 468.316 1476.35 469.765Z"/><path d="M836.844 1222.96 836.844 665.844 1159.56 665.844 1159.56 676.156 842 676.156 847.156 671 847.156 1222.96ZM1131.22 648.499 1169.79 671 1131.22 693.501C1128.76 694.935 1125.6 694.105 1124.17 691.645 1122.73 689.185 1123.57 686.028 1126.03 684.593L1156.96 666.546 1156.96 675.454 1126.03 657.407C1123.57 655.972 1122.73 652.815 1124.17 650.355 1125.6 647.895 1128.76 647.064 1131.22 648.499Z"/><text font-family="Calibri,Calibri_MSFontService,sans-serif" font-weight="400" font-size="92" transform="matrix(1 0 0 1 2787.51 358)">Join</text><rect x="1982" y="353" width="65" height="276" stroke="#000000" stroke-width="10.3125" stroke-miterlimit="8" fill="#FFFFFF"/><path d="M3148 679C3148 624.324 3192.32 580 3247 580 3301.68 580 3346 624.324 3346 679 3346 733.676 3301.68 778 3247 778 3192.32 778 3148 733.676 3148 679Z" stroke="#000000" stroke-width="13.75" stroke-miterlimit="8" fill="none" fill-rule="evenodd"/><text font-family="Calibri,Calibri_MSFontService,sans-serif" font-weight="400" font-size="92" transform="matrix(1 0 0 1 3167.92 478)">Link</text><path d="M7.58027e-06-5.15625 235.277-5.1559 235.277 5.1566-7.58027e-06 5.15625ZM206.937-22.5004 245.51 0.000360359 206.937 22.501C204.478 23.9359 201.32 23.1051 199.885 20.6453 198.451 18.1855 199.281 15.0282 201.741 13.5933L232.679-4.45352 232.679 4.4542 201.741-13.5927C199.281-15.0276 198.451-18.1849 199.885-20.6447 201.32-23.1045 204.478-23.9353 206.937-22.5004Z" transform="matrix(1 0 0 -1 2903 679)"/><path d="M5.15625-9.75594e-06 5.15659 180.531-5.15591 180.531-5.15625 9.75594e-06ZM22.501 152.191 0.000360641 190.764-22.5004 152.192C-23.9353 149.732-23.1045 146.574-20.6447 145.14-18.1849 143.705-15.0276 144.536-13.5927 146.995L4.4542 177.933-4.45352 177.933 13.5933 146.995C15.0282 144.536 18.1854 143.705 20.6452 145.14 23.105 146.574 23.9359 149.732 22.501 152.191Z" transform="matrix(-1 0 0 1 3247 778)"/><rect x="3058" y="969" width="378" height="61.9998" stroke="#000000" stroke-width="10.3125" stroke-miterlimit="8" fill="#FFFFFF"/><path d="M3252.16 1031 3252.16 1211.53 3241.84 1211.53 3241.84 1031ZM3269.5 1183.19 3247 1221.76 3224.5 1183.19C3223.06 1180.73 3223.9 1177.57 3226.36 1176.14 3228.82 1174.7 3231.97 1175.54 3233.41 1178L3251.45 1208.93 3242.55 1208.93 3260.59 1178C3262.03 1175.54 3265.19 1174.7 3267.65 1176.14 3270.1 1177.57 3270.94 1180.73 3269.5 1183.19Z"/></g></svg>