<svg width="1667" height="934" xmlns="http://www.w3.org/2000/svg" xmlns:xlink="http://www.w3.org/1999/xlink" overflow="hidden"><defs><clipPath id="clip0"><rect x="427" y="1329" width="1667" height="934"/></clipPath></defs><g clip-path="url(#clip0)" transform="translate(-427 -1329)"><path d="M584 1710.5C584 1663.83 621.832 1626 668.5 1626 715.168 1626 753 1663.83 753 1710.5 753 1757.17 715.168 1795 668.5 1795 621.832 1795 584 1757.17 584 1710.5Z" stroke="#000000" stroke-width="10.3125" stroke-miterlimit="8" fill="#FFFFFF" fill-rule="evenodd"/><text font-family="Calibri,Calibri_MSFontService,sans-serif" font-weight="700" font-size="55" transform="matrix(1 0 0 1 647.134 1728)">S<tspan font-size="37" x="25.7813" y="13">F</tspan></text><path d="M1755 1697C1755 1647.29 1795.07 1607 1844.5 1607 1893.93 1607 1934 1647.29 1934 1697 1934 1746.71 1893.93 1787 1844.5 1787 1795.07 1787 1755 1746.71 1755 1697Z" stroke="#000000" stroke-width="10.3125" stroke-miterlimit="8" fill="#FFFFFF" fill-rule="evenodd"/><text font-family="Calibri,Calibri_MSFontService,sans-serif" font-weight="700" font-size="55" transform="matrix(1 0 0 1 1823.44 1715)">S<tspan font-size="37" x="25.7813" y="13">F</tspan></text><path d="M649 1425.5C649 1378.83 686.832 1341 733.5 1341 780.168 1341 818 1378.83 818 1425.5 818 1472.17 780.168 1510 733.5 1510 686.832 1510 649 1472.17 649 1425.5Z" stroke="#000000" stroke-width="10.3125" stroke-miterlimit="8" fill="#FFFFFF" fill-rule="evenodd"/><text font-family="Calibri,Calibri_MSFontService,sans-serif" font-weight="700" font-size="55" transform="matrix(1 0 0 1 712.057 1444)">S<tspan font-size="37" x="25.7813" y="13">F</tspan></text><path d="M649 1994C649 1947.61 686.832 1910 733.5 1910 780.168 1910 818 1947.61 818 1994 818 2040.39 780.168 2078 733.5 2078 686.832 2078 649 2040.39 649 1994Z" stroke="#000000" stroke-width="10.3125" stroke-miterlimit="8" fill="#FFFFFF" fill-rule="evenodd"/><text font-family="Calibri,Calibri_MSFontService,sans-serif" font-weight="700" font-size="55" transform="matrix(1 0 0 1 712.057 2012)">S<tspan font-size="37" x="25.7813" y="13">F</tspan></text><path d="M1683 1418.5C1683 1371.83 1720.83 1334 1767.5 1334 1814.17 1334 1852 1371.83 1852 1418.5 1852 1465.17 1814.17 1503 1767.5 1503 1720.83 1503 1683 1465.17 1683 1418.5Z" stroke="#000000" stroke-width="10.3125" stroke-miterlimit="8" fill="#FFFFFF" fill-rule="evenodd"/><text font-family="Calibri,Calibri_MSFontService,sans-serif" font-weight="700" font-size="55" transform="matrix(1 0 0 1 1746.34 1436)">S<tspan font-size="37" x="25.7813" y="13">F</tspan></text><path d="M1700 1986.5C1700 1939.83 1737.61 1902 1784 1902 1830.39 1902 1868 1939.83 1868 1986.5 1868 2033.17 1830.39 2071 1784 2071 1737.61 2071 1700 2033.17 1700 1986.5Z" stroke="#000000" stroke-width="10.3125" stroke-miterlimit="8" fill="#FFFFFF" fill-rule="evenodd"/><text font-family="Calibri,Calibri_MSFontService,sans-serif" font-weight="700" font-size="55" transform="matrix(1 0 0 1 1762.87 2005)">S<tspan font-size="37" x="25.7813" y="13">F</tspan><tspan font-weight="400" font-size="64" x="-1296.94" y="193">set of input flows</tspan><tspan font-weight="400" font-size="64" x="-199.939" y="193">set of output flows</tspan></text><path d="M1167 1709.5C1167 1660.07 1207.07 1620 1256.5 1620 1305.93 1620 1346 1660.07 1346 1709.5 1346 1758.93 1305.93 1799 1256.5 1799 1207.07 1799 1167 1758.93 1167 1709.5Z" stroke="#000000" stroke-width="10.3125" stroke-miterlimit="8" fill="#FFFFFF" fill-rule="evenodd"/><text font-family="Calibri,Calibri_MSFontService,sans-serif" font-weight="700" font-size="55" transform="matrix(1 0 0 1 1231.44 1728)">S<tspan font-size="37" x="25.7813" y="13">N</tspan><tspan font-size="64" x="-358.609" y="-233">O</tspan><tspan font-size="43" x="-315.067" y="-218">NodeIn</tspan><tspan font-size="64" x="-96.9389" y="208">O</tspan><tspan font-size="43" x="-53.3971" y="223">NodeRun</tspan><tspan font-size="64" x="194.601" y="-226">O</tspan><tspan font-size="43" x="238.142" y="-211">NodeOut</tspan></text><path d="M0.131274-3.43499 10.0646-3.05537 20.046-1.96766 29.8968-0.240582 39.5053 2.12952 48.7783 5.13526 57.6719 8.59032 66.0684 12.5642 73.9632 16.9288 81.256 21.7046 87.8626 26.8863 93.7307 32.3632 98.7386 38.1618 102.798 44.2174 105.84 50.4376 107.761 56.9536 108.455 63.5445 107.83 70.1373 105.981 76.6429 103.076 82.8582 99.1495 88.9144 94.3497 94.7005 88.7927 100.192 82.4367 105.316 75.472 110.152 67.9274 114.537 59.8445 118.45 51.3268 121.973 42.4725 124.924 33.1329 127.324 27.8073 127.955 26.9979 121.128 32.0953 120.524 31.6445 120.608 40.6445 118.296 40.413 118.364 49.038 115.489 48.8114 115.573 57.1239 112.136 56.9396 112.219 64.8146 108.406 64.5852 108.528 71.8977 104.278 71.6643 104.427 78.4143 99.739 78.2176 99.8863 84.3426 94.9488 84.0837 95.18 89.3962 89.93 89.1668 90.1803 93.7293 84.6803 93.4907 85.005 97.1782 79.3174 96.9484 79.732 99.6359 73.982 99.4434 74.4977 101.131 68.5602 101.015 69.1758 101.578 63.2383 101.581 63.9224 100.956 57.9849 101.078 58.5968 99.3277 52.6593 99.5371 53.1979 96.7246 47.4479 96.9572 47.8515 93.1447 42.164 93.3984 42.4968 88.6484 36.9968 88.9045 37.263 83.2795 32.013 83.5036 32.2048 77.1286 27.2048 77.3668 27.3757 70.3043 22.7507 70.5243 22.8834 62.8368 18.6334 63.0295 18.7321 54.842 14.8571 55.0677 14.9542 46.3802 11.5792 46.5651 11.645 37.5026 8.70751 37.7393 8.77497 28.3643 6.46247 28.5939 6.51086 18.9689 4.82336 19.1901 4.85477 9.44011 3.79227 9.68123 3.80999-0.131274 3.43499ZM33.4705 137.704 4.625 127.062 30.4457 110.371Z" fill="#C00000" transform="matrix(1.83697e-16 1 1 -1.83697e-16 1195.5 1771.5)"/><text font-family="Calibri,Calibri_MSFontService,sans-serif" font-weight="400" font-size="64" transform="matrix(1 0 0 1 1087.64 2207)">activity node</text><path d="M0.00435898-3.4375 390.896-2.94182 390.887 3.93317-0.00435898 3.4375ZM386.326-13.2601 413.809 0.524738 386.291 14.2399Z" fill="#C00000" transform="matrix(1 0 0 -1 753.5 1711.02)"/><path d="M0.106297-3.43586 385.819 8.49719 385.607 15.3689-0.106297 3.43586ZM381.557-1.9521 408.619 12.6417 380.707 25.5347Z" fill="#C00000" transform="matrix(1 0 0 -1 1346.5 1710.14)"/><path d="M795.269 1482.55 1149.23 1695.09 1145.69 1700.99 791.73 1488.45ZM1150.61 1683.89 1167.1 1709.84 1136.45 1707.47Z" fill="#C00000"/><path d="M1.77092-2.94623 355.732 209.813 352.19 215.706-1.77092 2.94623ZM357.117 198.613 373.603 224.566 342.95 222.183Z" fill="#C00000" transform="matrix(1 0 0 -1 793.5 1935.07)"/><path d="M1.85401-2.89466 344.234 216.398 340.525 222.187-1.85401 2.89466ZM345.936 205.242 361.678 231.653 331.104 228.399Z" fill="#C00000" transform="matrix(1 0 0 -1 1346.5 1710.15)"/><path d="M1348.21 1707.52 1706.55 1913.36 1703.13 1919.32 1344.79 1713.48ZM1707.71 1902.13 1724.71 1927.75 1694.01 1925.98Z" fill="#C00000"/><text font-family="Calibri,Calibri_MSFontService,sans-serif" font-weight="700" font-size="64" transform="matrix(1 0 0 1 1429.92 1945)">O<tspan font-size="43" x="43.5418" y="15">NodeOut</tspan><tspan font-size="64" x="-563.817" y="1">O</tspan><tspan font-size="43" x="-520.275" y="16">NodeIn</tspan></text></g></svg>