<svg width="2531" height="1207" xmlns="http://www.w3.org/2000/svg" xmlns:xlink="http://www.w3.org/1999/xlink" overflow="hidden"><defs><clipPath id="clip0"><rect x="443" y="63" width="2531" height="1207"/></clipPath></defs><g clip-path="url(#clip0)" transform="translate(-443 -63)"><path d="M1432 466.835C1432 434.341 1458.34 408 1490.83 408L1883.17 408C1915.66 408 1942 434.341 1942 466.835L1942 702.165C1942 734.659 1915.66 761 1883.17 761L1490.83 761C1458.34 761 1432 734.659 1432 702.165Z" stroke="#000000" stroke-width="10.3125" stroke-miterlimit="8" fill="#FFFFFF" fill-rule="evenodd"/><path d="M700 587.5C700 540.832 737.832 503 784.5 503 831.168 503 869 540.832 869 587.5 869 634.168 831.168 672 784.5 672 737.832 672 700 634.168 700 587.5Z" stroke="#000000" stroke-width="10.3125" stroke-miterlimit="8" fill="#FFFFFF" fill-rule="evenodd"/><text font-family="Calibri,Calibri_MSFontService,sans-serif" font-weight="700" font-size="55" transform="matrix(1 0 0 1 763.136 606)">S<tspan font-size="37" x="25.7813" y="13">F</tspan></text><path d="M2516 582C2516 532.294 2556.29 492 2606 492 2655.71 492 2696 532.294 2696 582 2696 631.706 2655.71 672 2606 672 2556.29 672 2516 631.706 2516 582Z" stroke="#000000" stroke-width="10.3125" stroke-miterlimit="8" fill="#FFFFFF" fill-rule="evenodd"/><text font-family="Calibri,Calibri_MSFontService,sans-serif" font-weight="700" font-size="55" transform="matrix(1 0 0 1 2585.05 600)">S<tspan font-size="37" x="25.7813" y="13">F</tspan></text><path d="M700 303.5C700 256.832 737.832 219 784.5 219 831.168 219 869 256.832 869 303.5 869 350.168 831.168 388 784.5 388 737.832 388 700 350.168 700 303.5Z" stroke="#000000" stroke-width="10.3125" stroke-miterlimit="8" fill="#FFFFFF" fill-rule="evenodd"/><text font-family="Calibri,Calibri_MSFontService,sans-serif" font-weight="700" font-size="55" transform="matrix(1 0 0 1 763.136 321)">S<tspan font-size="37" x="25.7813" y="13">F</tspan></text><path d="M700 871.5C700 824.832 737.832 787 784.5 787 831.168 787 869 824.832 869 871.5 869 918.168 831.168 956 784.5 956 737.832 956 700 918.168 700 871.5Z" stroke="#000000" stroke-width="10.3125" stroke-miterlimit="8" fill="#FFFFFF" fill-rule="evenodd"/><text font-family="Calibri,Calibri_MSFontService,sans-serif" font-weight="700" font-size="55" transform="matrix(1 0 0 1 763.136 890)">S<tspan font-size="37" x="25.7813" y="13">F</tspan></text><path d="M2521 303C2521 256.608 2558.83 219 2605.5 219 2652.17 219 2690 256.608 2690 303 2690 349.392 2652.17 387 2605.5 387 2558.83 387 2521 349.392 2521 303Z" stroke="#000000" stroke-width="10.3125" stroke-miterlimit="8" fill="#FFFFFF" fill-rule="evenodd"/><text font-family="Calibri,Calibri_MSFontService,sans-serif" font-weight="700" font-size="55" transform="matrix(1 0 0 1 2584.15 321)">S<tspan font-size="37" x="25.7813" y="13">F</tspan></text><path d="M2521 871.5C2521 824.832 2558.83 787 2605.5 787 2652.17 787 2690 824.832 2690 871.5 2690 918.168 2652.17 956 2605.5 956 2558.83 956 2521 918.168 2521 871.5Z" stroke="#000000" stroke-width="10.3125" stroke-miterlimit="8" fill="#FFFFFF" fill-rule="evenodd"/><text font-family="Calibri,Calibri_MSFontService,sans-serif" font-weight="700" font-size="55" transform="matrix(1 0 0 1 2584.15 889)">S<tspan font-size="37" x="25.7813" y="13">F</tspan></text><path d="M494.5 588.5C494.5 301.864 623.89 69.4999 783.5 69.4999 943.11 69.4999 1072.5 301.864 1072.5 588.5 1072.5 875.136 943.11 1107.5 783.5 1107.5 623.89 1107.5 494.5 875.136 494.5 588.5Z" stroke="#000000" stroke-width="4.58333" stroke-miterlimit="8" stroke-dasharray="18.3333 13.75" fill="none" fill-rule="evenodd"/><path d="M2317.5 584.5C2317.5 297.864 2446.67 65.5002 2606 65.5002 2765.33 65.5002 2894.5 297.864 2894.5 584.5 2894.5 871.136 2765.33 1103.5 2606 1103.5 2446.67 1103.5 2317.5 871.136 2317.5 584.5Z" stroke="#000000" stroke-width="4.58333" stroke-miterlimit="8" stroke-dasharray="18.3333 13.75" fill="none" fill-rule="evenodd"/><text font-family="Calibri,Calibri_MSFontService,sans-serif" font-weight="400" font-size="83" transform="matrix(1 0 0 1 492.978 1197)">set of input flows<tspan font-size="83" x="1797.84" y="1">set of output flows</tspan></text><path d="M1597 586C1597 536.294 1637.29 496 1687 496 1736.71 496 1777 536.294 1777 586 1777 635.706 1736.71 676 1687 676 1637.29 676 1597 635.706 1597 586Z" stroke="#000000" stroke-width="10.3125" stroke-miterlimit="8" fill="#FFFFFF" fill-rule="evenodd"/><text font-family="Calibri,Calibri_MSFontService,sans-serif" font-weight="700" font-size="55" transform="matrix(1 0 0 1 1662.16 604)">S<tspan font-size="37" x="25.7813" y="13">N</tspan><tspan font-size="83" x="-469.55" y="-314">F</tspan><tspan font-size="55" x="-431.737" y="-294">In</tspan><tspan font-size="83" x="-39.2445" y="389">F</tspan><tspan font-size="55" x="-1.43201" y="409">Run</tspan><tspan font-size="83" x="396.299" y="-315">F</tspan><tspan font-size="55" x="433.516" y="-295">Out</tspan></text><path d="M841.069 527.845 841.646 518.819 843.41 509.537 846.272 500.431 850.159 491.362 855.122 482.402 860.966 473.604 867.812 464.967 875.52 456.431 884.105 448.037 893.493 439.854 903.623 431.876 914.498 424.1 926.119 416.521 938.416 409.206 951.333 402.086 964.814 395.282 978.914 388.736 993.513 382.506 1008.67 376.595 1024.2 370.999 1040.23 365.782 1056.63 360.881 1073.34 356.42 1090.43 352.273 1107.77 348.629 1125.42 345.362 1143.2 342.598 1161.23 340.273 1179.39 338.451 1197.61 337.132 1215.96 336.315 1234.31 336.001 1252.66 336.252 1271.01 337.069 1289.23 338.326 1307.39 340.148 1325.41 342.409 1343.18 345.109 1360.84 348.25 1378.17 351.831 1395.19 355.788 1411.97 360.124 1428.37 364.899 1444.34 369.927 1459.93 375.397 1475.01 381.117 1489.68 387.158 1503.71 393.516 1517.25 400.126 1530.17 406.997 1542.41 414.127 1554.03 421.511 1564.9 429.033 1575.1 436.824 1584.42 444.751 1593 452.826 1600.72 461.12 1607.57 469.563 1613.48 478.114 1618.45 486.95 1622.68 498.913 1616.19 501.201 1612.07 489.52 1612.32 490.063 1607.57 481.625 1607.74 481.894 1601.99 473.582 1602.14 473.791 1595.45 465.541 1595.61 465.718 1588.05 457.593 1588.21 457.755 1579.77 449.817 1579.9 449.932 1570.71 442.12 1570.85 442.233 1560.79 434.545 1560.92 434.641 1550.17 427.203 1550.28 427.277 1538.78 419.964 1538.89 420.034 1526.77 412.972 1526.89 413.036 1514.07 406.224 1514.18 406.278 1500.74 399.715 1500.83 399.758 1486.89 393.445 1487 393.492 1472.44 387.492 1472.53 387.528 1457.53 381.84 1457.61 381.87 1442.11 376.432 1442.22 376.467 1426.34 371.467 1426.41 371.489 1410.1 366.739 1410.2 366.767 1393.51 362.454 1393.6 362.474 1376.66 358.537 1376.74 358.555 1359.49 354.993 1359.59 355.011 1342.02 351.886 1342.11 351.9 1324.42 349.212 1324.51 349.224 1306.57 346.974 1306.66 346.984 1288.59 345.172 1288.7 345.181 1270.58 343.931 1270.66 343.935 1252.41 343.123 1252.52 343.126 1234.27 342.876 1234.37 342.876 1216.12 343.188 1216.22 343.185 1197.97 343.998 1198.06 343.992 1179.94 345.305 1180.03 345.297 1161.97 347.109 1162.06 347.098 1144.13 349.411 1144.22 349.398 1126.53 352.148 1126.63 352.131 1109.06 355.381 1109.14 355.365 1091.89 358.99 1092 358.967 1075 363.092 1075.07 363.072 1058.45 367.51 1058.55 367.482 1042.23 372.357 1042.31 372.332 1026.38 377.52 1026.48 377.485 1011.04 383.048 1011.12 383.016 996.062 388.891 996.162 388.85 981.662 395.038 981.76 394.994 967.76 401.494 967.861 401.445 954.486 408.195 954.597 408.137 941.784 415.199 941.882 415.143 929.695 422.393 929.815 422.318 918.315 429.818 918.437 429.735 907.687 437.422 907.814 437.327 897.814 445.202 897.946 445.093 888.696 453.155 888.841 453.022 880.403 461.272 880.551 461.117 872.989 469.492 873.131 469.324 866.444 477.761 866.613 477.528 860.926 486.091 861.069 485.854 856.257 494.542 856.409 494.23 852.659 502.98 852.779 502.657 850.029 511.407 850.127 511.018 848.439 519.893 848.493 519.47 847.93 528.283ZM1631.98 492.791 1624.06 522.501 1605.04 498.345Z" fill="#C00000"/><path d="M-0.221314 3.43037-4.28718 3.16805-8.56462 2.40915-12.7506 1.10533-16.87-0.650474-20.9625-2.86445-24.9505-5.52311-28.8202-8.54022-32.7104-11.9688-40.0708-19.8458-47.0784-29.1035-53.6632-39.524-59.7738-51.0451-65.4253-63.4912-70.4965-76.8663-74.9918-90.922-78.7898-105.671-81.8272-120.858-84.0412-136.419-85.4327-152.232-85.9392-168.188-85.6823-176.28-84.9129-184.359-83.695-192.372-81.9651-200.381-79.7928-208.303-77.2338-216.108-74.1691-223.834-70.7917-231.417-66.9673-238.938-62.808-246.297-53.4733-260.394-42.8497-273.817-31.0256-286.277-18.2521-297.779-4.51899-308.143 9.98224-317.301 25.1027-325.052 32.9151-328.382 40.819-331.314 48.8564-333.866 56.9093-335.975 65.0945-337.637 73.352-338.853 81.5498-339.558 89.8754-339.814 98.1502-339.558 106.412-338.789 114.595-337.574 122.787-335.91 130.906-333.737 138.884-331.184 146.784-328.19 154.595-324.86 169.724-316.978 184.224-307.693 197.955-297.204 210.732-285.571 222.553-272.86 233.174-259.314 242.506-244.967 246.661-237.552 250.486-229.964 253.864-222.252 256.927-214.404 259.484-206.479 261.654-198.499 263.384-190.426 264.601-182.227 265.37-174.091 265.627-165.875 265.12-149.735 263.729-133.675 261.516-117.929 258.479-102.492 254.682-87.6215 250.189-73.3172 245.122-59.8275 239.533-47.1259 233.355-35.4703 226.778-24.9333 219.774-15.5528 212.408-7.54056 208.244-3.87014 202.414-0.988382 199.367-7.15157 204.789-9.83159 204.04-9.32884 207.727-12.5788 207.469-12.3265 214.594-20.0765 214.37-19.8065 221.183-28.9315 221.021-28.6953 227.459-39.0078 227.338-38.7974 233.4-50.2349 233.291-50.0094 238.791-62.5094 238.719-62.3336 243.719-75.6461 243.658-75.4678 248.096-89.5928 248.044-89.4129 251.794-104.1 251.752-103.914 254.752-119.164 254.721-118.978 256.908-134.541 256.888-134.359 258.263-150.234 258.252-150.045 258.752-165.983 258.752-165.768 258.502-173.768 258.515-173.552 257.765-181.489 257.787-181.308 256.6-189.308 256.639-189.092 254.951-196.967 254.996-196.785 252.871-204.598 252.916-204.445 250.416-212.195 250.485-212 247.485-219.688 247.539-219.558 244.226-227.121 244.306-226.952 240.556-234.39 240.626-234.257 236.564-241.507 236.681-241.313 227.493-255.438 227.67-255.192 217.232-268.504 217.42-268.284 205.795-280.784 205.998-280.583 193.436-292.021 193.663-291.831 180.163-302.143 180.396-301.98 166.146-311.105 166.412-310.951 151.537-318.701 151.777-318.588 144.152-321.838 144.282-321.786 136.532-324.723 136.702-324.664 128.89-327.164 129.049-327.117 121.111-329.242 121.316-329.194 113.316-330.819 113.495-330.787 105.495-331.975 105.682-331.952 97.6191-332.702 97.831-332.689 89.7685-332.939 89.9807-332.939 81.8557-332.689 82.0443-332.7 74.0443-332.013 74.2509-332.037 66.1884-330.849 66.3718-330.881 58.3718-329.256 58.5584-329.3 50.6834-327.237 50.8526-327.286 42.9776-324.786 43.1331-324.84 35.3831-321.965 35.5353-322.025 27.9103-318.775 28.1306-318.879 13.2556-311.254 13.5231-311.406-0.726899-302.406-0.49188-302.569-13.9919-292.381-13.7622-292.571-26.3247-281.258-26.1315-281.446-37.7565-269.196-37.5546-269.429-47.9921-256.242-47.8214-256.477-57.0089-242.602-56.8824-242.809-60.9449-235.621-60.8734-235.754-64.6234-228.379-64.5474-228.539-67.8599-221.101-67.8047-221.232-70.8047-213.67-70.7336-213.867-73.2336-206.242-73.1849-206.404-75.3099-198.654-75.265-198.837-76.9525-191.024-76.914-191.233-78.1015-183.421-78.078-183.612-78.828-175.737-78.8142-175.953-79.0642-168.078-79.0642-168.297-78.5642-152.547-78.5757-152.739-77.2007-137.114-77.2218-137.297-75.0343-121.922-75.0668-122.112-72.0668-107.112-72.1086-107.295-68.3586-92.7322-68.4134-92.9221-63.9759-79.0471-64.0358-79.2187-59.0358-66.0312-59.1201-66.2337-53.5576-53.9837-53.6507-54.1732-47.6507-42.8607-47.7816-43.0863-41.3441-32.8988-41.5092-33.1372-34.6967-24.1372-34.9259-24.4094-27.8009-16.7844-28.0396-17.0163-24.3521-13.7663-24.5114-13.8984-20.8239-11.0234-21.0307-11.1727-17.2807-8.67267-17.5519-8.83593-13.7394-6.77343-14.0272-6.91224-10.2147-5.28724-10.5402-5.40698-6.72774-4.21948-7.1495-4.32214-3.2745-3.63464-3.65369-3.68037 0.221314-3.43037ZM210.348 6.91289 179.688 4.625 199.914-18.5308Z" fill="#C00000" transform="matrix(1 -1.22465e-16 -1.22465e-16 -1 1597.5 591.083)"/><path d="M1748.07 522.405 1748.65 513.682 1750.42 504.754 1753.36 495.877 1757.32 487.177 1762.35 478.524 1768.33 470.04 1775.31 461.657 1783.15 453.433 1791.8 445.421 1801.38 437.489 1811.7 429.83 1822.75 422.314 1834.49 414.989 1846.99 407.923 1860.1 401.116 1873.88 394.569 1888.16 388.279 1903 382.242 1918.35 376.518 1934.19 371.176 1950.4 366.086 1967.05 361.436 1984.07 357.103 2001.41 353.146 2019.05 349.628 2036.95 346.489 2055.03 343.789 2073.31 341.528 2091.78 339.768 2110.31 338.513 2128.9 337.696 2147.56 337.445 2166.22 337.696 2184.81 338.45 2203.4 339.706 2221.81 341.465 2240.08 343.662 2258.22 346.299 2276.05 349.313 2293.71 352.768 2311.04 356.662 2328.06 360.869 2344.71 365.456 2360.98 370.419 2376.75 375.634 2392.15 381.23 2407 387.08 2421.28 393.247 2435.01 399.668 2448.11 406.345 2460.6 413.219 2472.34 420.352 2483.46 427.685 2493.72 435.217 2503.3 442.893 2511.95 450.785 2519.79 458.815 2526.77 467.01 2532.75 475.31 2537.81 483.839 2541.86 494.893 2535.41 497.262 2531.46 486.505 2531.73 487.072 2526.92 478.947 2527.09 479.205 2521.27 471.143 2521.45 471.361 2514.63 463.361 2514.79 463.534 2507.1 455.659 2507.25 455.798 2498.75 448.048 2498.91 448.19 2489.48 440.627 2489.59 440.715 2479.46 433.278 2479.61 433.378 2468.61 426.128 2468.72 426.195 2457.09 419.133 2457.22 419.206 2444.84 412.394 2444.94 412.445 2431.94 405.82 2432.04 405.871 2418.42 399.496 2418.51 399.538 2404.32 393.413 2404.43 393.456 2389.68 387.643 2389.76 387.676 2374.45 382.113 2374.55 382.146 2358.86 376.959 2358.93 376.983 2342.75 372.045 2342.84 372.072 2326.27 367.509 2326.36 367.532 2309.42 363.344 2309.5 363.361 2292.25 359.486 2292.34 359.506 2274.78 356.068 2274.86 356.084 2257.11 353.084 2257.19 353.097 2239.13 350.472 2239.21 350.483 2221.03 348.295 2221.11 348.304 2202.8 346.554 2202.89 346.562 2184.39 345.312 2184.49 345.317 2165.99 344.567 2166.08 344.57 2147.52 344.32 2147.61 344.32 2129.05 344.57 2129.15 344.567 2110.65 345.379 2110.73 345.375 2092.29 346.625 2092.39 346.617 2074.01 348.367 2074.11 348.356 2055.92 350.606 2056.01 350.595 2038.01 353.282 2038.09 353.268 2020.28 356.393 2020.36 356.379 2002.8 359.879 2002.89 359.859 1985.64 363.796 1985.72 363.776 1968.79 368.089 1968.86 368.068 1952.3 372.693 1952.4 372.662 1936.28 377.725 1936.35 377.702 1920.6 383.015 1920.7 382.978 1905.45 388.666 1905.55 388.629 1890.8 394.629 1890.89 394.591 1876.7 400.841 1876.79 400.8 1863.1 407.3 1863.21 407.246 1850.21 413.996 1850.32 413.937 1837.94 420.937 1838.07 420.862 1826.44 428.112 1826.56 428.038 1815.62 435.475 1815.74 435.393 1805.55 442.955 1805.69 442.843 1796.25 450.655 1796.4 450.529 1787.9 458.404 1788.05 458.255 1780.36 466.317 1780.52 466.144 1773.7 474.331 1773.87 474.112 1768.06 482.362 1768.22 482.112 1763.35 490.487 1763.5 490.182 1759.69 498.557 1759.83 498.212 1757.01 506.712 1757.12 506.302 1755.43 514.802 1755.49 514.359 1754.93 522.859ZM2551.06 488.611 2543.62 518.445 2524.22 494.597Z" fill="#C00000"/><text font-family="Calibri,Calibri_MSFontService,sans-serif" font-weight="400" font-size="83" transform="matrix(1 0 0 1 1470.81 1197)">activity node</text></g></svg>