<svg width="1916" height="280" xmlns="http://www.w3.org/2000/svg" xmlns:xlink="http://www.w3.org/1999/xlink" overflow="hidden"><defs><clipPath id="clip0"><rect x="2194" y="1684" width="1916" height="280"/></clipPath></defs><g clip-path="url(#clip0)" transform="translate(-2194 -1684)"><path d="M2199 1734C2199 1709.15 2219.15 1689 2244 1689L2661 1689C2685.85 1689 2706 1709.15 2706 1734L2706 1914C2706 1938.85 2685.85 1959 2661 1959L2244 1959C2219.15 1959 2199 1938.85 2199 1914Z" stroke="#000000" stroke-width="10.3125" stroke-miterlimit="8" fill="#FFFFFF" fill-rule="evenodd"/><text font-family="Calibri,Calibri_MSFontService,sans-serif" font-weight="400" font-size="92" transform="matrix(1 0 0 1 2336.73 1855)">Node<tspan font-size="61" x="201.094" y="22">1</tspan></text><path d="M0.0157292-5.15623 150.746-4.69642 150.715 5.61603-0.0157292 5.15623ZM145.621-15.0246 176.511 0.538451 145.527 15.9128Z" transform="matrix(1 0 0 -1 2768 1822.54)"/><path d="M3598 1739.33C3598 1715.4 3617.4 1696 3641.33 1696L4061.67 1696C4085.6 1696 4105 1715.4 4105 1739.33L4105 1912.67C4105 1936.6 4085.6 1956 4061.67 1956L3641.33 1956C3617.4 1956 3598 1936.6 3598 1912.67Z" stroke="#000000" stroke-width="10.3125" stroke-miterlimit="8" fill="#FFFFFF" fill-rule="evenodd"/><text font-family="Calibri,Calibri_MSFontService,sans-serif" font-weight="400" font-size="92" transform="matrix(1 0 0 1 3735.68 1857)">Node<tspan font-size="61" x="201.094" y="22">2</tspan></text><rect x="2642.5" y="1757.5" width="126" height="132" stroke="#000000" stroke-width="4.58333" stroke-miterlimit="8"/><text fill="#FFFFFF" font-family="Calibri,Calibri_MSFontService,sans-serif" font-weight="700" font-size="55" transform="matrix(1 0 0 1 2681.31 1841)">P<tspan font-size="37" x="29.2188" y="13">1</tspan></text><rect x="3530.5" y="1758.5" width="125" height="131" stroke="#000000" stroke-width="4.58333" stroke-miterlimit="8"/><text fill="#FFFFFF" font-family="Calibri,Calibri_MSFontService,sans-serif" font-weight="700" font-size="55" transform="matrix(1 0 0 1 3568.55 1842)">P<tspan font-size="37" x="29.2188" y="13">2</tspan></text><path d="M2944 1762C2944 1745.43 2957.43 1732 2974 1732L3330 1732C3346.57 1732 3360 1745.43 3360 1762L3360 1882C3360 1898.57 3346.57 1912 3330 1912L2974 1912C2957.43 1912 2944 1898.57 2944 1882Z" stroke="#000000" stroke-width="10.3125" stroke-miterlimit="8" fill="#FFFFFF" fill-rule="evenodd"/><text font-family="Calibri,Calibri_MSFontService,sans-serif" font-weight="400" font-size="55" transform="matrix(1 0 0 1 2997.87 1840)">Central Buffer</text><path d="M3360.04 1816.84 3503.74 1817.86 3503.66 1828.17 3359.96 1827.16ZM3498.65 1807.51 3529.48 1823.2 3498.43 1838.45Z"/></g></svg>