<svg width="1290" height="777" xmlns="http://www.w3.org/2000/svg" xmlns:xlink="http://www.w3.org/1999/xlink" overflow="hidden"><defs><clipPath id="clip0"><rect x="2489" y="1234" width="1290" height="777"/></clipPath></defs><g clip-path="url(#clip0)" transform="translate(-2489 -1234)"><path d="M2494 1342.34C2494 1285.26 2540.26 1239 2597.34 1239L3647.66 1239C3704.74 1239 3751 1285.26 3751 1342.34L3751 1755.66C3751 1812.74 3704.74 1859 3647.66 1859L2597.34 1859C2540.26 1859 2494 1812.74 2494 1755.66Z" stroke="#000000" stroke-width="10.3125" stroke-miterlimit="8" fill="#FFFFFF" fill-rule="evenodd"/><text font-family="Calibri,Calibri_MSFontService,sans-serif" font-weight="700" font-size="64" transform="matrix(1 0 0 1 2556.51 1498)">O<tspan font-size="43" x="43.5418" y="15">NodeRun</tspan></text><path d="M2811 1549C2811 1478.31 2868.31 1421 2939 1421 3009.69 1421 3067 1478.31 3067 1549 3067 1619.69 3009.69 1677 2939 1677 2868.31 1677 2811 1619.69 2811 1549Z" stroke="#000000" stroke-width="10.3125" stroke-miterlimit="8" fill="#FFFFFF" fill-rule="evenodd"/><text font-family="Calibri,Calibri_MSFontService,sans-serif" font-weight="700" font-size="55" transform="matrix(1 0 0 1 2882.15 1567)">S<tspan font-size="37" x="25.7813" y="13">Initial</tspan><tspan font-weight="400" font-size="64" x="17.729" y="388">composite node</tspan></text><path d="M3186 1549C3186 1478.31 3243.31 1421 3314 1421 3384.69 1421 3442 1478.31 3442 1549 3442 1619.69 3384.69 1677 3314 1677 3243.31 1677 3186 1619.69 3186 1549Z" stroke="#000000" stroke-width="10.3125" stroke-miterlimit="8" fill="#FFFFFF" fill-rule="evenodd"/><text font-family="Calibri,Calibri_MSFontService,sans-serif" font-weight="700" font-size="55" transform="matrix(1 0 0 1 3264.83 1567)">S<tspan font-size="37" x="25.7813" y="13">Final</tspan></text><path d="M2494.5 1546.06 2787.96 1546.06 2787.96 1552.94 2494.5 1552.94ZM2783.37 1535.75 2810.87 1549.5 2783.37 1563.25Z" fill="#C00000"/><text font-family="Calibri,Calibri_MSFontService,sans-serif" font-weight="700" font-size="64" transform="matrix(1 0 0 1 3481.82 1505)">O<tspan font-size="43" x="43.5415" y="15">NodeRun</tspan></text><path d="M3442.5 1546.06 3728.4 1546.06 3728.4 1552.94 3442.5 1552.94ZM3723.82 1535.75 3751.32 1549.5 3723.82 1563.25Z" fill="#C00000"/></g></svg>