<svg width="3585" height="1046" xmlns="http://www.w3.org/2000/svg" xmlns:xlink="http://www.w3.org/1999/xlink" overflow="hidden"><defs><clipPath id="clip0"><rect x="338" y="398" width="3585" height="1046"/></clipPath></defs><g clip-path="url(#clip0)" transform="translate(-338 -398)"><path d="M338 1321C338 1271.85 377.847 1232 427 1232 476.153 1232 516 1271.85 516 1321 516 1370.15 476.153 1410 427 1410 377.847 1410 338 1370.15 338 1321Z" fill-rule="evenodd"/><path d="M709 1321 842 1232 975 1321 842 1410Z" stroke="#000000" stroke-width="10.3125" stroke-miterlimit="8" fill="#FFFFFF" fill-rule="evenodd"/><path d="M1649 1255.17C1649 1237.4 1663.4 1223 1681.17 1223L2126.83 1223C2144.6 1223 2159 1237.4 2159 1255.17L2159 1383.83C2159 1401.6 2144.6 1416 2126.83 1416L1681.17 1416C1663.4 1416 1649 1401.6 1649 1383.83Z" stroke="#000000" stroke-width="10.3125" stroke-miterlimit="8" fill="#FFFFFF" fill-rule="evenodd"/><text font-family="Calibri,Calibri_MSFontService,sans-serif" font-weight="400" font-size="92" transform="matrix(1 0 0 1 1832.14 1351)">Edit</text><path d="M3716 1318C3716 1268.85 3755.85 1229 3805 1229 3854.15 1229 3894 1268.85 3894 1318 3894 1367.15 3854.15 1407 3805 1407 3755.85 1407 3716 1367.15 3716 1318Z" fill-rule="evenodd"/><path d="M3692 1318C3692 1256.14 3742.14 1206 3804 1206 3865.86 1206 3916 1256.14 3916 1318 3916 1379.86 3865.86 1430 3804 1430 3742.14 1430 3692 1379.86 3692 1318Z" stroke="#000000" stroke-width="13.75" stroke-miterlimit="8" fill="none" fill-rule="evenodd"/><path d="M3113 1318 3246 1229 3379 1318 3246 1407Z" stroke="#000000" stroke-width="10.3125" stroke-miterlimit="8" fill="#FFFFFF" fill-rule="evenodd"/><path d="M516 1315.84 526.312 1315.84 526.312 1326.16 516 1326.16ZM536.625 1315.84 546.937 1315.84 546.937 1326.16 536.625 1326.16ZM557.25 1315.84 567.562 1315.84 567.562 1326.16 557.25 1326.16ZM577.875 1315.84 588.187 1315.84 588.187 1326.16 577.875 1326.16ZM598.5 1315.84 608.812 1315.84 608.812 1326.16 598.5 1326.16ZM619.125 1315.84 629.437 1315.84 629.437 1326.16 619.125 1326.16ZM639.75 1315.84 650.062 1315.84 650.062 1326.16 639.75 1326.16ZM660.375 1315.84 670.687 1315.84 670.687 1326.16 660.375 1326.16ZM681 1315.84 691.312 1315.84 691.312 1326.16 681 1326.16ZM670.832 1298.5 709.405 1321 670.832 1343.5C668.372 1344.94 665.215 1344.1 663.78 1341.65 662.345 1339.19 663.176 1336.03 665.636 1334.59L696.573 1316.55 696.573 1325.45 665.636 1307.41C663.176 1305.97 662.345 1302.82 663.78 1300.36 665.215 1297.9 668.372 1297.06 670.832 1298.5Z"/><path d="M1244 470.167C1244 452.402 1258.4 438 1276.17 438L1718.83 438C1736.6 438 1751 452.402 1751 470.167L1751 598.833C1751 616.598 1736.6 631 1718.83 631L1276.17 631C1258.4 631 1244 616.598 1244 598.833Z" stroke="#000000" stroke-width="10.3125" stroke-miterlimit="8" fill="#FFFFFF" fill-rule="evenodd"/><text font-family="Calibri,Calibri_MSFontService,sans-serif" font-weight="400" font-size="92" transform="matrix(1 0 0 1 1388.98 566)">Read<tspan font-size="61" x="186.313" y="22">1</tspan></text><path d="M2057 473.001C2057 455.88 2070.88 442 2088 442L2595 442C2612.12 442 2626 455.88 2626 473.001L2626 596.999C2626 614.121 2612.12 628 2595 628L2088 628C2070.88 628 2057 614.121 2057 596.999Z" stroke="#000000" stroke-width="10.3125" stroke-miterlimit="8" fill="#FFFFFF" fill-rule="evenodd"/><text font-family="Calibri,Calibri_MSFontService,sans-serif" font-weight="400" font-size="92" transform="matrix(1 0 0 1 2172.91 566)">Compile<tspan font-size="61" x="306.511" y="22">1</tspan></text><path d="M836.844 1232.56 836.844 1222.25 847.156 1222.25 847.156 1232.56ZM836.844 1211.94 836.844 1201.62 847.156 1201.62 847.156 1211.94ZM836.844 1191.31 836.844 1181 847.156 1181 847.156 1191.31ZM836.844 1170.69 836.844 1160.37 847.156 1160.37 847.156 1170.69ZM836.844 1150.06 836.844 1139.75 847.156 1139.75 847.156 1150.06ZM836.844 1129.44 836.844 1119.12 847.156 1119.12 847.156 1129.44ZM836.844 1108.81 836.844 1098.5 847.156 1098.5 847.156 1108.81ZM836.844 1088.19 836.844 1077.87 847.156 1077.87 847.156 1088.19ZM836.844 1067.56 836.844 1057.25 847.156 1057.25 847.156 1067.56ZM836.844 1046.94 836.844 1036.62 847.156 1036.62 847.156 1046.94ZM836.844 1026.31 836.844 1016 847.156 1016 847.156 1026.31ZM836.844 1005.69 836.844 995.375 847.156 995.375 847.156 1005.69ZM836.844 985.062 836.844 974.75 847.156 974.75 847.156 985.062ZM836.844 964.437 836.844 954.125 847.156 954.125 847.156 964.437ZM836.844 943.812 836.844 933.5 847.156 933.5 847.156 943.812ZM836.844 923.187 836.844 912.875 847.156 912.875 847.156 923.187ZM836.844 902.562 836.844 892.25 847.156 892.25 847.156 902.562ZM836.844 881.937 836.844 871.625 847.156 871.625 847.156 881.937ZM836.844 861.312 836.844 851 847.156 851 847.156 861.312ZM836.844 840.687 836.844 830.375 847.156 830.375 847.156 840.687ZM836.844 820.062 836.844 809.75 847.156 809.75 847.156 820.062ZM836.844 799.437 836.844 789.125 847.156 789.125 847.156 799.437ZM836.844 778.812 836.844 768.5 847.156 768.5 847.156 778.812ZM836.844 758.187 836.844 747.875 847.156 747.875 847.156 758.187ZM836.844 737.562 836.844 727.25 847.156 727.25 847.156 737.562ZM846.323 716.104 856.636 716.104 856.636 726.417 846.323 726.417ZM866.948 716.104 877.261 716.104 877.261 726.417 866.948 726.417ZM887.573 716.104 897.886 716.104 897.886 726.417 887.573 726.417ZM908.198 716.104 918.511 716.104 918.511 726.417 908.198 726.417ZM928.823 716.104 939.136 716.104 939.136 726.417 928.823 726.417ZM949.448 716.104 959.761 716.104 959.761 726.417 949.448 726.417ZM970.073 716.104 980.386 716.104 980.386 726.417 970.073 726.417ZM990.698 716.104 1001.01 716.104 1001.01 726.417 990.698 726.417ZM1011.32 716.104 1021.64 716.104 1021.64 726.417 1011.32 726.417ZM1031.95 716.104 1042.26 716.104 1042.26 726.417 1031.95 726.417ZM1052.57 716.104 1062.89 716.104 1062.89 726.417 1052.57 726.417ZM1040.69 699.491 1079.82 720.999 1041.84 744.477C1039.41 745.975 1036.24 745.225 1034.74 742.802 1033.24 740.38 1033.99 737.203 1036.41 735.705L1066.88 716.874 1067.11 725.779 1035.72 708.528C1033.22 707.157 1032.31 704.022 1033.68 701.526 1035.06 699.03 1038.19 698.119 1040.69 699.491Z"/><path d="M1.03123e-05-5.15625 170.24-5.15591 170.24 5.15659-1.03123e-05 5.15625ZM141.9-22.5005 180.473 0.000360952 141.9 22.501C139.44 23.9359 136.283 23.105 134.848 20.6452 133.413 18.1854 134.244 15.0282 136.704 13.5933L167.642-4.45352 167.642 4.4542 136.704-13.5927C134.244-15.0276 133.413-18.1849 134.848-20.6447 136.283-23.1045 139.441-23.9353 141.9-22.5005Z" transform="matrix(1 0 0 -1 1814 535)"/><rect x="1688.5" y="469.5" width="126" height="131" stroke="#000000" stroke-width="4.58333" stroke-miterlimit="8"/><text fill="#FFFFFF" font-family="Calibri,Calibri_MSFontService,sans-serif" font-weight="700" font-size="55" transform="matrix(1 0 0 1 1736.41 553)">P</text><rect x="1994.5" y="469.5" width="126" height="131" stroke="#000000" stroke-width="4.58333" stroke-miterlimit="8"/><text fill="#FFFFFF" font-family="Calibri,Calibri_MSFontService,sans-serif" font-weight="700" font-size="55" transform="matrix(1 0 0 1 2027.65 553)">P<tspan font-size="37" x="29.2186" y="13">In</tspan><tspan fill="#000000" font-weight="400" font-size="55" x="881.336" y="843">[errors]</tspan><tspan fill="#000000" font-weight="400" font-size="55" x="1389.22" y="843">[no errors]</tspan></text><path d="M1080 398 1080 1030.78" stroke="#000000" stroke-width="10.3125" stroke-miterlimit="8" fill="#FFFFFF" fill-rule="evenodd"/><path d="M1251 835.001C1251 817.327 1265.33 803 1283 803L1725 803C1742.67 803 1757 817.327 1757 835.001L1757 962.999C1757 980.673 1742.67 995 1725 995L1283 995C1265.33 995 1251 980.673 1251 962.999Z" stroke="#000000" stroke-width="10.3125" stroke-miterlimit="8" fill="#FFFFFF" fill-rule="evenodd"/><text font-family="Calibri,Calibri_MSFontService,sans-serif" font-weight="400" font-size="92" transform="matrix(1 0 0 1 1395.41 930)">Read<tspan font-size="61" x="186.313" y="22">2</tspan></text><path d="M2063 837.168C2063 819.954 2076.95 806 2094.17 806L2601.83 806C2619.05 806 2633 819.954 2633 837.168L2633 961.833C2633 979.046 2619.05 993 2601.83 993L2094.17 993C2076.95 993 2063 979.046 2063 961.833Z" stroke="#000000" stroke-width="10.3125" stroke-miterlimit="8" fill="#FFFFFF" fill-rule="evenodd"/><text font-family="Calibri,Calibri_MSFontService,sans-serif" font-weight="400" font-size="92" transform="matrix(1 0 0 1 2179.35 930)">Compile<tspan font-size="61" x="306.511" y="22">2</tspan></text><path d="M1.03123e-05-5.15625 170.24-5.15591 170.24 5.15659-1.03123e-05 5.15625ZM141.9-22.5005 180.473 0.000360952 141.9 22.501C139.44 23.9359 136.283 23.105 134.848 20.6452 133.413 18.1854 134.244 15.0282 136.704 13.5933L167.642-4.45352 167.642 4.4542 136.704-13.5927C134.244-15.0276 133.413-18.1849 134.848-20.6447 136.283-23.1045 139.441-23.9353 141.9-22.5005Z" transform="matrix(1 0 0 -1 1820 899)"/><rect x="1695.5" y="833.5" width="125" height="132" stroke="#000000" stroke-width="4.58333" stroke-miterlimit="8"/><text fill="#FFFFFF" font-family="Calibri,Calibri_MSFontService,sans-serif" font-weight="700" font-size="55" transform="matrix(1 0 0 1 1742.84 917)">P</text><rect x="2001.5" y="833.5" width="125" height="132" stroke="#000000" stroke-width="4.58333" stroke-miterlimit="8"/><text fill="#FFFFFF" font-family="Calibri,Calibri_MSFontService,sans-serif" font-weight="700" font-size="55" transform="matrix(1 0 0 1 2034.08 917)">P<tspan font-size="37" x="29.2188" y="13">In</tspan></text><path d="M1080 893.844 1090.31 893.844 1090.31 904.156 1080 904.156ZM1100.63 893.844 1110.94 893.844 1110.94 904.156 1100.63 904.156ZM1121.25 893.844 1131.56 893.844 1131.56 904.156 1121.25 904.156ZM1141.88 893.844 1152.19 893.844 1152.19 904.156 1141.88 904.156ZM1162.5 893.844 1172.81 893.844 1172.81 904.156 1162.5 904.156ZM1183.13 893.844 1193.44 893.844 1193.44 904.156 1183.13 904.156ZM1203.75 893.844 1214.06 893.844 1214.06 904.156 1203.75 904.156ZM1224.38 893.844 1234.69 893.844 1234.69 904.156 1224.38 904.156ZM1212.14 876.499 1250.71 899 1212.14 921.501C1209.68 922.936 1206.52 922.105 1205.08 919.645 1203.65 917.185 1204.48 914.028 1206.94 912.593L1237.88 894.546 1237.88 903.454 1206.94 885.407C1204.48 883.972 1203.65 880.815 1205.08 878.355 1206.52 875.895 1209.68 875.065 1212.14 876.499Z"/><path d="M1077 529.844 1087.31 529.844 1087.31 540.156 1077 540.156ZM1097.62 529.844 1107.94 529.844 1107.94 540.156 1097.62 540.156ZM1118.25 529.844 1128.56 529.844 1128.56 540.156 1118.25 540.156ZM1138.88 529.844 1149.19 529.844 1149.19 540.156 1138.88 540.156ZM1159.5 529.844 1169.81 529.844 1169.81 540.156 1159.5 540.156ZM1180.12 529.844 1190.44 529.844 1190.44 540.156 1180.12 540.156ZM1200.75 529.844 1211.06 529.844 1211.06 540.156 1200.75 540.156ZM1221.38 529.844 1231.69 529.844 1231.69 540.156 1221.38 540.156ZM1209.14 512.499 1247.71 535 1209.13 557.501C1206.68 558.936 1203.52 558.105 1202.08 555.645 1200.65 553.185 1201.48 550.028 1203.94 548.593L1234.88 530.546 1234.88 539.454 1203.94 521.407C1201.48 519.972 1200.65 516.815 1202.08 514.355 1203.52 511.895 1206.68 511.065 1209.14 512.499Z"/><path d="M2992 657.001C2992 639.327 3006.33 625 3024 625L3467 625C3484.67 625 3499 639.327 3499 657.001L3499 784.999C3499 802.673 3484.67 817 3467 817L3024 817C3006.33 817 2992 802.673 2992 784.999Z" stroke="#000000" stroke-width="10.3125" stroke-miterlimit="8" fill="#FFFFFF" fill-rule="evenodd"/><text font-family="Calibri,Calibri_MSFontService,sans-serif" font-weight="400" font-size="92" transform="matrix(1 0 0 1 3170.94 752)">Link</text><path d="M2804 398 2804 1030.78" stroke="#000000" stroke-width="10.3125" stroke-miterlimit="8" fill="#FFFFFF" fill-rule="evenodd"/><path d="M2633 893.844 2643.31 893.844 2643.31 904.156 2633 904.156ZM2653.63 893.844 2663.94 893.844 2663.94 904.156 2653.63 904.156ZM2674.25 893.844 2684.56 893.844 2684.56 904.156 2674.25 904.156ZM2694.88 893.844 2705.19 893.844 2705.19 904.156 2694.88 904.156ZM2715.5 893.844 2725.81 893.844 2725.81 904.156 2715.5 904.156ZM2736.13 893.844 2746.44 893.844 2746.44 904.156 2736.13 904.156ZM2756.75 893.844 2767.06 893.844 2767.06 904.156 2756.75 904.156ZM2777.38 893.844 2787.69 893.844 2787.69 904.156 2777.38 904.156ZM2765.14 876.499 2803.71 899 2765.14 921.501C2762.68 922.936 2759.52 922.105 2758.08 919.645 2756.65 917.185 2757.48 914.028 2759.94 912.593L2790.88 894.546 2790.88 903.454 2759.94 885.407C2757.48 883.972 2756.65 880.815 2758.08 878.355 2759.52 875.895 2762.68 875.065 2765.14 876.499Z"/><path d="M2633 526.844 2643.31 526.844 2643.31 537.156 2633 537.156ZM2653.63 526.844 2663.94 526.844 2663.94 537.156 2653.63 537.156ZM2674.25 526.844 2684.56 526.844 2684.56 537.156 2674.25 537.156ZM2694.88 526.844 2705.19 526.844 2705.19 537.156 2694.88 537.156ZM2715.5 526.844 2725.81 526.844 2725.81 537.157 2715.5 537.157ZM2736.13 526.844 2746.44 526.844 2746.44 537.157 2736.13 537.157ZM2756.75 526.844 2767.06 526.844 2767.06 537.157 2756.75 537.157ZM2777.38 526.844 2787.69 526.844 2787.69 537.157 2777.38 537.157ZM2765.14 509.5 2803.71 532 2765.14 554.501C2762.68 555.936 2759.52 555.105 2758.08 552.645 2756.65 550.186 2757.48 547.028 2759.94 545.593L2790.88 527.547 2790.88 536.454 2759.94 518.407C2757.48 516.972 2756.65 513.815 2758.08 511.355 2759.52 508.896 2762.68 508.065 2765.14 509.5Z"/><path d="M2810 715.844 2820.31 715.844 2820.31 726.156 2810 726.156ZM2830.63 715.844 2840.94 715.844 2840.94 726.156 2830.63 726.156ZM2851.25 715.844 2861.56 715.844 2861.56 726.156 2851.25 726.156ZM2871.88 715.844 2882.19 715.844 2882.19 726.156 2871.88 726.156ZM2892.5 715.844 2902.81 715.844 2902.81 726.156 2892.5 726.156ZM2913.13 715.844 2923.44 715.844 2923.44 726.156 2913.13 726.156ZM2933.75 715.844 2944.06 715.844 2944.06 726.156 2933.75 726.156ZM2954.38 715.844 2964.69 715.844 2964.69 726.156 2954.38 726.156ZM2975 715.844 2982.56 715.844 2982.56 726.156 2975 726.156ZM2954.22 698.499 2992.8 721 2954.22 743.501C2951.76 744.936 2948.61 744.105 2947.17 741.645 2945.74 739.185 2946.57 736.028 2949.03 734.593L2979.97 716.546 2979.97 725.454 2949.03 707.407C2946.57 705.972 2945.74 702.815 2947.17 700.355 2948.61 697.895 2951.76 697.064 2954.22 698.499Z"/><path d="M0.0133519-5.15623 10.3258-5.12953 10.2991 5.18294-0.0133519 5.15623ZM20.6383-5.10283 30.9507-5.07612 30.924 5.23634 20.6116 5.20964ZM41.2632-5.04942 51.5757-5.02271 51.549 5.28975 41.2365 5.26305ZM61.8881-4.99601 72.2006-4.96931 72.1739 5.34316 61.8614 5.31646ZM82.5131-4.9426 92.8255-4.9159 92.7988 5.39657 82.4864 5.36986ZM103.138-4.8892 113.45-4.86249 113.424 5.44997 103.111 5.42327ZM123.763-4.83579 134.075-4.80908 134.049 5.50338 123.736 5.47668ZM144.388-4.78238 154.7-4.75568 154.674 5.55679 144.361 5.53008ZM165.013-4.72897 175.325-4.70227 175.299 5.6102 164.986 5.58349ZM185.638-4.67557 195.95-4.64886 195.923 5.6636 185.611 5.6369ZM206.263-4.62216 216.575-4.59545 216.548 5.71701 206.236 5.69031ZM226.888-4.56875 237.2-4.54205 237.173 5.77042 226.861 5.74371ZM247.512-4.51534 257.825-4.48864 257.798 5.82383 247.486 5.79712ZM268.137-4.46194 278.45-4.43523 278.423 5.87723 268.111 5.85053ZM288.762-4.40853 299.075-4.38182 299.048 5.93064 288.736 5.90394ZM309.387-4.35512 319.7-4.32842 319.673 5.98405 309.361 5.95735ZM330.012-4.30171 340.325-4.27501 340.298 6.03746 329.985 6.01075ZM350.637-4.24831 360.95-4.2216 360.923 6.09086 350.61 6.06416ZM371.262-4.1949 381.574-4.16819 381.548 6.14427 371.235 6.11757ZM391.887-4.14149 402.199-4.11479 402.173 6.19768 391.86 6.17098ZM412.512-4.08808 422.824-4.06138 422.798 6.25109 412.485 6.22438ZM433.137-4.03468 443.449-4.00797 443.423 6.30449 433.11 6.27779ZM453.762-3.98127 464.074-3.95456 464.047 6.3579 453.735 6.3312ZM474.387-3.92786 484.699-3.90116 484.672 6.41131 474.36 6.3846ZM495.012-3.87445 505.324-3.84775 505.297 6.46472 494.985 6.43801ZM515.636-3.82105 525.949-3.79434 525.922 6.51812 515.61 6.49142ZM536.261-3.76764 546.574-3.74093 546.547 6.57153 536.235 6.54483ZM556.886-3.71423 567.199-3.68753 567.172 6.62494 556.86 6.59823ZM577.511-3.66082 587.824-3.63412 587.797 6.67835 577.485 6.65164ZM598.136-3.60742 608.449-3.58071 608.422 6.73175 598.109 6.70505ZM618.761-3.55401 629.074-3.52731 629.047 6.78516 618.734 6.75846ZM639.386-3.5006 649.699-3.4739 649.672 6.83857 639.359 6.81186ZM660.011-3.44719 664.074-3.43667 664.047 6.87579 659.984 6.86527ZM635.78-20.8545 674.294 1.74606 635.664 24.1468C633.2 25.5753 630.045 24.7363 628.616 22.2728 627.188 19.8093 628.027 16.6542 630.49 15.2257L661.474-2.74101 661.451 6.16668 630.561-11.9602C628.105-13.4015 627.282-16.5609 628.723-19.017 630.165-21.473 633.324-22.2957 635.78-20.8545Z" transform="matrix(-1 0 0 1 1649.27 1320)"/><path d="M0.00785323-5.15624 10.3203-5.14054 10.3046 5.17195-0.00785323 5.15624ZM20.6328-5.12483 30.9453-5.10912 30.9296 5.20336 20.6171 5.18766ZM41.2578-5.09342 51.5703-5.07771 51.5546 5.23478 41.2421 5.21907ZM61.8828-5.06201 72.1953-5.0463 72.1796 5.26619 61.8671 5.25048ZM82.5078-5.03059 92.8203-5.01489 92.8045 5.2976 82.4921 5.2819ZM103.133-4.99918 113.445-4.98347 113.43 5.32902 103.117 5.31331ZM123.758-4.96777 134.07-4.95206 134.055 5.36043 123.742 5.34472ZM144.383-4.93635 154.695-4.92065 154.679 5.39184 144.367 5.37613ZM165.008-4.90494 175.32-4.88923 175.304 5.42325 164.992 5.40755ZM185.633-4.87353 195.945-4.85782 195.929 5.45467 185.617 5.43896ZM206.258-4.84211 216.57-4.82641 216.554 5.48608 206.242 5.47037ZM226.883-4.8107 237.195-4.795 237.179 5.51749 226.867 5.50179ZM247.508-4.77929 257.82-4.76358 257.804 5.54891 247.492 5.5332ZM268.133-4.74788 278.445-4.73217 278.429 5.58032 268.117 5.56461ZM288.757-4.71646 299.07-4.70076 299.054 5.61173 288.742 5.59602ZM309.382-4.68505 319.695-4.66934 319.679 5.64314 309.367 5.62744ZM330.007-4.65364 340.32-4.63793 340.304 5.67456 329.992 5.65885ZM350.632-4.62222 360.945-4.60652 360.929 5.70597 350.617 5.69026ZM371.257-4.59081 381.57-4.57511 381.554 5.73738 371.242 5.72168ZM391.882-4.5594 402.195-4.54369 402.179 5.7688 391.867 5.75309ZM412.507-4.52799 422.82-4.51228 422.804 5.80021 412.492 5.7845ZM433.132-4.49657 443.445-4.48087 443.429 5.83162 433.117 5.81592ZM453.757-4.46516 464.07-4.44945 464.054 5.86303 453.742 5.84733ZM474.382-4.43375 484.695-4.41804 484.679 5.89445 474.367 5.87874ZM495.007-4.40233 505.32-4.38663 505.304 5.92586 494.992 5.91015ZM515.632-4.37092 525.945-4.35521 525.929 5.95727 515.617 5.94157ZM536.257-4.33951 546.57-4.3238 546.554 5.98869 536.242 5.97298ZM556.882-4.30809 567.195-4.29239 567.179 6.0201 556.867 6.00439ZM577.507-4.27668 587.82-4.26098 587.804 6.05151 577.492 6.03581ZM598.132-4.24527 608.445-4.22956 608.429 6.08292 598.117 6.06722ZM618.757-4.21386 629.07-4.19815 629.054 6.11434 618.742 6.09863ZM639.382-4.18244 649.695-4.16674 649.679 6.14575 639.367 6.13004ZM660.007-4.15103 670.32-4.13532 670.304 6.17716 659.992 6.16146ZM680.632-4.11962 690.945-4.10391 690.929 6.20858 680.617 6.19287ZM701.257-4.0882 711.57-4.0725 711.554 6.23999 701.242 6.22428ZM721.882-4.05679 732.195-4.04109 732.179 6.2714 721.867 6.2557ZM742.507-4.02538 752.82-4.00967 752.804 6.30282 742.492 6.28711ZM763.132-3.99397 773.445-3.97826 773.429 6.33423 763.117 6.31852ZM783.757-3.96255 794.07-3.94685 794.054 6.36564 783.742 6.34994ZM804.382-3.93114 814.695-3.91543 814.679 6.39705 804.367 6.38135ZM825.007-3.89973 835.32-3.88402 835.304 6.42847 824.992 6.41276ZM845.632-3.86831 855.945-3.85261 855.929 6.45988 845.617 6.44417ZM866.257-3.8369 876.57-3.82119 876.554 6.49129 866.241 6.47559ZM886.882-3.80549 897.194-3.78978 897.179 6.52271 886.866 6.507ZM907.507-3.77408 917.819-3.75837 917.804 6.55412 907.491 6.53841ZM928.132-3.74266 938.444-3.72696 938.429 6.58553 928.116 6.56983ZM915.46-21.1065 953.998 1.45299 915.391 23.895C912.929 25.3261 909.773 24.4904 908.342 22.0284 906.911 19.5665 907.747 16.4105 910.209 14.9793L941.174-3.02041 941.16 5.8873 910.25-12.2067C907.792-13.6453 906.966-16.8038 908.405-19.2614 909.844-21.719 913.002-22.5451 915.46-21.1065Z" transform="matrix(-1 0 0 1 3112.97 1318)"/><path d="M5.15625-4.51344e-06 5.15626 10.3125-5.15624 10.3125-5.15625 4.51344e-06ZM5.15627 20.625 5.15628 30.9375-5.15622 30.9375-5.15623 20.625ZM5.15629 41.25 5.1563 51.5625-5.1562 51.5625-5.15621 41.25ZM5.1563 61.875 5.15631 72.1875-5.15619 72.1875-5.1562 61.875ZM5.15632 82.5 5.15633 92.8125-5.15617 92.8125-5.15618 82.5ZM5.15634 103.125 5.15635 113.438-5.15615 113.438-5.15616 103.125ZM5.15636 123.75 5.15637 134.062-5.15613 134.062-5.15614 123.75ZM5.15638 144.375 5.15639 154.688-5.15611 154.688-5.15612 144.375ZM5.15639 165 5.1564 175.312-5.1561 175.312-5.15611 165ZM5.15641 185.625 5.15642 195.938-5.15608 195.938-5.15609 185.625ZM5.15643 206.25 5.15644 216.562-5.15606 216.562-5.15607 206.25ZM5.15645 226.875 5.15646 237.188-5.15604 237.188-5.15605 226.875ZM5.15647 247.5 5.15648 257.812-5.15602 257.812-5.15603 247.5ZM5.15648 268.125 5.15649 278.438-5.15601 278.438-5.15602 268.125ZM5.1565 288.75 5.15651 299.062-5.15599 299.062-5.156 288.75ZM5.15652 309.375 5.15653 319.688-5.15597 319.688-5.15598 309.375ZM5.15654 330 5.15655 340.312-5.15595 340.312-5.15596 330ZM5.15656 350.625 5.15657 360.938-5.15593 360.938-5.15594 350.625ZM5.15657 371.25 5.15658 381.562-5.15592 381.562-5.15593 371.25ZM5.15659 391.875 5.1566 402.082-5.1559 402.082-5.15591 391.875ZM22.5011 373.743 0.000362195 412.315-22.5004 373.743C-23.9353 371.283-23.1044 368.126-20.6446 366.691-18.1848 365.256-15.0276 366.087-13.5927 368.546L4.45421 399.484-4.45351 399.484 13.5933 368.546C15.0282 366.087 18.1855 365.256 20.6453 366.691 23.1051 368.126 23.9359 371.283 22.5011 373.743Z" transform="matrix(-1 0 0 1 3246 817)"/><path d="M3379 1312.84 3389.31 1312.84 3389.31 1323.16 3379 1323.16ZM3399.62 1312.84 3409.94 1312.84 3409.94 1323.16 3399.62 1323.16ZM3420.25 1312.84 3430.56 1312.84 3430.56 1323.16 3420.25 1323.16ZM3440.88 1312.84 3451.19 1312.84 3451.19 1323.16 3440.88 1323.16ZM3461.5 1312.84 3471.81 1312.84 3471.81 1323.16 3461.5 1323.16ZM3482.12 1312.84 3492.44 1312.84 3492.44 1323.16 3482.12 1323.16ZM3502.75 1312.84 3513.06 1312.84 3513.06 1323.16 3502.75 1323.16ZM3523.38 1312.84 3533.69 1312.84 3533.69 1323.16 3523.38 1323.16ZM3544 1312.84 3554.31 1312.84 3554.31 1323.16 3544 1323.16ZM3564.62 1312.84 3574.94 1312.84 3574.94 1323.16 3564.62 1323.16ZM3585.25 1312.84 3595.56 1312.84 3595.56 1323.16 3585.25 1323.16ZM3605.88 1312.84 3616.19 1312.84 3616.19 1323.16 3605.88 1323.16ZM3626.5 1312.84 3636.81 1312.84 3636.81 1323.16 3626.5 1323.16ZM3647.12 1312.84 3657.44 1312.84 3657.44 1323.16 3647.12 1323.16ZM3667.75 1312.84 3678.06 1312.84 3678.06 1323.16 3667.75 1323.16ZM3654.1 1295.5 3692.68 1318 3654.1 1340.5C3651.64 1341.94 3648.49 1341.1 3647.05 1338.65 3645.62 1336.19 3646.45 1333.03 3648.91 1331.59L3679.84 1313.55 3679.84 1322.45 3648.91 1304.41C3646.45 1302.97 3645.62 1299.82 3647.05 1297.36 3648.49 1294.9 3651.64 1294.06 3654.1 1295.5Z"/></g></svg>