<svg width="1573" height="290" xmlns="http://www.w3.org/2000/svg" xmlns:xlink="http://www.w3.org/1999/xlink" overflow="hidden"><defs><clipPath id="clip0"><rect x="303" y="1684" width="1573" height="290"/></clipPath></defs><g clip-path="url(#clip0)" transform="translate(-303 -1684)"><path d="M308 1737C308 1711.6 328.595 1691 354.001 1691L767.999 1691C793.405 1691 814 1711.6 814 1737L814 1921C814 1946.4 793.405 1967 767.999 1967L354.001 1967C328.595 1967 308 1946.4 308 1921Z" stroke="#000000" stroke-width="10.3125" stroke-miterlimit="8" fill="#FFFFFF" fill-rule="evenodd"/><text font-family="Calibri,Calibri_MSFontService,sans-serif" font-weight="400" font-size="92" transform="matrix(1 0 0 1 444.913 1860)">Node<tspan font-size="61" x="201.094" y="22">1</tspan></text><path d="M0.0181011-5.15622 394.185-3.77248 394.149 6.53996-0.0181011 5.15622ZM389.065-14.103 419.948 1.47425 388.957 16.8343Z" transform="matrix(1 0 0 -1 876 1827.47)"/><path d="M1365 1735.67C1365 1709.89 1385.89 1689 1411.67 1689L1824.33 1689C1850.11 1689 1871 1709.89 1871 1735.67L1871 1922.33C1871 1948.11 1850.11 1969 1824.33 1969L1411.67 1969C1385.89 1969 1365 1948.11 1365 1922.33Z" stroke="#000000" stroke-width="10.3125" stroke-miterlimit="8" fill="#FFFFFF" fill-rule="evenodd"/><text font-family="Calibri,Calibri_MSFontService,sans-serif" font-weight="400" font-size="92" transform="matrix(1 0 0 1 1501.97 1860)">Node<tspan font-size="61" x="201.094" y="22">2</tspan></text><rect x="751.5" y="1762.5" width="125" height="132" stroke="#000000" stroke-width="4.58333" stroke-miterlimit="8"/><text fill="#FFFFFF" font-family="Calibri,Calibri_MSFontService,sans-serif" font-weight="700" font-size="55" transform="matrix(1 0 0 1 789.492 1846)">P<tspan font-size="37" x="29.2188" y="13">1</tspan></text><rect x="1296.5" y="1760.5" width="125" height="132" stroke="#000000" stroke-width="4.58333" stroke-miterlimit="8"/><text fill="#FFFFFF" font-family="Calibri,Calibri_MSFontService,sans-serif" font-weight="700" font-size="55" transform="matrix(1 0 0 1 1334.84 1844)">P<tspan font-size="37" x="29.2188" y="13">2</tspan></text></g></svg>