<svg width="2234" height="1154" xmlns="http://www.w3.org/2000/svg" xmlns:xlink="http://www.w3.org/1999/xlink" overflow="hidden"><defs><clipPath id="clip0"><rect x="159" y="112" width="2234" height="1154"/></clipPath></defs><g clip-path="url(#clip0)" transform="translate(-159 -112)"><path d="M416 582.5C416 535.832 453.608 498 500 498 546.392 498 584 535.832 584 582.5 584 629.168 546.392 667 500 667 453.608 667 416 629.168 416 582.5Z" stroke="#000000" stroke-width="10.3125" stroke-miterlimit="8" fill="#FFFFFF" fill-rule="evenodd"/><text font-family="Calibri,Calibri_MSFontService,sans-serif" font-weight="700" font-size="55" transform="matrix(1 0 0 1 478.905 600)">S<tspan font-size="37" x="25.7813" y="13">F</tspan></text><path d="M1936 576.5C1936 527.071 1976.07 487 2025.5 487 2074.93 487 2115 527.071 2115 576.5 2115 625.929 2074.93 666 2025.5 666 1976.07 666 1936 625.929 1936 576.5Z" stroke="#000000" stroke-width="10.3125" stroke-miterlimit="8" fill="#FFFFFF" fill-rule="evenodd"/><text font-family="Calibri,Calibri_MSFontService,sans-serif" font-weight="700" font-size="55" transform="matrix(1 0 0 1 2004.34 594)">S<tspan font-size="37" x="25.7813" y="13">F</tspan></text><path d="M416 298C416 251.608 453.608 214 500 214 546.392 214 584 251.608 584 298 584 344.392 546.392 382 500 382 453.608 382 416 344.392 416 298Z" stroke="#000000" stroke-width="10.3125" stroke-miterlimit="8" fill="#FFFFFF" fill-rule="evenodd"/><text font-family="Calibri,Calibri_MSFontService,sans-serif" font-weight="700" font-size="55" transform="matrix(1 0 0 1 478.905 316)">S<tspan font-size="37" x="25.7813" y="13">F</tspan></text><path d="M416 866.5C416 819.832 453.608 782 500 782 546.392 782 584 819.832 584 866.5 584 913.168 546.392 951 500 951 453.608 951 416 913.168 416 866.5Z" stroke="#000000" stroke-width="10.3125" stroke-miterlimit="8" fill="#FFFFFF" fill-rule="evenodd"/><text font-family="Calibri,Calibri_MSFontService,sans-serif" font-weight="700" font-size="55" transform="matrix(1 0 0 1 478.905 884)">S<tspan font-size="37" x="25.7813" y="13">F</tspan></text><path d="M1940 297.5C1940 250.832 1977.83 213 2024.5 213 2071.17 213 2109 250.832 2109 297.5 2109 344.168 2071.17 382 2024.5 382 1977.83 382 1940 344.168 1940 297.5Z" stroke="#000000" stroke-width="10.3125" stroke-miterlimit="8" fill="#FFFFFF" fill-rule="evenodd"/><text font-family="Calibri,Calibri_MSFontService,sans-serif" font-weight="700" font-size="55" transform="matrix(1 0 0 1 2003.45 316)">S<tspan font-size="37" x="25.7813" y="13">F</tspan></text><path d="M1940 866C1940 819.608 1977.83 782 2024.5 782 2071.17 782 2109 819.608 2109 866 2109 912.392 2071.17 950 2024.5 950 1977.83 950 1940 912.392 1940 866Z" stroke="#000000" stroke-width="10.3125" stroke-miterlimit="8" fill="#FFFFFF" fill-rule="evenodd"/><text font-family="Calibri,Calibri_MSFontService,sans-serif" font-weight="700" font-size="55" transform="matrix(1 0 0 1 2003.45 884)">S<tspan font-size="37" x="25.7813" y="13">F</tspan></text><path d="M243.5 582.5C243.5 327.897 358.115 121.5 499.5 121.5 640.885 121.5 755.5 327.897 755.5 582.5 755.5 837.103 640.885 1043.5 499.5 1043.5 358.115 1043.5 243.5 837.103 243.5 582.5Z" stroke="#000000" stroke-width="4.58333" stroke-miterlimit="8" stroke-dasharray="18.3333 13.75" fill="none" fill-rule="evenodd"/><path d="M1766.5 579C1766.5 322.464 1882.23 114.5 2025 114.5 2167.77 114.5 2283.5 322.464 2283.5 579 2283.5 835.536 2167.77 1043.5 2025 1043.5 1882.23 1043.5 1766.5 835.536 1766.5 579Z" stroke="#000000" stroke-width="4.58333" stroke-miterlimit="8" stroke-dasharray="18.3333 13.75" fill="none" fill-rule="evenodd"/><text font-family="Calibri,Calibri_MSFontService,sans-serif" font-weight="400" font-size="83" transform="matrix(1 0 0 1 208.747 1192)">set of input flows<tspan font-size="83" x="1501.37" y="0">set of output flows</tspan></text><path d="M1167 582C1167 532.294 1207.07 492 1256.5 492 1305.93 492 1346 532.294 1346 582 1346 631.706 1305.93 672 1256.5 672 1207.07 672 1167 631.706 1167 582Z" stroke="#000000" stroke-width="10.3125" stroke-miterlimit="8" fill="#FFFFFF" fill-rule="evenodd"/><text font-family="Calibri,Calibri_MSFontService,sans-serif" font-weight="700" font-size="55" transform="matrix(1 0 0 1 1231.44 600)">S<tspan font-size="37" x="25.7813" y="13">N</tspan><tspan font-size="83" x="-317.119" y="-70">F</tspan><tspan font-size="55" x="-279.306" y="-50">In</tspan><tspan font-size="83" x="-36.9533" y="219">F</tspan><tspan font-size="55" x="0.859253" y="239">Run</tspan><tspan font-size="83" x="263.137" y="-74">F</tspan><tspan font-size="55" x="300.353" y="-54">Out</tspan></text><path d="M0.139244-3.43468 9.51879-3.05443 18.8911-1.96312 28.1289-0.231037 37.1866 2.14579 45.9094 5.16027 54.2474 8.62376 62.1445 12.6044 69.606 16.9784 76.4702 21.7704 82.6392 26.9653 88.1144 32.4406 92.8605 38.2413 96.65 44.2912 99.5507 50.4974 101.332 57.0046 101.953 63.5625 101.333 70.1035 99.6323 76.5668 96.9358 82.7689 93.2777 88.8213 88.7991 94.6172 83.5642 100.114 77.6546 105.244 71.1194 110.097 64.008 114.493 56.425 118.413 48.4634 121.945 40.0709 124.937 28.0891 127.539 26.6302 120.821 38.3955 118.266 37.9704 118.387 46.0329 115.512 45.7938 115.608 53.5437 112.17 53.3589 112.259 60.7339 108.446 60.505 108.576 67.38 104.326 67.1381 104.49 73.4506 99.8027 73.2465 99.9667 78.934 95.0292 78.6983 95.2543 83.6983 90.0043 83.4675 90.2732 87.7175 84.7732 87.4956 85.0969 90.9331 79.4094 90.7226 79.8169 93.2226 74.0669 93.0507 74.5627 94.6132 68.6252 94.5153 69.1758 95.0778 63.2383 95.0778 63.8867 94.5153 57.9492 94.6219 58.5324 92.9969 52.5949 93.1984 53.143 90.5109 47.393 90.7118 47.7622 87.1493 42.0747 87.402 42.4268 82.902 36.9268 83.1318 37.1807 77.8818 31.9307 78.0983 32.1294 72.1608 27.1294 72.4073 27.3186 65.7823 22.6936 66.0116 22.8405 58.7616 18.5905 58.9527 18.6946 51.2652 14.8196 51.4939 14.9245 43.3689 11.5495 43.5647 11.624 35.0647 8.68646 35.315 8.76243 26.5025 6.44993 26.7415 6.50362 17.7415 4.81612 17.9774 4.85193 8.85243 3.78943 9.11076 3.80968-0.139244 3.43468ZM33.6361 137.244 4.625 127.062 30.177 109.963Z" fill="#C00000" transform="matrix(1.83697e-16 1 1 -1.83697e-16 1195.5 643.5)"/><text font-family="Calibri,Calibri_MSFontService,sans-serif" font-weight="400" font-size="83" transform="matrix(1 0 0 1 1047.95 1194)">activity node</text><path d="M755.5 579.063 1143.68 579.063 1143.68 585.938 755.5 585.938ZM1139.1 568.751 1166.6 582.501 1139.1 596.251Z" fill="#C00000"/><path d="M0.0315-3.43736 397.04 0.200837 396.977 7.07555-0.0315 3.43736ZM392.552-10.1532 419.925 3.8482 392.3 17.3456Z" fill="#C00000" transform="matrix(1 0 0 -1 1346.5 582.348)"/></g></svg>