<svg width="1960" height="875" xmlns="http://www.w3.org/2000/svg" xmlns:xlink="http://www.w3.org/1999/xlink" overflow="hidden"><defs><clipPath id="clip0"><rect x="615" y="268" width="1960" height="875"/></clipPath></defs><g clip-path="url(#clip0)" transform="translate(-615 -268)"><path d="M620 601.168C620 575.67 640.67 555 666.167 555L1080.83 555C1106.33 555 1127 575.67 1127 601.168L1127 785.833C1127 811.33 1106.33 832 1080.83 832L666.167 832C640.67 832 620 811.33 620 785.833Z" stroke="#000000" stroke-width="10.3125" stroke-miterlimit="8" fill="#FFFFFF" fill-rule="evenodd"/><text font-family="Calibri,Calibri_MSFontService,sans-serif" font-weight="400" font-size="92" transform="matrix(1 0 0 1 757.632 725)">Node<tspan font-size="61" x="201.094" y="22">1</tspan></text><path d="M0.0377931-5.15611 175.339-3.87119 175.264 6.44103-0.0377931 5.15611ZM170.259-14.2212 201.082 1.47388 170.032 16.7155Z" transform="matrix(1 0 0 -1 1189 692.474)"/><path d="M1458 417.17C1458 337.547 1522.55 273 1602.17 273L2425.83 273C2505.45 273 2570 337.547 2570 417.17L2570 993.83C2570 1073.45 2505.45 1138 2425.83 1138L1602.17 1138C1522.55 1138 1458 1073.45 1458 993.83Z" stroke="#000000" stroke-width="10.3125" stroke-miterlimit="8" fill="none" fill-rule="evenodd"/><rect x="1063.5" y="626.5" width="126" height="132" stroke="#000000" stroke-width="4.58333" stroke-miterlimit="8"/><text fill="#FFFFFF" font-family="Calibri,Calibri_MSFontService,sans-serif" font-weight="700" font-size="55" transform="matrix(1 0 0 1 1102.21 710)">P<tspan font-size="37" x="29.2188" y="13">1</tspan></text><rect x="1390.5" y="625.5" width="125" height="132" stroke="#000000" stroke-width="4.58333" stroke-miterlimit="8"/><text fill="#FFFFFF" font-family="Calibri,Calibri_MSFontService,sans-serif" font-weight="700" font-size="55" transform="matrix(1 0 0 1 1428.69 709)">P<tspan font-size="37" x="29.2188" y="13">2</tspan></text><path d="M1589 439.5C1589 407.744 1614.52 382 1646 382 1677.48 382 1703 407.744 1703 439.5 1703 471.256 1677.48 497 1646 497 1614.52 497 1589 471.256 1589 439.5Z" fill-rule="evenodd"/><path d="M1755 601.835C1755 575.969 1775.97 555 1801.83 555L2215.17 555C2241.03 555 2262 575.969 2262 601.835L2262 789.166C2262 815.032 2241.03 836 2215.17 836L1801.83 836C1775.97 836 1755 815.032 1755 789.166Z" stroke="#000000" stroke-width="10.3125" stroke-miterlimit="8" fill="#FFFFFF" fill-rule="evenodd"/><text font-family="Calibri,Calibri_MSFontService,sans-serif" font-weight="400" font-size="92" transform="matrix(1 0 0 1 1892.67 727)">Node<tspan font-size="61" x="201.094" y="22">2</tspan></text><rect x="1687.5" y="627.5" width="125" height="132" stroke="#000000" stroke-width="4.58333" stroke-miterlimit="8"/><text fill="#FFFFFF" font-family="Calibri,Calibri_MSFontService,sans-serif" font-weight="700" font-size="55" transform="matrix(1 0 0 1 1725.54 711)">P<tspan font-size="37" x="29.2188" y="13">3</tspan></text><path d="M1515.06 685.844 1660.73 687.591 1660.6 697.903 1514.94 696.156ZM1655.7 677.218 1686.45 693.056 1655.32 708.153Z"/><path d="M1703 433.844 1713.31 433.844 1713.31 444.156 1703 444.156ZM1723.62 433.844 1733.94 433.844 1733.94 444.156 1723.62 444.156ZM1744.25 433.844 1754.56 433.844 1754.56 444.156 1744.25 444.156ZM1764.87 433.844 1775.19 433.844 1775.19 444.156 1764.87 444.156ZM1785.5 433.844 1795.81 433.844 1795.81 444.156 1785.5 444.156ZM1806.12 433.844 1816.44 433.844 1816.44 444.156 1806.12 444.156ZM1826.75 433.844 1837.06 433.844 1837.06 444.156 1826.75 444.156ZM1847.37 433.844 1857.69 433.844 1857.69 444.156 1847.37 444.156ZM1868 433.844 1878.31 433.844 1878.31 444.156 1868 444.156ZM1888.62 433.844 1898.94 433.844 1898.94 444.156 1888.62 444.156ZM1909.25 433.844 1919.56 433.844 1919.56 444.156 1909.25 444.156ZM1929.87 433.844 1940.19 433.844 1940.19 444.156 1929.87 444.156ZM1950.5 433.844 1960.81 433.844 1960.81 444.156 1950.5 444.156ZM1971.12 433.844 1981.44 433.844 1981.44 444.156 1971.12 444.156ZM1991.75 433.844 2002.06 433.844 2002.06 444.156 1991.75 444.156ZM2013.45 443.086 2013.45 453.398 2003.13 453.398 2003.13 443.086ZM2013.45 463.711 2013.45 474.023 2003.13 474.023 2003.13 463.711ZM2013.45 484.336 2013.45 494.648 2003.13 494.648 2003.13 484.336ZM2013.45 504.961 2013.45 515.273 2003.13 515.273 2003.13 504.961ZM2013.45 525.586 2013.45 529.49 2003.13 529.49 2003.13 525.586ZM2023.76 524.333 2008.29 555.271 1992.82 524.333Z"/><path d="M2340 979C2340 949.729 2363.73 926 2393 926 2422.27 926 2446 949.729 2446 979 2446 1008.27 2422.27 1032 2393 1032 2363.73 1032 2340 1008.27 2340 979Z" fill-rule="evenodd"/><path d="M2326 978.5C2326 941.773 2355.77 912 2392.5 912 2429.23 912 2459 941.773 2459 978.5 2459 1015.23 2429.23 1045 2392.5 1045 2355.77 1045 2326 1015.23 2326 978.5Z" stroke="#000000" stroke-width="10.3125" stroke-miterlimit="8" fill="none" fill-rule="evenodd"/><path d="M0-5.15625 10.3125-5.15625 10.3125 5.15625 0 5.15625ZM20.625-5.15625 30.9375-5.15625 30.9375 5.15625 20.625 5.15625ZM41.25-5.15625 51.5625-5.15625 51.5625 5.15625 41.25 5.15625ZM61.875-5.15625 72.1875-5.15625 72.1875 5.15625 61.875 5.15625ZM82.5-5.15625 92.8125-5.15625 92.8125 5.15625 82.5 5.15625ZM103.125-5.15625 113.438-5.15625 113.438 5.15625 103.125 5.15625ZM123.75-5.15625 134.062-5.15625 134.062 5.15625 123.75 5.15625ZM148.143 1.38799 148.143 11.7005 137.831 11.7005 137.831 1.38799ZM148.143 22.013 148.143 32.3255 137.831 32.3255 137.831 22.013ZM148.143 42.638 148.143 52.9505 137.831 52.9505 137.831 42.638ZM148.143 63.263 148.143 73.5755 137.831 73.5755 137.831 63.263ZM148.143 83.888 148.143 94.2005 137.831 94.2005 137.831 83.888ZM148.143 104.513 148.143 114.825 137.831 114.825 137.831 104.513ZM148.143 125.138 148.143 135.45 137.831 135.45 137.831 125.138ZM148.143 145.763 148.143 156.075 137.831 156.075 137.831 145.763ZM148.143 166.388 148.143 176.7 137.831 176.7 137.831 166.388ZM148.143 187.013 148.143 197.325 137.831 197.325 137.831 187.013ZM148.143 207.638 148.143 217.95 137.831 217.95 137.831 207.638ZM148.143 228.263 148.143 238.575 137.831 238.575 137.831 228.263ZM148.143 248.888 148.143 259.201 137.831 259.201 137.831 248.888ZM148.143 269.513 148.143 279.826 137.831 279.826 137.831 269.513ZM148.143 290.138 148.143 291.059 137.831 291.059 137.831 290.138ZM158.456 285.902 142.987 316.84 127.518 285.902Z" transform="matrix(1.83697e-16 1 1 -1.83697e-16 2009 836)"/></g></svg>