<svg width="4086" height="2699" xmlns="http://www.w3.org/2000/svg" xmlns:xlink="http://www.w3.org/1999/xlink" overflow="hidden"><defs><clipPath id="clip0"><rect x="6" y="-71" width="4086" height="2699"/></clipPath></defs><g clip-path="url(#clip0)" transform="translate(-6 71)"><path d="M1377.5 684.335C1377.5 649.632 1405.63 621.5 1440.33 621.5L3068.67 621.5C3103.37 621.5 3131.5 649.632 3131.5 684.335L3131.5 935.666C3131.5 970.368 3103.37 998.5 3068.67 998.5L1440.33 998.5C1405.63 998.5 1377.5 970.368 1377.5 935.666Z" stroke="#FF9900" stroke-width="6.875" stroke-linejoin="round" stroke-miterlimit="10" fill="#D9D9D9" fill-rule="evenodd"/><text font-family="Calibri,Calibri_MSFontService,sans-serif" font-weight="400" font-size="78" transform="matrix(6.12323e-17 1 -1 6.12323e-17 3006.95 685)">Gamma          <tspan font-size="78" x="-38" y="93.0147">Statechart          </tspan><tspan font-size="78" x="-25" y="187">Language</tspan></text><rect x="1442.5" y="687.5" width="574" height="247" stroke="#000000" stroke-width="6.875" stroke-linejoin="round" stroke-miterlimit="10" fill="#A6A6A6"/><text font-family="Calibri,Calibri_MSFontService,sans-serif" font-weight="400" font-size="92" transform="matrix(1 0 0 1 1582.44 787)">Gamma<tspan font-size="92" x="-42.6937" y="110">statechart</tspan></text><rect x="2143.5" y="687.5" width="575" height="247" stroke="#000000" stroke-width="6.875" stroke-linejoin="round" stroke-miterlimit="10" fill="#A6A6A6"/><text font-family="Calibri,Calibri_MSFontService,sans-serif" font-weight="400" font-size="92" transform="matrix(1 0 0 1 2284.01 787)">Gamma <tspan font-size="92" x="-42.6939" y="110">statechart</tspan></text><path d="M1267.5 621.5C1329.36 621.5 1379.5 671.644 1379.5 733.5L1379.5 1669.5C1379.5 1731.36 1329.36 1781.5 1267.5 1781.5L1267.5 1781.5C1205.64 1781.5 1155.5 1731.36 1155.5 1669.5L1155.5 733.5C1155.5 671.644 1205.64 621.5 1267.5 621.5Z" stroke="#000000" stroke-width="6.875" stroke-linejoin="round" stroke-miterlimit="10" fill="#7F7F7F" fill-rule="evenodd"/><text font-family="Calibri,Calibri_MSFontService,sans-serif" font-weight="400" font-size="92" transform="matrix(6.12323e-17 1 -1 6.12323e-17 1235.94 1014)">Validation</text><path d="M1377.5 1209.84C1377.5 1146.69 1428.69 1095.5 1491.84 1095.5L3017.16 1095.5C3080.31 1095.5 3131.5 1146.69 3131.5 1209.84L3131.5 1667.16C3131.5 1730.31 3080.31 1781.5 3017.16 1781.5L1491.84 1781.5C1428.69 1781.5 1377.5 1730.31 1377.5 1667.16Z" stroke="#000000" stroke-width="6.875" stroke-linejoin="round" stroke-miterlimit="10" fill="#D9D9D9" fill-rule="evenodd"/><text font-family="Calibri,Calibri_MSFontService,sans-serif" font-weight="400" font-size="78" transform="matrix(6.12323e-17 1 -1 6.12323e-17 2991.32 1313)">Gamma          <tspan font-size="78" x="-76" y="93.0147">Composition          </tspan><tspan font-size="78" x="-25" y="187">Language</tspan></text><rect x="1442.5" y="1155.5" width="1276" height="137" stroke="#000000" stroke-width="6.875" stroke-linejoin="round" stroke-miterlimit="10" stroke-dasharray="55 20.625" fill="#A6A6A6"/><text font-family="Calibri,Calibri_MSFontService,sans-serif" font-weight="400" font-size="92" transform="matrix(1 0 0 1 1878.51 1254)">GCL model</text><path d="M9.50013 1999.17C9.50013 1947.44 51.4371 1905.5 103.169 1905.5L959.831 1905.5C1011.56 1905.5 1053.5 1947.44 1053.5 1999.17L1053.5 2373.83C1053.5 2425.56 1011.56 2467.5 959.831 2467.5L103.169 2467.5C51.4371 2467.5 9.50013 2425.56 9.50013 2373.83Z" stroke="#000000" stroke-width="6.875" stroke-linejoin="round" stroke-miterlimit="10" fill="#D9D9D9" fill-rule="evenodd"/><text font-family="Calibri,Calibri_MSFontService,sans-serif" font-weight="400" font-size="78" transform="matrix(6.12323e-17 1 -1 6.12323e-17 919.255 1969)">Gamma Trace          <tspan font-size="78" x="67" y="93.0146">Language</tspan></text><rect x="78.4999" y="2057.5" width="665" height="247" stroke="#000000" stroke-width="6.875" stroke-linejoin="round" stroke-miterlimit="10" fill="#A6A6A6"/><text font-family="Calibri,Calibri_MSFontService,sans-serif" font-weight="400" font-size="92" transform="matrix(1 0 0 1 173.765 2156)">Abstract test <tspan font-size="92" x="136.606" y="110">cases</tspan></text><path d="M9.50013 795.504C9.50013 699.404 87.4044 621.5 183.504 621.5L879.496 621.5C975.596 621.5 1053.5 699.404 1053.5 795.504L1053.5 1607.5C1053.5 1703.6 975.596 1781.5 879.496 1781.5L183.504 1781.5C87.4044 1781.5 9.50013 1703.6 9.50013 1607.5Z" stroke="#000000" stroke-width="6.875" stroke-linejoin="round" stroke-miterlimit="10" fill="#F2F2F2" fill-rule="evenodd"/><text font-family="Calibri,Calibri_MSFontService,sans-serif" font-weight="400" font-size="78" transform="matrix(6.12323e-17 1 -1 6.12323e-17 915.728 935)">General<tspan font-size="78" x="248" y="1.51856e-14">-</tspan><tspan font-size="78" x="272" y="1.66552e-14">purpose</tspan><tspan font-size="78" x="-99" y="93.0146">programming language</tspan></text><rect x="78.4999" y="780.5" width="665" height="246" stroke="#000000" stroke-width="6.875" stroke-linejoin="round" stroke-miterlimit="10" stroke-dasharray="55 20.625" fill="#A6A6A6"/><text font-family="Calibri,Calibri_MSFontService,sans-serif" font-weight="400" font-size="92" transform="matrix(1 0 0 1 277.623 879)">System <tspan font-size="92" x="-165.871" y="110">implementation</tspan></text><rect x="77.4998" y="1374.5" width="666" height="247" stroke="#000000" stroke-width="6.875" stroke-linejoin="round" stroke-miterlimit="10" fill="#A6A6A6"/><text font-family="Calibri,Calibri_MSFontService,sans-serif" font-weight="400" font-size="92" transform="matrix(1 0 0 1 234.889 1474)">Test suite <tspan font-size="92" x="-123.681" y="110">implementation</tspan></text><path d="M0-3.4375 217.821-3.4375C219.719-3.4375 221.258-1.89848 221.258 0L221.258 0.544226 217.821-2.89327 394.392-2.89327 394.392 3.98173 217.821 3.98173C215.922 3.98173 214.383 2.4427 214.383 0.544226L214.383 0 217.821 3.4375 0 3.4375ZM389.808-22.3724 435.642 0.544226 389.808 23.4609Z" transform="matrix(-1.83697e-16 -1 -1 1.83697e-16 411.044 2057.14)"/><path d="M2297.16 2428.16 470.5 2428.16C468.602 2428.16 467.063 2426.62 467.063 2424.72L467.063 2344.75 473.938 2344.75 473.938 2424.72 470.5 2421.28 2297.16 2421.28ZM447.583 2349.33 470.5 2303.5 493.417 2349.33Z"/><path d="M407.062 1374.37 407.062 1353.74 413.937 1353.74 413.937 1374.37ZM407.062 1346.87 407.062 1326.24 413.937 1326.24 413.937 1346.87ZM407.062 1319.37 407.062 1298.74 413.937 1298.74 413.937 1319.37ZM407.062 1291.87 407.062 1271.24 413.937 1271.24 413.937 1291.87ZM407.062 1264.37 407.062 1243.74 413.937 1243.74 413.937 1264.37ZM407.062 1236.87 407.062 1216.24 413.937 1216.24 413.937 1236.87ZM407.062 1209.37 407.062 1200.43C407.062 1198.53 408.601 1197 410.5 1197L411.044 1197 407.607 1200.43 407.607 1189.29 414.482 1189.29 414.482 1200.43C414.482 1202.33 412.943 1203.87 411.044 1203.87L410.5 1203.87 413.937 1200.43 413.937 1209.37ZM407.607 1182.41 407.607 1161.79 414.482 1161.79 414.482 1182.41ZM407.607 1154.91 407.607 1134.29 414.482 1134.29 414.482 1154.91ZM407.607 1127.41 407.607 1106.79 414.482 1106.79 414.482 1127.41ZM407.607 1099.91 407.607 1079.29 414.482 1079.29 414.482 1099.91ZM407.607 1072.41 407.607 1067.75 414.482 1067.75 414.482 1072.41ZM388.128 1072.33 411.044 1026.5 433.961 1072.33Z"/><text font-family="Calibri,Calibri_MSFontService,sans-serif" font-weight="400" font-size="78" transform="matrix(6.12323e-17 1 -1 6.12323e-17 481.383 1053)">Execution</text><path d="M0-3.4375 110.585-3.4375C112.483-3.4375 114.023-1.89848 114.023 0L114.023 350.787 110.585 347.35 179.92 347.35 179.92 354.225 110.585 354.225C108.687 354.225 107.148 352.686 107.148 350.787L107.148 0 110.585 3.4375 0 3.4375ZM0 22.9167-22.9167 0 0-22.9167 22.9167 0ZM175.337 327.87 221.17 350.787 175.337 373.704Z" transform="matrix(-1.83697e-16 -1 -1 1.83697e-16 2080.29 1155.67)"/><path d="M2077.06 1155.67 2077.06 1045.08C2077.06 1043.19 2078.6 1041.65 2080.5 1041.65L2431.29 1041.65 2427.85 1045.08 2427.85 975.75 2434.73 975.75 2434.73 1045.08C2434.73 1046.98 2433.19 1048.52 2431.29 1048.52L2080.5 1048.52 2083.94 1045.08 2083.94 1155.67ZM2103.42 1155.67 2080.5 1178.59 2057.58 1155.67 2080.5 1132.75ZM2408.37 980.333 2431.29 934.5 2454.2 980.333Z"/><path d="M1381.5 92.1684C1381.5 43.1982 1421.2 3.49993 1470.17 3.49993L2002.83 3.49993C2051.8 3.49993 2091.5 43.1982 2091.5 92.1684L2091.5 446.832C2091.5 495.802 2051.8 535.5 2002.83 535.5L1470.17 535.5C1421.2 535.5 1381.5 495.802 1381.5 446.832Z" stroke="#000000" stroke-width="6.875" stroke-linejoin="round" stroke-miterlimit="10" fill="#F2F2F2" fill-rule="evenodd"/><text font-family="Calibri,Calibri_MSFontService,sans-serif" font-weight="400" font-size="78" transform="matrix(1 0 0 1 1421.28 103)">Statechart language<tspan font-size="78" x="152.808" y="93">(frontend)</tspan></text><rect x="1442.5" y="237.5" width="581" height="247" stroke="#000000" stroke-width="6.875" stroke-linejoin="round" stroke-miterlimit="10" fill="#D3D5D6"/><text font-family="Calibri,Calibri_MSFontService,sans-serif" font-weight="400" font-size="92" transform="matrix(1 0 0 1 1511.93 337)">Engineering <tspan font-size="92" x="31.4876" y="110">statechart</tspan></text><path d="M2088.5 93.1685C2088.5 44.1982 2128.2 4.49997 2177.17 4.49997L2709.83 4.49997C2758.8 4.49997 2798.5 44.1982 2798.5 93.1685L2798.5 447.832C2798.5 496.802 2758.8 536.5 2709.83 536.5L2177.17 536.5C2128.2 536.5 2088.5 496.802 2088.5 447.832Z" stroke="#000000" stroke-width="6.875" stroke-linejoin="round" stroke-miterlimit="10" fill="#FFFFFF" fill-rule="evenodd"/><text font-family="Calibri,Calibri_MSFontService,sans-serif" font-weight="400" font-size="78" transform="matrix(1 0 0 1 2131.37 102)">Statechart<tspan font-size="78" x="344.071" y="0">language</tspan><tspan font-size="78" x="152.808" y="93">(frontend)</tspan></text><rect x="2143.5" y="235.5" width="575" height="247" stroke="#000000" stroke-width="6.875" stroke-linejoin="round" stroke-miterlimit="10" fill="#E9EAEA"/><text font-family="Calibri,Calibri_MSFontService,sans-serif" font-weight="400" font-size="92" transform="matrix(1 0 0 1 2209.82 334)">Engineering <tspan font-size="92" x="31.5103" y="110">statechart</tspan></text><path d="M0-3.4375 1030.97-3.4375C1032.87-3.4375 1034.41-1.89848 1034.41 0L1034.41 377.388 1027.54 377.388 1027.54 0 1030.97 3.4375 0 3.4375ZM1053.89 372.805 1030.97 418.638 1008.06 372.805Z" transform="matrix(-1 1.22465e-16 1.22465e-16 1 1442.47 361.5)"/><path d="M2436.94 484.5 2436.94 587.27C2436.94 589.169 2435.4 590.708 2433.5 590.708L2433.5 590.708 2436.94 587.27 2436.94 648.791 2430.06 648.791 2430.06 587.27C2430.06 585.372 2431.6 583.833 2433.5 583.833L2433.5 583.833 2430.06 587.27 2430.06 484.5ZM2456.42 644.208 2433.5 690.041 2410.58 644.208Z"/><path d="M1736.94 484.5 1736.94 585.885C1736.94 587.784 1735.4 589.323 1733.5 589.323L1733.5 589.323 1736.94 585.885 1736.94 646.021 1730.06 646.021 1730.06 585.885C1730.06 583.987 1731.6 582.448 1733.5 582.448L1733.5 582.448 1730.06 585.885 1730.06 484.5ZM1756.42 641.438 1733.5 687.271 1710.58 641.438Z"/><path d="M2500.07 2452.63 411.5 2452.63C409.602 2452.63 408.062 2451.09 408.062 2449.19L408.062 2345.75 414.938 2345.75 414.938 2449.19 411.5 2445.76 2500.07 2445.76ZM388.583 2350.33 411.5 2304.5 434.417 2350.33Z"/><path d="M2376.5 1999.67C2376.5 1947.66 2418.66 1905.5 2470.67 1905.5L3226.33 1905.5C3278.34 1905.5 3320.5 1947.66 3320.5 1999.67L3320.5 2376.33C3320.5 2428.34 3278.34 2470.5 3226.33 2470.5L2470.67 2470.5C2418.66 2470.5 2376.5 2428.34 2376.5 2376.33Z" stroke="#000000" stroke-width="6.875" stroke-linejoin="round" stroke-miterlimit="10" fill="#FFFFFF" fill-rule="evenodd"/><rect x="2934.5" y="1982.5" width="290" height="110" stroke="#000000" stroke-width="6.875" stroke-linejoin="round" stroke-miterlimit="10" fill="#FFFFFF"/><text font-family="Calibri,Calibri_MSFontService,sans-serif" font-weight="400" font-size="63" transform="matrix(1 0 0 1 2968.61 2058)">Property</text><rect x="2934.5" y="2158.5" width="290" height="110" stroke="#000000" stroke-width="6.875" stroke-linejoin="round" stroke-miterlimit="10" fill="#FFFFFF"/><text font-family="Calibri,Calibri_MSFontService,sans-serif" font-weight="400" font-size="63" transform="matrix(1 0 0 1 2968.61 2234)">Property</text><path d="M2885.5 2017.67C2885.5 1987.75 2909.75 1963.5 2939.67 1963.5L3216.33 1963.5C3246.25 1963.5 3270.5 1987.75 3270.5 2017.67L3270.5 2234.33C3270.5 2264.25 3246.25 2288.5 3216.33 2288.5L2939.67 2288.5C2909.75 2288.5 2885.5 2264.25 2885.5 2234.33Z" stroke="#000000" stroke-width="6.875" stroke-linejoin="round" stroke-miterlimit="10" stroke-dasharray="6.875 6.875" fill="none" fill-rule="evenodd"/><text font-family="Arial,Arial_MSFontService,sans-serif" font-weight="400" font-size="92" transform="matrix(6.12323e-17 1 -1 6.12323e-17 3045.68 2095)">··</text><rect x="2433.5" y="1966.5" width="385" height="311" stroke="#000000" stroke-width="6.875" stroke-linejoin="round" stroke-miterlimit="10" stroke-dasharray="55 20.625" fill="#FFFFFF"/><text font-family="Calibri,Calibri_MSFontService,sans-serif" font-weight="400" font-size="92" transform="matrix(1 0 0 1 2475.08 2098)">Analysis <tspan font-size="92" x="31.9458" y="110">model</tspan><tspan font-size="78" x="97.8162" y="251">Analysis language</tspan><tspan font-size="78" x="220.718" y="344">(backend)</tspan></text><path d="M1363.5 2000.67C1363.5 1948.66 1405.66 1906.5 1457.67 1906.5L2212.33 1906.5C2264.34 1906.5 2306.5 1948.66 2306.5 2000.67L2306.5 2377.33C2306.5 2429.34 2264.34 2471.5 2212.33 2471.5L1457.67 2471.5C1405.66 2471.5 1363.5 2429.34 1363.5 2377.33Z" stroke="#000000" stroke-width="6.875" stroke-linejoin="round" stroke-miterlimit="10" fill="#F2F2F2" fill-rule="evenodd"/><rect x="1921.5" y="1983.5" width="289" height="110" stroke="#000000" stroke-width="6.875" stroke-linejoin="round" stroke-miterlimit="10" fill="#D3D5D6"/><text font-family="Calibri,Calibri_MSFontService,sans-serif" font-weight="400" font-size="63" transform="matrix(1 0 0 1 1954.77 2059)">Property</text><rect x="1921.5" y="2159.5" width="289" height="110" stroke="#000000" stroke-width="6.875" stroke-linejoin="round" stroke-miterlimit="10" fill="#D3D5D6"/><text font-family="Calibri,Calibri_MSFontService,sans-serif" font-weight="400" font-size="63" transform="matrix(1 0 0 1 1954.77 2235)">Property<tspan font-size="78" x="-383.902" y="116">Analysis language</tspan><tspan font-size="78" x="-261" y="209">(backend)</tspan></text><path d="M1871.5 2018.67C1871.5 1988.75 1895.75 1964.5 1925.67 1964.5L2203.33 1964.5C2233.25 1964.5 2257.5 1988.75 2257.5 2018.67L2257.5 2235.33C2257.5 2265.25 2233.25 2289.5 2203.33 2289.5L1925.67 2289.5C1895.75 2289.5 1871.5 2265.25 1871.5 2235.33Z" stroke="#000000" stroke-width="6.875" stroke-linejoin="round" stroke-miterlimit="10" stroke-dasharray="6.875 6.875" fill="none" fill-rule="evenodd"/><text font-family="Arial,Arial_MSFontService,sans-serif" font-weight="400" font-size="92" transform="matrix(6.12323e-17 1 -1 6.12323e-17 2031.85 2096)">··</text><rect x="1419.5" y="1966.5" width="385" height="312" stroke="#000000" stroke-width="6.875" stroke-linejoin="round" stroke-miterlimit="10" stroke-dasharray="55 20.625" fill="#D3D5D6"/><text font-family="Calibri,Calibri_MSFontService,sans-serif" font-weight="400" font-size="92" transform="matrix(1 0 0 1 1461.25 2098)">Analysis <tspan font-size="92" x="31.9459" y="110">model</tspan></text><path d="M3222.5 1432C3222.5 1386.99 3258.99 1350.5 3304 1350.5L4007 1350.5C4052.01 1350.5 4088.5 1386.99 4088.5 1432L4088.5 1758C4088.5 1803.01 4052.01 1839.5 4007 1839.5L3304 1839.5C3258.99 1839.5 3222.5 1803.01 3222.5 1758Z" stroke="#000000" stroke-width="6.875" stroke-linejoin="round" stroke-miterlimit="10" fill="#D9D9D9" fill-rule="evenodd"/><text font-family="Calibri,Calibri_MSFontService,sans-serif" font-weight="400" font-size="78" transform="matrix(6.12323e-17 1 -1 6.12323e-17 3958.31 1471)">Gamma          <tspan font-size="78" x="-14" y="93.0147">Property          </tspan><tspan font-size="78" x="-26" y="187">Language</tspan></text><rect x="3359.5" y="1457.5" width="289" height="111" stroke="#000000" stroke-width="6.875" stroke-linejoin="round" stroke-miterlimit="10" fill="#A6A6A6"/><text font-family="Calibri,Calibri_MSFontService,sans-serif" font-weight="400" font-size="63" transform="matrix(1 0 0 1 3393.07 1534)">Property</text><rect x="3359.5" y="1633.5" width="289" height="110" stroke="#000000" stroke-width="6.875" stroke-linejoin="round" stroke-miterlimit="10" fill="#A6A6A6"/><text font-family="Calibri,Calibri_MSFontService,sans-serif" font-weight="400" font-size="63" transform="matrix(1 0 0 1 3393.07 1710)">Property</text><path d="M3309.5 1493.5C3309.5 1463.68 3333.68 1439.5 3363.5 1439.5L3641.5 1439.5C3671.32 1439.5 3695.5 1463.68 3695.5 1493.5L3695.5 1709.5C3695.5 1739.32 3671.32 1763.5 3641.5 1763.5L3363.5 1763.5C3333.68 1763.5 3309.5 1739.32 3309.5 1709.5Z" stroke="#000000" stroke-width="6.875" stroke-linejoin="round" stroke-miterlimit="10" stroke-dasharray="6.875 6.875" fill="none" fill-rule="evenodd"/><text font-family="Arial,Arial_MSFontService,sans-serif" font-weight="400" font-size="92" transform="matrix(6.12323e-17 1 -1 6.12323e-17 3470.15 1571)">··</text><rect x="1442.5" y="1370.5" width="1276" height="136" stroke="#000000" stroke-width="6.875" stroke-linejoin="round" stroke-miterlimit="10" stroke-dasharray="55 20.625" fill="#A6A6A6"/><text font-family="Calibri,Calibri_MSFontService,sans-serif" font-style="italic" font-weight="400" font-size="92" transform="matrix(1 0 0 1 1633.53 1469)">„Annotated” <tspan font-style="normal" font-size="92" x="489.958" y="0">GCL model</tspan></text><path d="M2084.01 1292 2084.01 1329.16 2075.99 1329.16 2075.99 1292ZM2102.92 1324.58 2080 1370.41 2057.08 1324.58Z" fill="#7F7F7F"/><rect x="1442.5" y="1585.5" width="1276" height="136" stroke="#000000" stroke-width="6.875" stroke-linejoin="round" stroke-miterlimit="10" stroke-dasharray="55 20.625" fill="#A6A6A6"/><text font-family="Calibri,Calibri_MSFontService,sans-serif" font-style="italic" font-weight="400" font-size="92" transform="matrix(1 0 0 1 1672.78 1684)">„Reduced” <tspan font-style="normal" font-size="92" x="411.469" y="0">GCL model</tspan></text><path d="M2086.01 1509 2086.01 1546.16 2077.99 1546.16 2077.99 1509ZM2104.92 1541.58 2082 1587.41 2059.08 1541.58Z" fill="#7F7F7F"/><path d="M2084.04 1721.5 2084.04 1826.55C2084.04 1828.45 2082.5 1829.99 2080.6 1829.99L1612.5 1829.99 1615.94 1826.55 1615.94 1925.46 1609.06 1925.46 1609.06 1826.55C1609.06 1824.65 1610.6 1823.11 1612.5 1823.11L2080.6 1823.11 2077.16 1826.55 2077.16 1721.5ZM1635.42 1920.87 1612.5 1966.71 1589.58 1920.87Z" fill="#FF9900"/><path d="M0-3.4375 104.67-3.4375C106.569-3.4375 108.108-1.89848 108.108 0L108.108 545.728 104.67 542.291 203.198 542.291 203.198 549.166 104.67 549.166C102.772 549.166 101.233 547.627 101.233 545.728L101.233 0 104.67 3.4375 0 3.4375ZM198.614 522.812 244.448 545.728 198.614 568.645Z" fill="#FF9900" transform="matrix(1.83697e-16 1 1 -1.83697e-16 2080.5 1721.5)"/><path d="M3506.3 1763 3506.3 1863.23C3506.3 1865.45 3504.51 1867.25 3502.29 1867.25L2064 1867.25 2068.01 1863.23 2068.01 1922.22 2059.99 1922.22 2059.99 1863.23C2059.99 1861.02 2061.79 1859.22 2064 1859.22L3502.29 1859.22 3498.28 1863.23 3498.28 1763ZM2086.92 1917.64 2064 1963.47 2041.08 1917.64Z" fill="#7F7F7F"/><path d="M3506.47 1763 3506.47 1862.86C3506.47 1865.07 3504.68 1866.87 3502.46 1866.87L3078 1866.87 3082.01 1862.86 3082.01 1921.46 3073.99 1921.46 3073.99 1862.86C3073.99 1860.64 3075.78 1858.85 3078 1858.85L3502.46 1858.85 3498.45 1862.86 3498.45 1763ZM3100.92 1916.88 3078 1962.71 3055.08 1916.88Z" fill="#7F7F7F"/><path d="M3131 1433.99 3174.09 1433.99C3176.3 1433.99 3178.1 1435.79 3178.1 1438L3178.1 1601.29 3174.09 1597.28 3268.33 1597.28 3268.33 1605.3 3174.09 1605.3C3171.87 1605.3 3170.08 1603.51 3170.08 1601.29L3170.08 1438 3174.09 1442.01 3131 1442.01ZM3263.75 1578.38 3309.58 1601.29 3263.75 1624.21Z" fill="#7F7F7F"/><path d="M3222.5 1004.17C3222.5 969.557 3250.56 941.5 3285.17 941.5L4025.83 941.5C4060.44 941.5 4088.5 969.557 4088.5 1004.17L4088.5 1254.83C4088.5 1289.44 4060.44 1317.5 4025.83 1317.5L3285.17 1317.5C3250.56 1317.5 3222.5 1289.44 3222.5 1254.83Z" stroke="#000000" stroke-width="6.875" stroke-linejoin="round" stroke-miterlimit="10" fill="#D9D9D9" fill-rule="evenodd"/><text font-family="Calibri,Calibri_MSFontService,sans-serif" font-weight="400" font-size="78" transform="matrix(6.12323e-17 1 -1 6.12323e-17 3964.32 1005)">Gamma          <tspan font-size="78" x="-41" y="93.0147">Genomdel          </tspan><tspan font-size="78" x="-26" y="187">Language</tspan></text><rect x="3294.5" y="1007.5" width="415" height="247" stroke="#000000" stroke-width="6.875" stroke-linejoin="round" stroke-miterlimit="10" fill="#A6A6A6"/><text font-family="Calibri,Calibri_MSFontService,sans-serif" font-weight="400" font-size="92" transform="matrix(1 0 0 1 3328.96 1106)">Coverage <tspan font-size="92" x="39.7835" y="110">criteria</tspan></text><path d="M0-4.01042 92.3574-4.01042C94.5723-4.01042 96.3678-2.21489 96.3678 0L96.3678 0.698327 92.3574-3.31209 143.465-3.31209 143.465 4.70874 92.3574 4.70874C90.1425 4.70874 88.347 2.91322 88.347 0.698327L88.347 0 92.3574 4.01042 0 4.01042ZM138.882-22.2183 184.715 0.698327 138.882 23.615Z" fill="#7F7F7F" transform="matrix(1.83697e-16 1 1 -1.83697e-16 3501 1254)"/><path d="M3204.5 589.334C3204.5 554.632 3232.63 526.5 3267.33 526.5L4025.67 526.5C4060.37 526.5 4088.5 554.632 4088.5 589.334L4088.5 840.666C4088.5 875.368 4060.37 903.5 4025.67 903.5L3267.33 903.5C3232.63 903.5 3204.5 875.368 3204.5 840.666Z" stroke="#00B050" stroke-width="6.875" stroke-linejoin="round" stroke-miterlimit="10" fill="#D9D9D9" fill-rule="evenodd"/><text font-family="Calibri,Calibri_MSFontService,sans-serif" font-weight="400" font-size="78" transform="matrix(6.12323e-17 1 -1 6.12323e-17 3964.32 591)">Gamma          <tspan font-size="78" x="5" y="93.0147">Activity          </tspan><tspan font-size="78" x="-26" y="187">Language</tspan></text><rect x="3276.5" y="593.5" width="416" height="247" stroke="#000000" stroke-width="6.875" stroke-linejoin="round" stroke-miterlimit="10" fill="#A6A6A6"/><text font-family="Calibri,Calibri_MSFontService,sans-serif" font-weight="400" font-size="92" transform="matrix(1 0 0 1 3337.35 692)">Gamma <tspan font-size="92" x="11.4583" y="110">activity</tspan></text><path d="M3276.52 716.662 3168.41 716.662 3168.41 567.5 3040.5 567.5" stroke="#00B050" stroke-width="6.875" stroke-linejoin="round" stroke-miterlimit="10" fill="none" fill-rule="evenodd"/><path d="M0-3.4375 447.26-3.4375C448.173-3.4375 449.048-3.07437 449.693-2.4282 450.338-1.78203 450.699-0.905894 450.697 0.00699862L450.543 75.7629 443.668 75.7489 443.822-0.00699862 447.26 3.4375 0 3.4375ZM470.164 71.9463 445.718 116.983 424.356 70.404Z" fill="#00B050" transform="matrix(-1 1.22465e-16 1.22465e-16 1 3040.22 567.5)"/><path d="M3222.5 28.5017C3222.5-17.8911 3260.11-55.4998 3306.5-55.4998L3986.5-55.4998C4032.89-55.4998 4070.5-17.8911 4070.5 28.5017L4070.5 364.499C4070.5 410.891 4032.89 448.5 3986.5 448.5L3306.5 448.5C3260.11 448.5 3222.5 410.891 3222.5 364.499Z" stroke="#000000" stroke-width="6.875" stroke-linejoin="round" stroke-miterlimit="10" fill="#FFFFFF" fill-rule="evenodd"/><text font-family="Calibri,Calibri_MSFontService,sans-serif" font-weight="400" font-size="78" transform="matrix(1 0 0 1 3370.71 26)">Activity language<tspan font-size="78" x="108.235" y="93">(frontend)</tspan></text><rect x="3276.5" y="163.5" width="743" height="239" stroke="#000000" stroke-width="6.875" stroke-linejoin="round" stroke-miterlimit="10" fill="#E9EAEA"/><text font-family="Segoe UI,Segoe UI_MSFontService,sans-serif" font-weight="400" font-size="83" transform="matrix(1 0 0 1 3431.38 264)">Engineering <tspan font-size="83" x="82.7981" y="97">Activity</tspan></text><path d="M3652.15 402.5 3652.15 497.862C3652.15 499.761 3650.61 501.3 3648.71 501.3L3484.5 501.3 3487.94 497.862 3487.94 551.975 3481.06 551.975 3481.06 497.862C3481.06 495.964 3482.6 494.425 3484.5 494.425L3648.71 494.425 3645.28 497.862 3645.28 402.5ZM3507.42 547.391 3484.5 593.225 3461.58 547.391Z" fill="#00B050"/></g></svg>