<svg width="4088" height="2628" xmlns="http://www.w3.org/2000/svg" xmlns:xlink="http://www.w3.org/1999/xlink" overflow="hidden"><defs><clipPath id="clip0"><rect x="6" y="0" width="4088" height="2628"/></clipPath></defs><g clip-path="url(#clip0)" transform="translate(-6 0)"><path d="M1377.5 684.335C1377.5 649.632 1405.63 621.5 1440.33 621.5L3068.67 621.5C3103.37 621.5 3131.5 649.632 3131.5 684.335L3131.5 935.666C3131.5 970.368 3103.37 998.5 3068.67 998.5L1440.33 998.5C1405.63 998.5 1377.5 970.368 1377.5 935.666Z" stroke="#FF0000" stroke-width="6.875" stroke-linejoin="round" stroke-miterlimit="10" fill="#D9D9D9" fill-rule="evenodd"/><text font-family="Calibri,Calibri_MSFontService,sans-serif" font-weight="400" font-size="78" transform="matrix(6.12323e-17 1 -1 6.12323e-17 3006.95 685)">Gamma          <tspan font-size="78" x="-38" y="93.0147">Statechart          </tspan><tspan font-size="78" x="-25" y="187">Language</tspan></text><rect x="1442.5" y="687.5" width="574" height="247" stroke="#FF0000" stroke-width="6.875" stroke-linejoin="round" stroke-miterlimit="10" fill="#A6A6A6"/><text font-family="Calibri,Calibri_MSFontService,sans-serif" font-weight="400" font-size="92" transform="matrix(1 0 0 1 1582.44 787)">Gamma<tspan font-size="92" x="-42.6937" y="110">statechart</tspan></text><rect x="2143.5" y="687.5" width="575" height="247" stroke="#FF0000" stroke-width="6.875" stroke-linejoin="round" stroke-miterlimit="10" fill="#A6A6A6"/><text font-family="Calibri,Calibri_MSFontService,sans-serif" font-weight="400" font-size="92" transform="matrix(1 0 0 1 2284.01 787)">Gamma <tspan font-size="92" x="-42.6939" y="110">statechart</tspan></text><path d="M1267.5 621.5C1329.36 621.5 1379.5 671.644 1379.5 733.5L1379.5 1669.5C1379.5 1731.36 1329.36 1781.5 1267.5 1781.5L1267.5 1781.5C1205.64 1781.5 1155.5 1731.36 1155.5 1669.5L1155.5 733.5C1155.5 671.644 1205.64 621.5 1267.5 621.5Z" stroke="#000000" stroke-width="6.875" stroke-linejoin="round" stroke-miterlimit="10" fill="#7F7F7F" fill-rule="evenodd"/><text font-family="Calibri,Calibri_MSFontService,sans-serif" font-weight="400" font-size="92" transform="matrix(6.12323e-17 1 -1 6.12323e-17 1235.94 1014)">Validation</text><path d="M1377.5 1209.84C1377.5 1146.69 1428.69 1095.5 1491.84 1095.5L3017.16 1095.5C3080.31 1095.5 3131.5 1146.69 3131.5 1209.84L3131.5 1667.16C3131.5 1730.31 3080.31 1781.5 3017.16 1781.5L1491.84 1781.5C1428.69 1781.5 1377.5 1730.31 1377.5 1667.16Z" stroke="#000000" stroke-width="6.875" stroke-linejoin="round" stroke-miterlimit="10" fill="#D9D9D9" fill-rule="evenodd"/><text font-family="Calibri,Calibri_MSFontService,sans-serif" font-weight="400" font-size="78" transform="matrix(6.12323e-17 1 -1 6.12323e-17 2991.32 1313)">Gamma          <tspan font-size="78" x="-76" y="93.0147">Composition          </tspan><tspan font-size="78" x="-25" y="187">Language</tspan></text><rect x="1442.5" y="1155.5" width="1276" height="137" stroke="#000000" stroke-width="6.875" stroke-linejoin="round" stroke-miterlimit="10" stroke-dasharray="55 20.625" fill="#A6A6A6"/><text font-family="Calibri,Calibri_MSFontService,sans-serif" font-weight="400" font-size="92" transform="matrix(1 0 0 1 1878.51 1254)">GCL model</text><path d="M9.50013 1999.17C9.50013 1947.44 51.4371 1905.5 103.169 1905.5L959.831 1905.5C1011.56 1905.5 1053.5 1947.44 1053.5 1999.17L1053.5 2373.83C1053.5 2425.56 1011.56 2467.5 959.831 2467.5L103.169 2467.5C51.4371 2467.5 9.50013 2425.56 9.50013 2373.83Z" stroke="#000000" stroke-width="6.875" stroke-linejoin="round" stroke-miterlimit="10" fill="#D9D9D9" fill-rule="evenodd"/><text font-family="Calibri,Calibri_MSFontService,sans-serif" font-weight="400" font-size="78" transform="matrix(6.12323e-17 1 -1 6.12323e-17 919.255 1969)">Gamma Trace          <tspan font-size="78" x="67" y="93.0146">Language</tspan></text><rect x="78.4999" y="2057.5" width="665" height="247" stroke="#000000" stroke-width="6.875" stroke-linejoin="round" stroke-miterlimit="10" fill="#A6A6A6"/><text font-family="Calibri,Calibri_MSFontService,sans-serif" font-weight="400" font-size="92" transform="matrix(1 0 0 1 173.765 2156)">Abstract test <tspan font-size="92" x="136.606" y="110">cases</tspan></text><path d="M9.50013 795.504C9.50013 699.404 87.4044 621.5 183.504 621.5L879.496 621.5C975.596 621.5 1053.5 699.404 1053.5 795.504L1053.5 1607.5C1053.5 1703.6 975.596 1781.5 879.496 1781.5L183.504 1781.5C87.4044 1781.5 9.50013 1703.6 9.50013 1607.5Z" stroke="#000000" stroke-width="6.875" stroke-linejoin="round" stroke-miterlimit="10" fill="#F2F2F2" fill-rule="evenodd"/><text font-family="Calibri,Calibri_MSFontService,sans-serif" font-weight="400" font-size="78" transform="matrix(6.12323e-17 1 -1 6.12323e-17 915.728 935)">General<tspan font-size="78" x="248" y="1.51856e-14">-</tspan><tspan font-size="78" x="272" y="1.66552e-14">purpose</tspan><tspan font-size="78" x="-99" y="93.0146">programming language</tspan></text><rect x="78.4999" y="780.5" width="665" height="246" stroke="#000000" stroke-width="6.875" stroke-linejoin="round" stroke-miterlimit="10" stroke-dasharray="55 20.625" fill="#A6A6A6"/><text font-family="Calibri,Calibri_MSFontService,sans-serif" font-weight="400" font-size="92" transform="matrix(1 0 0 1 277.623 879)">System <tspan font-size="92" x="-165.871" y="110">implementation</tspan></text><rect x="77.4998" y="1374.5" width="666" height="247" stroke="#000000" stroke-width="6.875" stroke-linejoin="round" stroke-miterlimit="10" fill="#A6A6A6"/><text font-family="Calibri,Calibri_MSFontService,sans-serif" font-weight="400" font-size="92" transform="matrix(1 0 0 1 234.889 1474)">Test suite <tspan font-size="92" x="-123.681" y="110">implementation</tspan></text><path d="M0-3.4375 217.821-3.4375C219.719-3.4375 221.258-1.89848 221.258 0L221.258 0.544226 217.821-2.89327 394.392-2.89327 394.392 3.98173 217.821 3.98173C215.922 3.98173 214.383 2.4427 214.383 0.544226L214.383 0 217.821 3.4375 0 3.4375ZM389.808-22.3724 435.642 0.544226 389.808 23.4609Z" transform="matrix(-1.83697e-16 -1 -1 1.83697e-16 411.044 2057.14)"/><path d="M2297.16 2428.16 470.5 2428.16C468.602 2428.16 467.063 2426.62 467.063 2424.72L467.063 2344.75 473.938 2344.75 473.938 2424.72 470.5 2421.28 2297.16 2421.28ZM447.583 2349.33 470.5 2303.5 493.417 2349.33Z"/><path d="M407.062 1374.37 407.062 1353.74 413.937 1353.74 413.937 1374.37ZM407.062 1346.87 407.062 1326.24 413.937 1326.24 413.937 1346.87ZM407.062 1319.37 407.062 1298.74 413.937 1298.74 413.937 1319.37ZM407.062 1291.87 407.062 1271.24 413.937 1271.24 413.937 1291.87ZM407.062 1264.37 407.062 1243.74 413.937 1243.74 413.937 1264.37ZM407.062 1236.87 407.062 1216.24 413.937 1216.24 413.937 1236.87ZM407.062 1209.37 407.062 1200.43C407.062 1198.53 408.601 1197 410.5 1197L411.044 1197 407.607 1200.43 407.607 1189.29 414.482 1189.29 414.482 1200.43C414.482 1202.33 412.943 1203.87 411.044 1203.87L410.5 1203.87 413.937 1200.43 413.937 1209.37ZM407.607 1182.41 407.607 1161.79 414.482 1161.79 414.482 1182.41ZM407.607 1154.91 407.607 1134.29 414.482 1134.29 414.482 1154.91ZM407.607 1127.41 407.607 1106.79 414.482 1106.79 414.482 1127.41ZM407.607 1099.91 407.607 1079.29 414.482 1079.29 414.482 1099.91ZM407.607 1072.41 407.607 1067.75 414.482 1067.75 414.482 1072.41ZM388.128 1072.33 411.044 1026.5 433.961 1072.33Z"/><text font-family="Calibri,Calibri_MSFontService,sans-serif" font-weight="400" font-size="78" transform="matrix(6.12323e-17 1 -1 6.12323e-17 481.383 1053)">Execution</text><path d="M0-3.4375 110.585-3.4375C112.483-3.4375 114.023-1.89848 114.023 0L114.023 350.787 110.585 347.35 179.92 347.35 179.92 354.225 110.585 354.225C108.687 354.225 107.148 352.686 107.148 350.787L107.148 0 110.585 3.4375 0 3.4375ZM0 22.9167-22.9167 0 0-22.9167 22.9167 0ZM175.337 327.87 221.17 350.787 175.337 373.704Z" transform="matrix(-1.83697e-16 -1 -1 1.83697e-16 2080.29 1155.67)"/><path d="M2077.06 1155.67 2077.06 1045.08C2077.06 1043.19 2078.6 1041.65 2080.5 1041.65L2431.29 1041.65 2427.85 1045.08 2427.85 975.75 2434.73 975.75 2434.73 1045.08C2434.73 1046.98 2433.19 1048.52 2431.29 1048.52L2080.5 1048.52 2083.94 1045.08 2083.94 1155.67ZM2103.42 1155.67 2080.5 1178.59 2057.58 1155.67 2080.5 1132.75ZM2408.37 980.333 2431.29 934.5 2454.2 980.333Z"/><path d="M1381.5 92.1684C1381.5 43.1982 1421.2 3.49993 1470.17 3.49993L2002.83 3.49993C2051.8 3.49993 2091.5 43.1982 2091.5 92.1684L2091.5 446.832C2091.5 495.802 2051.8 535.5 2002.83 535.5L1470.17 535.5C1421.2 535.5 1381.5 495.802 1381.5 446.832Z" stroke="#FF0000" stroke-width="6.875" stroke-linejoin="round" stroke-miterlimit="10" fill="#F2F2F2" fill-rule="evenodd"/><text font-family="Calibri,Calibri_MSFontService,sans-serif" font-weight="400" font-size="78" transform="matrix(1 0 0 1 1421.28 103)">Statechart language<tspan font-size="78" x="152.808" y="93">(frontend)</tspan></text><rect x="1442.5" y="237.5" width="581" height="247" stroke="#000000" stroke-width="6.875" stroke-linejoin="round" stroke-miterlimit="10" fill="#D3D5D6"/><text font-family="Calibri,Calibri_MSFontService,sans-serif" font-weight="400" font-size="92" transform="matrix(1 0 0 1 1511.93 337)">Engineering <tspan font-size="92" x="31.4876" y="110">statechart</tspan></text><path d="M2088.5 93.1685C2088.5 44.1982 2128.2 4.49997 2177.17 4.49997L2709.83 4.49997C2758.8 4.49997 2798.5 44.1982 2798.5 93.1685L2798.5 447.832C2798.5 496.802 2758.8 536.5 2709.83 536.5L2177.17 536.5C2128.2 536.5 2088.5 496.802 2088.5 447.832Z" stroke="#FF0000" stroke-width="6.875" stroke-linejoin="round" stroke-miterlimit="10" fill="#FFFFFF" fill-rule="evenodd"/><text font-family="Calibri,Calibri_MSFontService,sans-serif" font-weight="400" font-size="78" transform="matrix(1 0 0 1 2131.37 102)">Statechart<tspan font-size="78" x="344.071" y="0">language</tspan><tspan font-size="78" x="152.808" y="93">(frontend)</tspan></text><rect x="2143.5" y="235.5" width="575" height="247" stroke="#000000" stroke-width="6.875" stroke-linejoin="round" stroke-miterlimit="10" fill="#E9EAEA"/><text font-family="Calibri,Calibri_MSFontService,sans-serif" font-weight="400" font-size="92" transform="matrix(1 0 0 1 2209.82 334)">Engineering <tspan font-size="92" x="31.5103" y="110">statechart</tspan></text><path d="M0-3.4375 1030.97-3.4375C1032.87-3.4375 1034.41-1.89848 1034.41 0L1034.41 377.388 1027.54 377.388 1027.54 0 1030.97 3.4375 0 3.4375ZM1053.89 372.805 1030.97 418.638 1008.06 372.805Z" transform="matrix(-1 1.22465e-16 1.22465e-16 1 1442.47 361.5)"/><path d="M2436.94 484.5 2436.94 587.27C2436.94 589.169 2435.4 590.708 2433.5 590.708L2433.5 590.708 2436.94 587.27 2436.94 648.791 2430.06 648.791 2430.06 587.27C2430.06 585.372 2431.6 583.833 2433.5 583.833L2433.5 583.833 2430.06 587.27 2430.06 484.5ZM2456.42 644.208 2433.5 690.041 2410.58 644.208Z"/><path d="M1736.94 484.5 1736.94 585.885C1736.94 587.784 1735.4 589.323 1733.5 589.323L1733.5 589.323 1736.94 585.885 1736.94 646.021 1730.06 646.021 1730.06 585.885C1730.06 583.987 1731.6 582.448 1733.5 582.448L1733.5 582.448 1730.06 585.885 1730.06 484.5ZM1756.42 641.438 1733.5 687.271 1710.58 641.438Z"/><path d="M2500.07 2452.63 411.5 2452.63C409.602 2452.63 408.062 2451.09 408.062 2449.19L408.062 2345.75 414.938 2345.75 414.938 2449.19 411.5 2445.76 2500.07 2445.76ZM388.583 2350.33 411.5 2304.5 434.417 2350.33Z"/><path d="M2376.5 1999.67C2376.5 1947.66 2418.66 1905.5 2470.67 1905.5L3226.33 1905.5C3278.34 1905.5 3320.5 1947.66 3320.5 1999.67L3320.5 2376.33C3320.5 2428.34 3278.34 2470.5 3226.33 2470.5L2470.67 2470.5C2418.66 2470.5 2376.5 2428.34 2376.5 2376.33Z" stroke="#000000" stroke-width="6.875" stroke-linejoin="round" stroke-miterlimit="10" fill="#FFFFFF" fill-rule="evenodd"/><rect x="2934.5" y="1982.5" width="290" height="110" stroke="#000000" stroke-width="6.875" stroke-linejoin="round" stroke-miterlimit="10" fill="#FFFFFF"/><text font-family="Calibri,Calibri_MSFontService,sans-serif" font-weight="400" font-size="63" transform="matrix(1 0 0 1 2968.61 2058)">Property</text><rect x="2934.5" y="2158.5" width="290" height="110" stroke="#000000" stroke-width="6.875" stroke-linejoin="round" stroke-miterlimit="10" fill="#FFFFFF"/><text font-family="Calibri,Calibri_MSFontService,sans-serif" font-weight="400" font-size="63" transform="matrix(1 0 0 1 2968.61 2234)">Property</text><path d="M2885.5 2017.67C2885.5 1987.75 2909.75 1963.5 2939.67 1963.5L3216.33 1963.5C3246.25 1963.5 3270.5 1987.75 3270.5 2017.67L3270.5 2234.33C3270.5 2264.25 3246.25 2288.5 3216.33 2288.5L2939.67 2288.5C2909.75 2288.5 2885.5 2264.25 2885.5 2234.33Z" stroke="#000000" stroke-width="6.875" stroke-linejoin="round" stroke-miterlimit="10" stroke-dasharray="6.875 6.875" fill="none" fill-rule="evenodd"/><text font-family="Arial,Arial_MSFontService,sans-serif" font-weight="400" font-size="92" transform="matrix(6.12323e-17 1 -1 6.12323e-17 3045.68 2095)">··</text><rect x="2433.5" y="1966.5" width="385" height="311" stroke="#000000" stroke-width="6.875" stroke-linejoin="round" stroke-miterlimit="10" stroke-dasharray="55 20.625" fill="#FFFFFF"/><text font-family="Calibri,Calibri_MSFontService,sans-serif" font-weight="400" font-size="92" transform="matrix(1 0 0 1 2475.08 2098)">Analysis <tspan font-size="92" x="31.9458" y="110">model</tspan><tspan font-size="78" x="97.8162" y="251">Analysis language</tspan><tspan font-size="78" x="220.718" y="344">(backend)</tspan></text><path d="M1363.5 2000.67C1363.5 1948.66 1405.66 1906.5 1457.67 1906.5L2212.33 1906.5C2264.34 1906.5 2306.5 1948.66 2306.5 2000.67L2306.5 2377.33C2306.5 2429.34 2264.34 2471.5 2212.33 2471.5L1457.67 2471.5C1405.66 2471.5 1363.5 2429.34 1363.5 2377.33Z" stroke="#000000" stroke-width="6.875" stroke-linejoin="round" stroke-miterlimit="10" fill="#F2F2F2" fill-rule="evenodd"/><rect x="1921.5" y="1983.5" width="289" height="110" stroke="#000000" stroke-width="6.875" stroke-linejoin="round" stroke-miterlimit="10" fill="#D3D5D6"/><text font-family="Calibri,Calibri_MSFontService,sans-serif" font-weight="400" font-size="63" transform="matrix(1 0 0 1 1954.77 2059)">Property</text><rect x="1921.5" y="2159.5" width="289" height="110" stroke="#000000" stroke-width="6.875" stroke-linejoin="round" stroke-miterlimit="10" fill="#D3D5D6"/><text font-family="Calibri,Calibri_MSFontService,sans-serif" font-weight="400" font-size="63" transform="matrix(1 0 0 1 1954.77 2235)">Property<tspan font-size="78" x="-383.902" y="116">Analysis language</tspan><tspan font-size="78" x="-261" y="209">(backend)</tspan></text><path d="M1871.5 2018.67C1871.5 1988.75 1895.75 1964.5 1925.67 1964.5L2203.33 1964.5C2233.25 1964.5 2257.5 1988.75 2257.5 2018.67L2257.5 2235.33C2257.5 2265.25 2233.25 2289.5 2203.33 2289.5L1925.67 2289.5C1895.75 2289.5 1871.5 2265.25 1871.5 2235.33Z" stroke="#000000" stroke-width="6.875" stroke-linejoin="round" stroke-miterlimit="10" stroke-dasharray="6.875 6.875" fill="none" fill-rule="evenodd"/><text font-family="Arial,Arial_MSFontService,sans-serif" font-weight="400" font-size="92" transform="matrix(6.12323e-17 1 -1 6.12323e-17 2031.85 2096)">··</text><rect x="1419.5" y="1966.5" width="385" height="312" stroke="#000000" stroke-width="6.875" stroke-linejoin="round" stroke-miterlimit="10" stroke-dasharray="55 20.625" fill="#D3D5D6"/><text font-family="Calibri,Calibri_MSFontService,sans-serif" font-weight="400" font-size="92" transform="matrix(1 0 0 1 1461.25 2098)">Analysis <tspan font-size="92" x="31.9459" y="110">model</tspan></text><path d="M3223.5 1272C3223.5 1226.99 3259.99 1190.5 3305 1190.5L4008 1190.5C4053.01 1190.5 4089.5 1226.99 4089.5 1272L4089.5 1598C4089.5 1643.01 4053.01 1679.5 4008 1679.5L3305 1679.5C3259.99 1679.5 3223.5 1643.01 3223.5 1598Z" stroke="#000000" stroke-width="6.875" stroke-linejoin="round" stroke-miterlimit="10" fill="#D9D9D9" fill-rule="evenodd"/><text font-family="Calibri,Calibri_MSFontService,sans-serif" font-weight="400" font-size="78" transform="matrix(6.12323e-17 1 -1 6.12323e-17 3959.41 1310)">Gamma          <tspan font-size="78" x="-14" y="93.0147">Property          </tspan><tspan font-size="78" x="-26" y="187">Language</tspan></text><rect x="3360.5" y="1297.5" width="289" height="110" stroke="#000000" stroke-width="6.875" stroke-linejoin="round" stroke-miterlimit="10" fill="#A6A6A6"/><text font-family="Calibri,Calibri_MSFontService,sans-serif" font-weight="400" font-size="63" transform="matrix(1 0 0 1 3394.17 1373)">Property</text><rect x="3360.5" y="1473.5" width="289" height="110" stroke="#000000" stroke-width="6.875" stroke-linejoin="round" stroke-miterlimit="10" fill="#A6A6A6"/><text font-family="Calibri,Calibri_MSFontService,sans-serif" font-weight="400" font-size="63" transform="matrix(1 0 0 1 3394.17 1549)">Property</text><path d="M3310.5 1332.67C3310.5 1302.75 3334.75 1278.5 3364.67 1278.5L3642.33 1278.5C3672.25 1278.5 3696.5 1302.75 3696.5 1332.67L3696.5 1549.33C3696.5 1579.25 3672.25 1603.5 3642.33 1603.5L3364.67 1603.5C3334.75 1603.5 3310.5 1579.25 3310.5 1549.33Z" stroke="#000000" stroke-width="6.875" stroke-linejoin="round" stroke-miterlimit="10" stroke-dasharray="6.875 6.875" fill="none" fill-rule="evenodd"/><text font-family="Arial,Arial_MSFontService,sans-serif" font-weight="400" font-size="92" transform="matrix(6.12323e-17 1 -1 6.12323e-17 3471.24 1410)">··</text><rect x="1442.5" y="1370.5" width="1276" height="136" stroke="#000000" stroke-width="6.875" stroke-linejoin="round" stroke-miterlimit="10" stroke-dasharray="55 20.625" fill="#A6A6A6"/><text font-family="Calibri,Calibri_MSFontService,sans-serif" font-style="italic" font-weight="400" font-size="92" transform="matrix(1 0 0 1 1633.53 1469)">„Annotated” <tspan font-style="normal" font-size="92" x="489.958" y="0">GCL model</tspan></text><path d="M2084.01 1292 2084.01 1329.16 2075.99 1329.16 2075.99 1292ZM2102.92 1324.58 2080 1370.41 2057.08 1324.58Z" fill="#7F7F7F"/><rect x="1442.5" y="1585.5" width="1276" height="136" stroke="#000000" stroke-width="6.875" stroke-linejoin="round" stroke-miterlimit="10" stroke-dasharray="55 20.625" fill="#A6A6A6"/><text font-family="Calibri,Calibri_MSFontService,sans-serif" font-style="italic" font-weight="400" font-size="92" transform="matrix(1 0 0 1 1672.78 1684)">„Reduced” <tspan font-style="normal" font-size="92" x="411.469" y="0">GCL model</tspan></text><path d="M2086.01 1509 2086.01 1546.16 2077.99 1546.16 2077.99 1509ZM2104.92 1541.58 2082 1587.41 2059.08 1541.58Z" fill="#7F7F7F"/><path d="M2084.04 1721.5 2084.04 1826.55C2084.04 1828.45 2082.5 1829.99 2080.6 1829.99L1612.5 1829.99 1615.94 1826.55 1615.94 1925.46 1609.06 1925.46 1609.06 1826.55C1609.06 1824.65 1610.6 1823.11 1612.5 1823.11L2080.6 1823.11 2077.16 1826.55 2077.16 1721.5ZM1635.42 1920.87 1612.5 1966.71 1589.58 1920.87Z"/><path d="M0-3.4375 104.67-3.4375C106.569-3.4375 108.108-1.89848 108.108 0L108.108 545.728 104.67 542.291 203.198 542.291 203.198 549.166 104.67 549.166C102.772 549.166 101.233 547.627 101.233 545.728L101.233 0 104.67 3.4375 0 3.4375ZM198.614 522.812 244.448 545.728 198.614 568.645Z" transform="matrix(1.83697e-16 1 1 -1.83697e-16 2080.5 1721.5)"/><path d="M3507.4 1603 3507.4 1865.22C3507.4 1867.43 3505.61 1869.23 3503.39 1869.23L2064 1869.23 2068.01 1865.22 2068.01 1922.88 2059.99 1922.88 2059.99 1865.22C2059.99 1863 2061.78 1861.2 2064 1861.2L3503.39 1861.2 3499.38 1865.22 3499.38 1603ZM2086.92 1918.3 2064 1964.13 2041.08 1918.3Z" fill="#7F7F7F"/><path d="M3507.57 1603 3507.57 1864.84C3507.57 1867.05 3505.77 1868.85 3503.56 1868.85L3078 1868.85 3082.01 1864.84 3082.01 1922.12 3073.99 1922.12 3073.99 1864.84C3073.99 1862.62 3075.78 1860.83 3078 1860.83L3503.56 1860.83 3499.55 1864.84 3499.55 1603ZM3100.92 1917.54 3078 1963.37 3055.08 1917.54Z" fill="#7F7F7F"/><path d="M0-4.01042 94.508-4.01042C96.7229-4.01042 98.5184-2.21489 98.5184 0L98.5184 0.000360892 94.508-4.01006 147.766-4.01006 147.766 4.01078 94.508 4.01078C92.2931 4.01078 90.4976 2.21525 90.4976 0.000360892L90.4976 0 94.508 4.01042 0 4.01042ZM143.183-22.9163 189.016 0.000360892 143.183 22.917Z" fill="#7F7F7F" transform="matrix(1 0 0 -1 3131 1431)"/><path d="M3223.5 684.335C3223.5 649.632 3251.63 621.5 3286.33 621.5L4027.67 621.5C4062.37 621.5 4090.5 649.632 4090.5 684.335L4090.5 935.665C4090.5 970.368 4062.37 998.5 4027.67 998.5L3286.33 998.5C3251.63 998.5 3223.5 970.368 3223.5 935.665Z" stroke="#000000" stroke-width="6.875" stroke-linejoin="round" stroke-miterlimit="10" fill="#D9D9D9" fill-rule="evenodd"/><text font-family="Calibri,Calibri_MSFontService,sans-serif" font-weight="400" font-size="78" transform="matrix(6.12323e-17 1 -1 6.12323e-17 3966.11 685)">Gamma          <tspan font-size="78" x="-40" y="93.0147">Genomdel          </tspan><tspan font-size="78" x="-25" y="187">Language</tspan></text><rect x="3295.5" y="688.5" width="416" height="247" stroke="#000000" stroke-width="6.875" stroke-linejoin="round" stroke-miterlimit="10" fill="#A6A6A6"/><text font-family="Calibri,Calibri_MSFontService,sans-serif" font-weight="400" font-size="92" transform="matrix(1 0 0 1 3330.75 787)">Coverage <tspan font-size="92" x="39.7835" y="110">criteria</tspan></text><path d="M0-4.01042 171.664-4.01042C173.879-4.01042 175.674-2.21489 175.674 0L175.674 0.000360892 171.664-4.01006 302.078-4.01006 302.078 4.01078 171.664 4.01078C169.449 4.01078 167.653 2.21525 167.653 0.000360892L167.653 0 171.664 4.01042 0 4.01042ZM297.494-22.9163 343.328 0.000360892 297.494 22.917Z" fill="#7F7F7F" transform="matrix(1.83697e-16 1 1 -1.83697e-16 3503 935)"/><path d="M2762.5 1047C2762.5 1027.95 2777.95 1012.5 2797 1012.5 2816.05 1012.5 2831.5 1027.95 2831.5 1047 2831.5 1066.05 2816.05 1081.5 2797 1081.5 2777.95 1081.5 2762.5 1066.05 2762.5 1047Z" stroke="#000000" stroke-width="6.875" stroke-linejoin="round" stroke-miterlimit="10" fill="#FFFFFF" fill-rule="evenodd"/><text font-family="Calibri,Calibri_MSFontService,sans-serif" font-weight="700" font-size="66" transform="matrix(1 0 0 1 2779.33 1068)">2</text><path d="M2762.5 572C2762.5 552.946 2777.95 537.5 2797 537.5 2816.05 537.5 2831.5 552.946 2831.5 572 2831.5 591.054 2816.05 606.5 2797 606.5 2777.95 606.5 2762.5 591.054 2762.5 572Z" stroke="#000000" stroke-width="6.875" stroke-linejoin="round" stroke-miterlimit="10" fill="#FFFFFF" fill-rule="evenodd"/><text font-family="Calibri,Calibri_MSFontService,sans-serif" font-weight="700" font-size="66" transform="matrix(1 0 0 1 2779.33 594)">1</text><path d="M3005.5 1183.5C3005.5 1164.72 3020.95 1149.5 3040 1149.5 3059.05 1149.5 3074.5 1164.72 3074.5 1183.5 3074.5 1202.28 3059.05 1217.5 3040 1217.5 3020.95 1217.5 3005.5 1202.28 3005.5 1183.5Z" stroke="#000000" stroke-width="6.875" stroke-linejoin="round" stroke-miterlimit="10" fill="#FFFFFF" fill-rule="evenodd"/><text font-family="Calibri,Calibri_MSFontService,sans-serif" font-weight="700" font-size="66" transform="matrix(1 0 0 1 3022.93 1205)">3</text><path d="M1174.5 2373C1174.5 2353.95 1189.95 2338.5 1209 2338.5 1228.05 2338.5 1243.5 2353.95 1243.5 2373 1243.5 2392.05 1228.05 2407.5 1209 2407.5 1189.95 2407.5 1174.5 2392.05 1174.5 2373Z" stroke="#000000" stroke-width="6.875" stroke-linejoin="round" stroke-miterlimit="10" fill="#FFFFFF" fill-rule="evenodd"/><text font-family="Calibri,Calibri_MSFontService,sans-serif" font-weight="700" font-size="66" transform="matrix(1 0 0 1 1191.78 2395)">4</text><path d="M478.5 1843C478.5 1823.95 493.722 1808.5 512.5 1808.5 531.278 1808.5 546.5 1823.95 546.5 1843 546.5 1862.05 531.278 1877.5 512.5 1877.5 493.722 1877.5 478.5 1862.05 478.5 1843Z" stroke="#000000" stroke-width="6.875" stroke-linejoin="round" stroke-miterlimit="10" fill="#FFFFFF" fill-rule="evenodd"/><text font-family="Calibri,Calibri_MSFontService,sans-serif" font-weight="700" font-size="66" transform="matrix(1 0 0 1 495.158 1865)">5</text></g></svg>