<svg width="1547" height="1511" xmlns="http://www.w3.org/2000/svg" xmlns:xlink="http://www.w3.org/1999/xlink" overflow="hidden"><defs><clipPath id="clip0"><rect x="1340" y="439" width="1547" height="1511"/></clipPath></defs><g clip-path="url(#clip0)" transform="translate(-1340 -439)"><rect x="1345" y="444" width="645" height="268" stroke="#000000" stroke-width="10.3125" stroke-miterlimit="8" fill="#FFFFFF"/><text font-family="Calibri,Calibri_MSFontService,sans-serif" font-weight="400" font-size="92" transform="matrix(1 0 0 1 1408.95 609)">Formal model</text><rect x="2237" y="444" width="645" height="268" stroke="#000000" stroke-width="10.3125" stroke-miterlimit="8" fill="#FFFFFF"/><text font-family="Calibri,Calibri_MSFontService,sans-serif" font-weight="400" font-size="92" transform="matrix(1 0 0 1 2429.57 554)">Formal <tspan font-size="92" x="-104.111" y="110">requirement</tspan></text><path d="M1753 1011.83C1753 980.998 1778 956 1808.83 956L2401.17 956C2432 956 2457 980.998 2457 1011.83L2457 1235.17C2457 1266 2432 1291 2401.17 1291L1808.83 1291C1778 1291 1753 1266 1753 1235.17Z" stroke="#000000" stroke-width="10.3125" stroke-miterlimit="8" fill="#FFFFFF" fill-rule="evenodd"/><text font-family="Calibri,Calibri_MSFontService,sans-serif" font-weight="400" font-size="92" transform="matrix(1 0 0 1 1824.34 1155)">Model Checker</text><path d="M1463 1739C1463 1626.33 1554.56 1535 1667.5 1535 1780.44 1535 1872 1626.33 1872 1739 1872 1851.67 1780.44 1943 1667.5 1943 1554.56 1943 1463 1851.67 1463 1739Z" stroke="#000000" stroke-width="13.75" stroke-miterlimit="8" fill="none" fill-rule="evenodd"/><text font-family="Calibri,Calibri_MSFontService,sans-serif" font-weight="700" font-size="92" transform="matrix(1 0 0 1 1563.57 1770)">Proof</text><path d="M2340 1739C2340 1626.33 2431.33 1535 2544 1535 2656.67 1535 2748 1626.33 2748 1739 2748 1851.67 2656.67 1943 2544 1943 2431.33 1943 2340 1851.67 2340 1739Z" stroke="#000000" stroke-width="13.75" stroke-miterlimit="8" fill="none" fill-rule="evenodd"/><path d="M0-5.15625 127.097-5.15625 127.097 233.094 121.94 227.938 233.672 227.938 233.672 238.25 116.784 238.25 116.784 0 121.94 5.15625 0 5.15625ZM205.332 210.593 243.905 233.094 205.332 255.595C202.872 257.03 199.715 256.199 198.28 253.739 196.845 251.279 197.676 248.122 200.136 246.687L231.074 228.64 231.074 237.548 200.136 219.501C197.676 218.066 196.845 214.909 198.28 212.449 199.715 209.989 202.872 209.159 205.332 210.593Z" transform="matrix(1.83697e-16 1 1 -1.83697e-16 1757 712)"/><path d="M2462.25 712 2462.25 839.096 2224 839.096 2229.16 833.94 2229.16 945.671 2218.84 945.671 2218.84 828.784 2457.1 828.784 2451.94 833.94 2451.94 712ZM2246.5 917.332 2224 955.905 2201.5 917.332C2200.07 914.872 2200.9 911.715 2203.36 910.28 2205.82 908.845 2208.97 909.676 2210.41 912.136L2228.45 943.073 2219.55 943.073 2237.59 912.136C2239.03 909.676 2242.19 908.845 2244.65 910.28 2247.11 911.715 2247.94 914.872 2246.5 917.332Z"/><path d="M0-5.15625 90.3965-5.15625 90.3965 400.981 80.084 400.981 80.084 0 85.2403 5.15625 0 5.15625ZM107.741 372.642 85.2403 411.215 62.7395 372.642C61.3046 370.182 62.1355 367.025 64.5953 365.59 67.0551 364.155 70.2124 364.986 71.6472 367.446L89.6941 398.384 80.7864 398.384 98.8333 367.446C100.268 364.986 103.425 364.155 105.885 365.59 108.345 367.025 109.176 370.182 107.741 372.642Z" transform="matrix(-1 1.22465e-16 1.22465e-16 1 1753.24 1124)"/><path d="M2457 1118.84 2549.68 1118.84 2549.68 1524.98 2539.37 1524.98 2539.37 1124 2544.53 1129.16 2457 1129.16ZM2567.03 1496.64 2544.53 1535.22 2522.03 1496.64C2520.59 1494.18 2521.42 1491.03 2523.88 1489.59 2526.34 1488.16 2529.5 1488.99 2530.93 1491.45L2548.98 1522.38 2540.07 1522.38 2558.12 1491.45C2559.56 1488.99 2562.71 1488.16 2565.17 1489.59 2567.63 1491.03 2568.46 1494.18 2567.03 1496.64Z"/><path d="M1502.14 1011.45 1516.6 1011.45 1521.22 1050.76 1544.85 1011.45 1557.62 1011.45 1557.17 1013.44C1556.15 1013.65 1555.41 1013.9 1554.96 1014.17 1554.52 1014.44 1554.11 1014.84 1553.75 1015.38 1553.38 1015.92 1553.02 1016.77 1552.65 1017.92 1552.29 1019.07 1551.82 1020.94 1551.25 1023.53L1544.32 1054.98C1543.97 1056.57 1543.74 1057.84 1543.64 1058.77 1543.53 1059.7 1543.47 1060.54 1543.47 1061.3 1543.47 1062.52 1543.78 1063.38 1544.39 1063.87 1544.99 1064.37 1546.01 1064.68 1547.45 1064.79L1547 1066.77 1530.79 1066.77 1531.23 1064.79C1532.26 1064.62 1533.03 1064.36 1533.54 1064 1534.06 1063.63 1534.49 1063.13 1534.84 1062.48 1535.19 1061.83 1535.52 1061.04 1535.81 1060.11 1536.11 1059.17 1536.56 1057.37 1537.15 1054.7L1542.54 1030.26C1543.3 1026.88 1544.16 1023.52 1545.14 1020.17L1544.57 1020.17C1543.73 1021.76 1541.84 1025 1538.89 1029.89L1520.45 1060.33 1516.04 1060.33 1512.67 1034.27C1512.19 1030.6 1511.65 1025.65 1511.05 1019.44L1510.24 1019.44C1509.32 1025.49 1508.3 1031.09 1507.16 1036.26L1503.03 1054.98C1502.46 1057.55 1502.18 1059.65 1502.18 1061.3 1502.18 1062.52 1502.48 1063.38 1503.09 1063.87 1503.7 1064.37 1504.72 1064.68 1506.15 1064.79L1505.7 1066.77 1491.52 1066.77 1491.96 1064.79C1492.99 1064.62 1493.76 1064.36 1494.27 1064 1494.79 1063.63 1495.22 1063.13 1495.57 1062.48 1495.92 1061.83 1496.25 1061.04 1496.54 1060.11 1496.84 1059.17 1497.29 1057.37 1497.88 1054.7L1504.77 1023.49C1505.04 1022.33 1505.26 1021.22 1505.42 1020.17 1505.58 1019.11 1505.66 1018.05 1505.66 1016.96 1505.66 1015.69 1505.34 1014.81 1504.71 1014.31 1504.07 1013.81 1503.07 1013.52 1501.69 1013.44Z" fill-rule="evenodd"/><text fill="#000000" fill-opacity="0" font-family="Arial,Arial_MSFontService,sans-serif" font-size="55.3198" x="1491.52" y="1059.86">ğ‘€</text><path d="M1593.69 1020.29 1599.44 1020.29 1599.44 1032.28 1638.39 1032.28 1638.39 1037.67 1599.44 1037.67 1599.44 1048.41 1638.39 1048.41 1638.39 1053.8 1599.44 1053.8 1599.44 1066.77 1593.69 1066.77Z" fill-rule="evenodd"/><text fill="#000000" fill-opacity="0" font-family="Arial,Arial_MSFontService,sans-serif" font-size="46.4849" x="1593.69" y="1060.96">âŠ¨</text><path d="M1678.21 1027.38C1680.86 1027.38 1682.79 1028.39 1684.01 1030.42 1685.23 1032.45 1685.83 1035.78 1685.83 1040.43 1685.83 1045.89 1685.58 1051.8 1685.06 1058.18L1685.43 1058.18C1691.99 1047.16 1697.42 1037.11 1701.72 1028.03L1710.19 1028.03 1709.66 1029.97C1707.04 1033.13 1703.21 1038.34 1698.15 1045.58 1693.1 1052.82 1688.39 1060 1684.01 1067.14 1683.12 1072.76 1681.98 1078.05 1680.6 1083.02L1674.57 1083.02 1673.39 1081.12C1674.47 1076.88 1676.4 1072.2 1679.19 1067.1 1679.43 1061.99 1679.55 1056.78 1679.55 1051.45 1679.55 1046.94 1679.46 1043.44 1679.27 1040.96 1679.08 1038.47 1678.8 1036.6 1678.44 1035.34 1678.07 1034.09 1677.64 1033.22 1677.14 1032.75 1676.64 1032.28 1676.03 1032.04 1675.3 1032.04 1673.78 1032.04 1672.04 1033.13 1670.07 1035.32L1667.8 1033.05C1669.1 1031.89 1670.1 1031.01 1670.82 1030.42 1671.53 1029.83 1672.28 1029.3 1673.05 1028.84 1673.82 1028.38 1674.61 1028.02 1675.44 1027.77 1676.26 1027.51 1677.19 1027.38 1678.21 1027.38Z" fill-rule="evenodd"/><text fill="#000000" fill-opacity="0" font-family="Arial,Arial_MSFontService,sans-serif" font-size="55.644" x="1667.8" y="1076.07">ğ›¾</text><path d="M2513.28 1011.45 2527.75 1011.45 2532.37 1050.76 2556 1011.45 2568.77 1011.45 2568.32 1013.44C2567.29 1013.65 2566.56 1013.9 2566.11 1014.17 2565.67 1014.44 2565.26 1014.84 2564.9 1015.38 2564.53 1015.92 2564.17 1016.77 2563.8 1017.92 2563.44 1019.07 2562.97 1020.94 2562.4 1023.53L2555.47 1054.98C2555.12 1056.57 2554.89 1057.84 2554.78 1058.77 2554.68 1059.7 2554.62 1060.54 2554.62 1061.3 2554.62 1062.52 2554.93 1063.38 2555.53 1063.87 2556.14 1064.37 2557.16 1064.68 2558.59 1064.79L2558.15 1066.77 2541.94 1066.77 2542.38 1064.79C2543.41 1064.62 2544.18 1064.36 2544.69 1064 2545.21 1063.63 2545.64 1063.13 2545.99 1062.48 2546.34 1061.83 2546.67 1061.04 2546.96 1060.11 2547.26 1059.17 2547.71 1057.37 2548.3 1054.7L2553.69 1030.26C2554.45 1026.88 2555.31 1023.52 2556.28 1020.17L2555.72 1020.17C2554.88 1021.76 2552.99 1025 2550.04 1029.89L2531.6 1060.33 2527.19 1060.33 2523.82 1034.27C2523.33 1030.6 2522.79 1025.65 2522.2 1019.44L2521.39 1019.44C2520.47 1025.49 2519.44 1031.09 2518.31 1036.26L2514.18 1054.98C2513.61 1057.55 2513.32 1059.65 2513.32 1061.3 2513.32 1062.52 2513.63 1063.38 2514.24 1063.87 2514.84 1064.37 2515.86 1064.68 2517.3 1064.79L2516.85 1066.77 2502.67 1066.77 2503.11 1064.79C2504.14 1064.62 2504.91 1064.36 2505.42 1064 2505.94 1063.63 2506.37 1063.13 2506.72 1062.48 2507.07 1061.83 2507.39 1061.04 2507.69 1060.11 2507.99 1059.17 2508.43 1057.37 2509.03 1054.7L2515.92 1023.49C2516.19 1022.33 2516.4 1021.22 2516.57 1020.17 2516.73 1019.11 2516.81 1018.05 2516.81 1016.96 2516.81 1015.69 2516.49 1014.81 2515.86 1014.31 2515.22 1013.81 2514.22 1013.52 2512.84 1013.44Z" fill-rule="evenodd"/><text fill="#000000" fill-opacity="0" font-family="Arial,Arial_MSFontService,sans-serif" font-size="55.3198" x="2502.67" y="1059.86">ğ‘€</text><path d="M2610.59 1037.67 2610.59 1048.41 2624.01 1048.41 2628.3 1037.67ZM2637.3 1015.02 2642 1015.02 2635.15 1032.28 2649.54 1032.28 2649.54 1037.67 2633 1037.67 2628.71 1048.41 2649.54 1048.41 2649.54 1053.8 2626.56 1053.8 2618.66 1073.74 2613.95 1073.74 2621.86 1053.8 2610.59 1053.8 2610.59 1066.77 2604.84 1066.77 2604.84 1020.29 2610.59 1020.29 2610.59 1032.28 2630.45 1032.28Z" fill-rule="evenodd"/><text fill="#000000" fill-opacity="0" font-family="Arial,Arial_MSFontService,sans-serif" font-size="58.7241" x="2604.84" y="1066.4">âŠ­</text><path d="M2689.36 1027.38C2692.01 1027.38 2693.94 1028.39 2695.16 1030.42 2696.37 1032.45 2696.98 1035.78 2696.98 1040.43 2696.98 1045.89 2696.73 1051.8 2696.21 1058.18L2696.58 1058.18C2703.14 1047.16 2708.57 1037.11 2712.87 1028.03L2721.34 1028.03 2720.81 1029.97C2718.19 1033.13 2714.35 1038.34 2709.3 1045.58 2704.25 1052.82 2699.53 1060 2695.16 1067.14 2694.27 1072.76 2693.13 1078.05 2691.75 1083.02L2685.72 1083.02 2684.54 1081.12C2685.62 1076.88 2687.55 1072.2 2690.34 1067.1 2690.58 1061.99 2690.7 1056.78 2690.7 1051.45 2690.7 1046.94 2690.61 1043.44 2690.42 1040.96 2690.23 1038.47 2689.95 1036.6 2689.59 1035.34 2689.22 1034.09 2688.79 1033.22 2688.29 1032.75 2687.79 1032.28 2687.17 1032.04 2686.44 1032.04 2684.93 1032.04 2683.19 1033.13 2681.22 1035.32L2678.95 1033.05C2680.24 1031.89 2681.25 1031.01 2681.97 1030.42 2682.68 1029.83 2683.43 1029.3 2684.2 1028.84 2684.97 1028.38 2685.76 1028.02 2686.59 1027.77 2687.41 1027.51 2688.34 1027.38 2689.36 1027.38Z" fill-rule="evenodd"/><text fill="#000000" fill-opacity="0" font-family="Arial,Arial_MSFontService,sans-serif" font-size="55.644" x="2678.95" y="1076.07">ğ›¾</text></g></svg>