<svg width="3260" height="1245" xmlns="http://www.w3.org/2000/svg" xmlns:xlink="http://www.w3.org/1999/xlink" overflow="hidden"><defs><clipPath id="clip0"><rect x="699" y="170" width="3260" height="1245"/></clipPath></defs><g clip-path="url(#clip0)" transform="translate(-699 -170)"><path d="M972 968C972 935.967 997.968 910 1030 910 1062.03 910 1088 935.967 1088 968 1088 1000.03 1062.03 1026 1030 1026 997.968 1026 972 1000.03 972 968Z" fill-rule="evenodd"/><path d="M937 968.5C937 878.201 1010.43 805 1101 805 1191.57 805 1265 878.201 1265 968.5 1265 1058.8 1191.57 1132 1101 1132 1010.43 1132 937 1058.8 937 968.5Z" stroke="#000000" stroke-width="13.75" stroke-miterlimit="8" fill="none" fill-rule="evenodd"/><path d="M3.54791-3.74156 268.295 247.303 261.2 254.786-3.54791 3.74156ZM259.665 215.217 272.173 258.086 228.701 247.872C225.929 247.221 224.209 244.445 224.861 241.673 225.512 238.901 228.287 237.182 231.059 237.833L265.927 246.025 259.797 252.489 249.766 218.106C248.968 215.372 250.538 212.509 253.271 211.712 256.005 210.914 258.868 212.484 259.665 215.217Z" transform="matrix(1 0 0 -1 1265 968.069)"/><rect x="1537" y="511" width="96.9999" height="398" stroke="#000000" stroke-width="10.3125" stroke-miterlimit="8" fill="#FFFFFF"/><path d="M937 454.5C937 364.202 1010.43 291 1101 291 1191.57 291 1265 364.202 1265 454.5 1265 544.799 1191.57 618 1101 618 1010.43 618 937 544.799 937 454.5Z" stroke="#000000" stroke-width="13.75" stroke-miterlimit="8" fill="none" fill-rule="evenodd"/><path d="M1122 968C1122 935.967 1147.97 910 1180 910 1212.03 910 1238 935.967 1238 968 1238 1000.03 1212.03 1026 1180 1026 1147.97 1026 1122 1000.03 1122 968Z" fill-rule="evenodd"/><path d="M1268.53 451.241 1533.24 699.731 1526.18 707.25 1261.47 458.759ZM1524.45 667.69 1537.17 710.495 1493.65 700.5C1490.87 699.863 1489.14 697.096 1489.78 694.321 1490.42 691.545 1493.18 689.812 1495.96 690.45L1530.87 698.466 1524.77 704.96 1514.56 670.628C1513.75 667.899 1515.31 665.028 1518.04 664.217 1520.77 663.405 1523.64 664.961 1524.45 667.69Z"/><path d="M976 408C976 375.967 1001.97 350 1034 350 1066.03 350 1092 375.967 1092 408 1092 440.033 1066.03 466 1034 466 1001.97 466 976 440.033 976 408Z" fill-rule="evenodd"/><path d="M1114 411.5C1114 379.744 1139.97 354 1172 354 1204.03 354 1230 379.744 1230 411.5 1230 443.256 1204.03 469 1172 469 1139.97 469 1114 443.256 1114 411.5Z" fill-rule="evenodd"/><path d="M1045 535C1045 502.968 1070.97 477 1103 477 1135.03 477 1161 502.968 1161 535 1161 567.033 1135.03 593 1103 593 1070.97 593 1045 567.033 1045 535Z" fill-rule="evenodd"/><path d="M1906 710.5C1906 620.201 1979.2 547 2069.5 547 2159.8 547 2233 620.201 2233 710.5 2233 800.799 2159.8 874 2069.5 874 1979.2 874 1906 800.799 1906 710.5Z" stroke="#000000" stroke-width="13.75" stroke-miterlimit="8" fill="none" fill-rule="evenodd"/><path d="M1634 704.844 1895.95 704.844 1895.95 715.156 1634 715.156ZM1867.61 687.499 1906.18 710 1867.61 732.501C1865.15 733.936 1861.99 733.105 1860.55 730.645 1859.12 728.185 1859.95 725.028 1862.41 723.593L1893.35 705.546 1893.35 714.454 1862.41 696.407C1859.95 694.972 1859.12 691.815 1860.55 689.355 1861.99 686.895 1865.15 686.065 1867.61 687.499Z"/><text font-family="Calibri,Calibri_MSFontService,sans-serif" font-weight="400" font-size="92" transform="matrix(1 0 0 1 780.589 485)">H<tspan font-size="61" x="57.2916" y="22">2</tspan><tspan font-size="92" x="-1.71875" y="514">O</tspan><tspan font-size="61" x="59.0104" y="536">2</tspan><tspan font-size="92" x="621.302" y="87">2</tspan><tspan font-size="92" x="782.868" y="-29">T</tspan><tspan font-size="92" x="1210.03" y="526">H</tspan><tspan font-size="61" x="1267.32" y="548">2</tspan><tspan font-size="92" x="1298.26" y="526">O</tspan></text><path d="M2593 968C2593 935.967 2618.97 910 2651 910 2683.03 910 2709 935.967 2709 968 2709 1000.03 2683.03 1026 2651 1026 2618.97 1026 2593 1000.03 2593 968Z" fill-rule="evenodd"/><path d="M2559 968.5C2559 878.201 2632.2 805 2722.5 805 2812.8 805 2886 878.201 2886 968.5 2886 1058.8 2812.8 1132 2722.5 1132 2632.2 1132 2559 1058.8 2559 968.5Z" stroke="#000000" stroke-width="13.75" stroke-miterlimit="8" fill="none" fill-rule="evenodd"/><path d="M3.54791-3.74156 268.295 247.303 261.2 254.786-3.54791 3.74156ZM259.665 215.217 272.173 258.086 228.701 247.872C225.929 247.221 224.209 244.445 224.861 241.673 225.512 238.901 228.287 237.182 231.059 237.833L265.927 246.025 259.797 252.489 249.766 218.106C248.968 215.372 250.538 212.509 253.271 211.712 256.005 210.914 258.868 212.484 259.665 215.217Z" transform="matrix(1 0 0 -1 2886 968.069)"/><rect x="3158" y="511" width="97" height="398" stroke="#000000" stroke-width="10.3125" stroke-miterlimit="8" fill="#FFFFFF"/><path d="M2559 454.5C2559 364.202 2632.2 291 2722.5 291 2812.8 291 2886 364.202 2886 454.5 2886 544.799 2812.8 618 2722.5 618 2632.2 618 2559 544.799 2559 454.5Z" stroke="#000000" stroke-width="13.75" stroke-miterlimit="8" fill="none" fill-rule="evenodd"/><path d="M2889.53 451.241 3154.24 699.731 3147.18 707.25 2882.47 458.759ZM3145.45 667.69 3158.17 710.495 3114.65 700.5C3111.87 699.863 3110.14 697.096 3110.78 694.321 3111.42 691.545 3114.18 689.812 3116.96 690.45L3151.87 698.466 3145.77 704.96 3135.56 670.628C3134.75 667.899 3136.31 665.028 3139.04 664.217 3141.77 663.405 3144.64 664.961 3145.45 667.69Z"/><path d="M3561 710C3561 677.968 3586.97 652 3619 652 3651.03 652 3677 677.968 3677 710 3677 742.033 3651.03 768 3619 768 3586.97 768 3561 742.033 3561 710Z" fill-rule="evenodd"/><path d="M2666 535C2666 502.968 2691.97 477 2724 477 2756.03 477 2782 502.968 2782 535 2782 567.033 2756.03 593 2724 593 2691.97 593 2666 567.033 2666 535Z" fill-rule="evenodd"/><path d="M3527 710.5C3527 620.201 3600.2 547 3690.5 547 3780.8 547 3854 620.201 3854 710.5 3854 800.799 3780.8 874 3690.5 874 3600.2 874 3527 800.799 3527 710.5Z" stroke="#000000" stroke-width="13.75" stroke-miterlimit="8" fill="none" fill-rule="evenodd"/><path d="M3255 704.844 3516.95 704.844 3516.95 715.156 3255 715.156ZM3488.61 687.499 3527.18 710 3488.61 732.501C3486.15 733.936 3482.99 733.105 3481.55 730.645 3480.12 728.185 3480.95 725.028 3483.41 723.593L3514.35 705.546 3514.35 714.454 3483.41 696.407C3480.95 694.972 3480.12 691.815 3481.55 689.355 3482.99 686.895 3486.15 686.065 3488.61 687.499Z"/><text font-family="Calibri,Calibri_MSFontService,sans-serif" font-weight="400" font-size="92" transform="matrix(1 0 0 1 2401.78 485)">H<tspan font-size="61" x="57.2915" y="22">2</tspan><tspan font-size="92" x="-1.71875" y="514">O</tspan><tspan font-size="61" x="59.0103" y="536">2</tspan><tspan font-size="92" x="621.302" y="87">2</tspan><tspan font-size="92" x="782.868" y="-29">T</tspan><tspan font-size="92" x="1210.03" y="526">H</tspan><tspan font-size="61" x="1267.32" y="548">2</tspan><tspan font-size="92" x="1298.26" y="526">O</tspan></text><rect x="702.5" y="173.5" width="3253" height="1065" stroke="#000000" stroke-width="6.875" stroke-miterlimit="8" fill="none"/><path d="M2328.5 173.5 2328.5 1238.14" stroke="#000000" stroke-width="6.875" stroke-miterlimit="8" fill="none" fill-rule="evenodd"/><text font-family="Calibri,Calibri_MSFontService,sans-serif" font-weight="400" font-size="92" transform="matrix(1 0 0 1 1741.93 675)">2<tspan font-size="92" x="1626.1" y="-5">2</tspan></text><path d="M3711 710C3711 677.968 3736.74 652 3768.5 652 3800.26 652 3826 677.968 3826 710 3826 742.033 3800.26 768 3768.5 768 3736.74 768 3711 742.033 3711 710Z" fill-rule="evenodd"/><text font-family="Calibri,Calibri_MSFontService,sans-serif" font-weight="400" font-size="92" transform="matrix(1 0 0 1 1055 1335)">(a) Petri net before firing<tspan font-size="92" x="1656.73" y="-5">(b) Petri net after firing</tspan></text></g></svg>