<svg width="4007" height="1382" xmlns="http://www.w3.org/2000/svg" xmlns:xlink="http://www.w3.org/1999/xlink" overflow="hidden"><defs><clipPath id="clip0"><rect x="330" y="608" width="4007" height="1382"/></clipPath></defs><g clip-path="url(#clip0)" transform="translate(-330 -608)"><path d="M985 761.001C985 735.595 1005.6 715 1031 715L1445 715C1470.4 715 1491 735.595 1491 761.001L1491 944.999C1491 970.405 1470.4 991 1445 991L1031 991C1005.6 991 985 970.405 985 944.999Z" stroke="#000000" stroke-width="10.3125" stroke-miterlimit="8" fill="#FFFFFF" fill-rule="evenodd"/><path d="M561 853C561 803.847 600.847 764 650 764 699.153 764 739 803.847 739 853 739 902.153 699.153 942 650 942 600.847 942 561 902.153 561 853Z" fill-rule="evenodd"/><text font-family="Calibri,Calibri_MSFontService,sans-serif" font-weight="400" font-size="92" transform="matrix(1 0 0 1 545.108 1196)">Initial</text><path d="M561 1557C561 1507.85 600.847 1468 650 1468 699.153 1468 739 1507.85 739 1557 739 1606.15 699.153 1646 650 1646 600.847 1646 561 1606.15 561 1557Z" fill-rule="evenodd"/><text font-family="Calibri,Calibri_MSFontService,sans-serif" font-weight="400" font-size="92" transform="matrix(1 0 0 1 411.618 1900)">Activity Final</text><path d="M537 1557C537 1495.14 587.144 1445 649 1445 710.856 1445 761 1495.14 761 1557 761 1618.86 710.856 1669 649 1669 587.144 1669 537 1618.86 537 1557Z" stroke="#000000" stroke-width="13.75" stroke-miterlimit="8" fill="none" fill-rule="evenodd"/><text font-family="Calibri,Calibri_MSFontService,sans-serif" font-weight="400" font-size="92" transform="matrix(1 0 0 1 1117.67 1196)">Action</text><path d="M1148 1557C1148 1507.85 1187.85 1468 1237 1468 1286.15 1468 1326 1507.85 1326 1557 1326 1606.15 1286.15 1646 1237 1646 1187.85 1646 1148 1606.15 1148 1557Z" stroke="#000000" stroke-width="10.3125" stroke-miterlimit="8" fill="none" fill-rule="evenodd"/><text font-family="Calibri,Calibri_MSFontService,sans-serif" font-weight="400" font-size="92" transform="matrix(1 0 0 1 1050.01 1900)">Flow Final</text><path d="M1174 1494 1299.9 1619.9" stroke="#000000" stroke-width="10.3125" stroke-miterlimit="8" fill="none" fill-rule="evenodd"/><path d="M0 0 125.898 125.898" stroke="#000000" stroke-width="10.3125" stroke-miterlimit="8" fill="none" fill-rule="evenodd" transform="matrix(-1 0 0 1 1299.9 1494)"/><path d="M1737 715 2244 715 2244 991 1737 991 1827.93 850.665C1802.78 816.606 1774.47 767.091 1737 715Z" stroke="#000000" stroke-width="10.3125" stroke-miterlimit="8" fill="#FFFFFF" fill-rule="evenodd"/><text font-family="Calibri,Calibri_MSFontService,sans-serif" font-weight="400" font-size="92" transform="matrix(1 0 0 1 1726.97 1196)">Receive Signal</text><path d="M91.3071 1.7171 508 0 508 276 93.0264 273.424C-1.01686 134.771 94.9028 275.176 0 138.241 91.7515 1.14449-0.157384 137.955 91.3071 1.7171Z" stroke="#000000" stroke-width="10.3125" stroke-miterlimit="8" fill="#FFFFFF" fill-rule="evenodd" transform="matrix(-1 0 0 1 2246 1419)"/><text font-family="Calibri,Calibri_MSFontService,sans-serif" font-weight="400" font-size="92" transform="matrix(1 0 0 1 1779.16 1900)">Send Signal</text><path d="M2489 853 2622 764 2755 853 2622 942Z" stroke="#000000" stroke-width="10.3125" stroke-miterlimit="8" fill="#FFFFFF" fill-rule="evenodd"/><text font-family="Calibri,Calibri_MSFontService,sans-serif" font-weight="400" font-size="92" transform="matrix(1 0 0 1 2464.45 1192)">Decision</text><path d="M2489 1561 2622 1472 2755 1561 2622 1650Z" stroke="#000000" stroke-width="10.3125" stroke-miterlimit="8" fill="#FFFFFF" fill-rule="evenodd"/><text font-family="Calibri,Calibri_MSFontService,sans-serif" font-weight="400" font-size="92" transform="matrix(1 0 0 1 2500.69 1900)">Merge</text><path d="M2627.16 715 2627.16 753.885 2616.84 753.885 2616.84 715ZM2644.5 725.546 2622 764.119 2599.5 725.546C2598.06 723.086 2598.9 719.929 2601.36 718.494 2603.82 717.059 2606.97 717.89 2608.41 720.35L2626.45 751.287 2617.55 751.287 2635.59 720.35C2637.03 717.89 2640.19 717.059 2642.65 718.494 2645.1 719.929 2645.94 723.086 2644.5 725.546Z"/><path d="M4.7314-2.04958 60.5042 126.701 51.0414 130.8-4.7314 2.04958ZM65.1548 93.8017 59.8404 138.14 23.8612 111.69C21.5668 110.003 21.0742 106.775 22.761 104.481 24.4477 102.187 27.6751 101.694 29.9695 103.381L58.8269 124.596 50.6531 128.136 54.9156 92.5745C55.2545 89.747 57.8213 87.7296 60.6488 88.0685 63.4763 88.4074 65.4937 90.9743 65.1548 93.8017Z" transform="matrix(-1 0 0 1 2489.83 853)"/><path d="M2759.73 849.951 2815.5 978.701 2806.04 982.8 2750.27 854.05ZM2820.16 945.802 2814.84 990.14 2778.86 963.69C2776.57 962.003 2776.07 958.776 2777.76 956.481 2779.45 954.187 2782.68 953.694 2784.97 955.381L2813.83 976.596 2805.65 980.137 2809.92 944.575C2810.25 941.747 2812.82 939.73 2815.65 940.069 2818.48 940.408 2820.49 942.974 2820.16 945.802Z"/><text font-family="Calibri,Calibri_MSFontService,sans-serif" font-weight="400" font-size="55" transform="matrix(1 0 0 1 2386.05 888)">[g<tspan font-size="37" x="42.3958" y="13">1</tspan><tspan font-size="55" x="60.729" y="0">]</tspan><tspan font-size="55" x="402.238" y="0">[</tspan><tspan font-size="55" x="418.852" y="0">g</tspan><tspan font-size="37" x="444.634" y="13">n</tspan><tspan font-size="55" x="464.113" y="0">]</tspan><tspan font-size="55" x="215.737" y="90">…</tspan></text><path d="M4.7314-2.04958 60.5042 126.701 51.0414 130.8-4.7314 2.04958ZM65.1548 93.8017 59.8404 138.14 23.8612 111.69C21.5668 110.003 21.0742 106.775 22.761 104.481 24.4477 102.187 27.6751 101.694 29.9695 103.381L58.8269 124.596 50.6531 128.136 54.9156 92.5745C55.2545 89.747 57.8213 87.7296 60.6488 88.0685 63.4763 88.4074 65.4937 90.9743 65.1548 93.8017Z" transform="matrix(-1 0 0 1 2815.83 1430)"/><path d="M2434.73 1427.95 2490.5 1556.7 2481.04 1560.8 2425.27 1432.05ZM2495.15 1523.8 2489.84 1568.14 2453.86 1541.69C2451.57 1540 2451.07 1536.78 2452.76 1534.48 2454.45 1532.19 2457.68 1531.69 2459.97 1533.38L2488.83 1554.6 2480.65 1558.14 2484.92 1522.57C2485.25 1519.75 2487.82 1517.73 2490.65 1518.07 2493.48 1518.41 2495.49 1520.97 2495.15 1523.8Z"/><text font-family="Calibri,Calibri_MSFontService,sans-serif" font-weight="400" font-size="55" transform="matrix(1 0 0 1 2601.78 1437)">…</text><path d="M2626.16 1650 2626.16 1688.89 2615.84 1688.89 2615.84 1650ZM2643.5 1660.55 2621 1699.12 2598.5 1660.55C2597.06 1658.09 2597.9 1654.93 2600.35 1653.49 2602.81 1652.06 2605.97 1652.89 2607.41 1655.35L2625.45 1686.29 2616.55 1686.29 2634.59 1655.35C2636.03 1652.89 2639.19 1652.06 2641.65 1653.49 2644.1 1654.93 2644.94 1658.09 2643.5 1660.55Z"/><path d="M2992 852 3498.84 852.001" stroke="#000000" stroke-width="10.3125" stroke-miterlimit="8" fill="#FFFFFF" fill-rule="evenodd"/><path d="M2992 1559 3498.84 1559" stroke="#000000" stroke-width="10.3125" stroke-miterlimit="8" fill="#FFFFFF" fill-rule="evenodd"/><text font-family="Calibri,Calibri_MSFontService,sans-serif" font-weight="400" font-size="92" transform="matrix(1 0 0 1 3163.99 1196)">Fork<tspan font-size="92" x="8.25025" y="704">Join</tspan></text><path d="M3243.16 715 3243.16 843.944 3232.84 843.944 3232.84 715ZM3260.5 815.604 3238 854.177 3215.5 815.604C3214.06 813.145 3214.9 809.987 3217.36 808.553 3219.82 807.118 3222.97 807.949 3224.41 810.408L3242.45 841.346 3233.55 841.346 3251.59 810.408C3253.03 807.948 3256.19 807.118 3258.65 808.552 3261.11 809.987 3261.94 813.145 3260.5 815.604Z"/><path d="M3124.16 852 3124.16 979.909 3113.84 979.909 3113.84 852ZM3141.5 951.57 3119 990.142 3096.5 951.57C3095.06 949.11 3095.9 945.953 3098.35 944.518 3100.81 943.083 3103.97 943.914 3105.41 946.373L3123.45 977.311 3114.55 977.311 3132.59 946.373C3134.03 943.914 3137.19 943.083 3139.65 944.518 3142.1 945.953 3142.94 949.11 3141.5 951.57Z"/><text font-family="Calibri,Calibri_MSFontService,sans-serif" font-weight="400" font-size="55" transform="matrix(1 0 0 1 3218.69 930)">…</text><path d="M3358.16 852 3358.16 979.909 3347.84 979.909 3347.84 852ZM3375.5 951.57 3353 990.142 3330.5 951.57C3329.06 949.11 3329.9 945.953 3332.36 944.518 3334.82 943.083 3337.97 943.914 3339.41 946.373L3357.45 977.311 3348.55 977.311 3366.59 946.373C3368.03 943.914 3371.19 943.083 3373.65 944.518 3376.1 945.953 3376.94 949.11 3375.5 951.57Z"/><path d="M3124.16 1425 3124.16 1552.91 3113.84 1552.91 3113.84 1425ZM3141.5 1524.57 3119 1563.14 3096.5 1524.57C3095.06 1522.11 3095.9 1518.95 3098.35 1517.52 3100.81 1516.08 3103.97 1516.91 3105.41 1519.37L3123.45 1550.31 3114.55 1550.31 3132.59 1519.37C3134.03 1516.91 3137.19 1516.08 3139.65 1517.52 3142.1 1518.95 3142.94 1522.11 3141.5 1524.57Z"/><path d="M3358.16 1425 3358.16 1552.91 3347.84 1552.91 3347.84 1425ZM3375.5 1524.57 3353 1563.14 3330.5 1524.57C3329.06 1522.11 3329.9 1518.95 3332.36 1517.52 3334.82 1516.08 3337.97 1516.91 3339.41 1519.37L3357.45 1550.31 3348.55 1550.31 3366.59 1519.37C3368.03 1516.91 3371.19 1516.08 3373.65 1517.52 3376.1 1518.95 3376.94 1522.11 3375.5 1524.57Z"/><path d="M3243.16 1557 3243.16 1684.91 3232.84 1684.91 3232.84 1557ZM3260.5 1656.57 3238 1695.14 3215.5 1656.57C3214.06 1654.11 3214.9 1650.95 3217.36 1649.52 3219.82 1648.08 3222.97 1648.91 3224.41 1651.37L3242.45 1682.31 3233.55 1682.31 3251.59 1651.37C3253.03 1648.91 3256.19 1648.08 3258.65 1649.52 3261.11 1650.95 3261.94 1654.11 3260.5 1656.57Z"/><text font-family="Calibri,Calibri_MSFontService,sans-serif" font-weight="400" font-size="55" transform="matrix(1 0 0 1 3218.69 1508)">…</text><path d="M3719 794.001C3719 777.432 3732.43 764 3749 764L4105 764C4121.57 764 4135 777.432 4135 794.001L4135 914C4135 930.568 4121.57 944 4105 944L3749 944C3732.43 944 3719 930.568 3719 914Z" stroke="#000000" stroke-width="10.3125" stroke-miterlimit="8" fill="#FFFFFF" fill-rule="evenodd"/><text font-family="Calibri,Calibri_MSFontService,sans-serif" font-weight="400" font-size="92" transform="matrix(1 0 0 1 3667.92 1192)">Central Buffer</text><path d="M3666 1465C3666 1439.6 3686.6 1419 3712 1419L4127 1419C4152.4 1419 4173 1439.6 4173 1465L4173 1649C4173 1674.4 4152.4 1695 4127 1695L3712 1695C3686.6 1695 3666 1674.4 3666 1649Z" stroke="#000000" stroke-width="10.3125" stroke-miterlimit="8" fill="#FFFFFF" fill-rule="evenodd"/><rect x="4109.5" y="1490.5" width="125" height="132" stroke="#000000" stroke-width="4.58333" stroke-miterlimit="8"/><text fill="#FFFFFF" font-family="Calibri,Calibri_MSFontService,sans-serif" font-weight="700" font-size="55" transform="matrix(1 0 0 1 4157.04 1574)">P<tspan fill="#000000" font-weight="400" font-size="92" x="-306.223" y="326">Pin</tspan></text><rect x="335" y="613" width="3997" height="1372" stroke="#000000" stroke-width="10.3125" stroke-miterlimit="8" fill="none"/></g></svg>