<?xml version="1.0" encoding="UTF-8" standalone="no"?><svg xmlns="http://www.w3.org/2000/svg" xmlns:xlink="http://www.w3.org/1999/xlink" contentScriptType="application/ecmascript" contentStyleType="text/css" height="1880px" preserveAspectRatio="none" style="width:423px;height:1880px;" version="1.1" viewBox="0 0 423 1880" width="423px" zoomAndPan="magnify"><defs/><g><text fill="#000000" font-family="sans-serif" font-size="18" lengthAdjust="spacing" textLength="398" x="9" y="30.6855">CompilationWrapperTrace of CompilationWrapper</text><line style="stroke:#0B910B;stroke-width:1.0;stroke-dasharray:5.0,5.0;" x1="207.5" x2="207.5" y1="91.8594" y2="1873.5469"/><rect fill="#3EC43E" height="49.2188" style="stroke:#043204;stroke-width:1.5;" width="143" x="136.5" y="41.6406"/><text fill="#000000" font-family="sans-serif" font-size="14" font-style="italic" lengthAdjust="spacing" textLength="44" x="186" y="63.1738">«SUT»</text><text fill="#000000" font-family="sans-serif" font-size="14" lengthAdjust="spacing" textLength="129" x="143.5" y="80.7832">CompilationWrapper</text><polygon fill="#FFE7A4" points="96.5,106.8594,319.5,106.8594,329.5,126.8594,319.5,146.8594,96.5,146.8594,86.5,126.8594,96.5,106.8594" style="stroke:#914E0B;stroke-width:1.0;"/><text fill="#000000" font-family="sans-serif" font-size="13" lengthAdjust="spacing" textLength="219" x="98.5" y="124.3545">CompilationWrapper in {Wrapper} with</text><text fill="#000000" font-family="sans-serif" font-size="13" lengthAdjust="spacing" textLength="113" x="98.5" y="140.7061">activityDone = false</text><rect fill="#8CDC8C" height="3" style="stroke:#8CDC8C;stroke-width:1.0;" width="253" x="81.5" y="173.7383"/><line style="stroke:#0B910B;stroke-width:1.0;" x1="81.5" x2="334.5" y1="173.7383" y2="173.7383"/><line style="stroke:#0B910B;stroke-width:1.0;" x1="81.5" x2="334.5" y1="176.7383" y2="176.7383"/><rect fill="#8CDC8C" height="24.3516" style="stroke:#0B910B;stroke-width:2.0;" width="69" x="173.5" y="162.5625"/><text fill="#000000" font-family="sans-serif" font-size="13" font-weight="bold" lengthAdjust="spacing" textLength="51" x="179.5" y="180.0576">Execute</text><polygon fill="#FFE7A4" points="96.5,201.9141,319.5,201.9141,329.5,221.9141,319.5,241.9141,96.5,241.9141,86.5,221.9141,96.5,201.9141" style="stroke:#914E0B;stroke-width:1.0;"/><text fill="#000000" font-family="sans-serif" font-size="13" lengthAdjust="spacing" textLength="219" x="98.5" y="219.4092">CompilationWrapper in {Wrapper} with</text><text fill="#000000" font-family="sans-serif" font-size="13" lengthAdjust="spacing" textLength="113" x="98.5" y="235.7607">activityDone = false</text><rect fill="#8CDC8C" height="3" style="stroke:#8CDC8C;stroke-width:1.0;" width="253" x="81.5" y="268.793"/><line style="stroke:#0B910B;stroke-width:1.0;" x1="81.5" x2="334.5" y1="268.793" y2="268.793"/><line style="stroke:#0B910B;stroke-width:1.0;" x1="81.5" x2="334.5" y1="271.793" y2="271.793"/><rect fill="#8CDC8C" height="24.3516" style="stroke:#0B910B;stroke-width:2.0;" width="69" x="173.5" y="257.6172"/><text fill="#000000" font-family="sans-serif" font-size="13" font-weight="bold" lengthAdjust="spacing" textLength="51" x="179.5" y="275.1123">Execute</text><polygon fill="#FFE7A4" points="96.5,296.9688,319.5,296.9688,329.5,316.9688,319.5,336.9688,96.5,336.9688,86.5,316.9688,96.5,296.9688" style="stroke:#914E0B;stroke-width:1.0;"/><text fill="#000000" font-family="sans-serif" font-size="13" lengthAdjust="spacing" textLength="219" x="98.5" y="314.4639">CompilationWrapper in {Wrapper} with</text><text fill="#000000" font-family="sans-serif" font-size="13" lengthAdjust="spacing" textLength="113" x="98.5" y="330.8154">activityDone = false</text><rect fill="#8CDC8C" height="3" style="stroke:#8CDC8C;stroke-width:1.0;" width="253" x="81.5" y="363.8477"/><line style="stroke:#0B910B;stroke-width:1.0;" x1="81.5" x2="334.5" y1="363.8477" y2="363.8477"/><line style="stroke:#0B910B;stroke-width:1.0;" x1="81.5" x2="334.5" y1="366.8477" y2="366.8477"/><rect fill="#8CDC8C" height="24.3516" style="stroke:#0B910B;stroke-width:2.0;" width="69" x="173.5" y="352.6719"/><text fill="#000000" font-family="sans-serif" font-size="13" font-weight="bold" lengthAdjust="spacing" textLength="51" x="179.5" y="370.167">Execute</text><polygon fill="#FFE7A4" points="96.5,392.0234,319.5,392.0234,329.5,412.0234,319.5,432.0234,96.5,432.0234,86.5,412.0234,96.5,392.0234" style="stroke:#914E0B;stroke-width:1.0;"/><text fill="#000000" font-family="sans-serif" font-size="13" lengthAdjust="spacing" textLength="219" x="98.5" y="409.5186">CompilationWrapper in {Wrapper} with</text><text fill="#000000" font-family="sans-serif" font-size="13" lengthAdjust="spacing" textLength="113" x="98.5" y="425.8701">activityDone = false</text><rect fill="#8CDC8C" height="3" style="stroke:#8CDC8C;stroke-width:1.0;" width="253" x="81.5" y="458.9023"/><line style="stroke:#0B910B;stroke-width:1.0;" x1="81.5" x2="334.5" y1="458.9023" y2="458.9023"/><line style="stroke:#0B910B;stroke-width:1.0;" x1="81.5" x2="334.5" y1="461.9023" y2="461.9023"/><rect fill="#8CDC8C" height="24.3516" style="stroke:#0B910B;stroke-width:2.0;" width="69" x="173.5" y="447.7266"/><text fill="#000000" font-family="sans-serif" font-size="13" font-weight="bold" lengthAdjust="spacing" textLength="51" x="179.5" y="465.2217">Execute</text><polygon fill="#FFE7A4" points="96.5,487.0781,319.5,487.0781,329.5,507.0781,319.5,527.0781,96.5,527.0781,86.5,507.0781,96.5,487.0781" style="stroke:#914E0B;stroke-width:1.0;"/><text fill="#000000" font-family="sans-serif" font-size="13" lengthAdjust="spacing" textLength="219" x="98.5" y="504.5732">CompilationWrapper in {Wrapper} with</text><text fill="#000000" font-family="sans-serif" font-size="13" lengthAdjust="spacing" textLength="113" x="98.5" y="520.9248">activityDone = false</text><rect fill="#8CDC8C" height="3" style="stroke:#8CDC8C;stroke-width:1.0;" width="253" x="81.5" y="553.957"/><line style="stroke:#0B910B;stroke-width:1.0;" x1="81.5" x2="334.5" y1="553.957" y2="553.957"/><line style="stroke:#0B910B;stroke-width:1.0;" x1="81.5" x2="334.5" y1="556.957" y2="556.957"/><rect fill="#8CDC8C" height="24.3516" style="stroke:#0B910B;stroke-width:2.0;" width="69" x="173.5" y="542.7813"/><text fill="#000000" font-family="sans-serif" font-size="13" font-weight="bold" lengthAdjust="spacing" textLength="51" x="179.5" y="560.2764">Execute</text><polygon fill="#FFE7A4" points="96.5,582.1328,319.5,582.1328,329.5,602.1328,319.5,622.1328,96.5,622.1328,86.5,602.1328,96.5,582.1328" style="stroke:#914E0B;stroke-width:1.0;"/><text fill="#000000" font-family="sans-serif" font-size="13" lengthAdjust="spacing" textLength="219" x="98.5" y="599.6279">CompilationWrapper in {Wrapper} with</text><text fill="#000000" font-family="sans-serif" font-size="13" lengthAdjust="spacing" textLength="113" x="98.5" y="615.9795">activityDone = false</text><rect fill="#8CDC8C" height="3" style="stroke:#8CDC8C;stroke-width:1.0;" width="253" x="81.5" y="649.0117"/><line style="stroke:#0B910B;stroke-width:1.0;" x1="81.5" x2="334.5" y1="649.0117" y2="649.0117"/><line style="stroke:#0B910B;stroke-width:1.0;" x1="81.5" x2="334.5" y1="652.0117" y2="652.0117"/><rect fill="#8CDC8C" height="24.3516" style="stroke:#0B910B;stroke-width:2.0;" width="69" x="173.5" y="637.8359"/><text fill="#000000" font-family="sans-serif" font-size="13" font-weight="bold" lengthAdjust="spacing" textLength="51" x="179.5" y="655.3311">Execute</text><polygon fill="#FFE7A4" points="96.5,677.1875,319.5,677.1875,329.5,697.1875,319.5,717.1875,96.5,717.1875,86.5,697.1875,96.5,677.1875" style="stroke:#914E0B;stroke-width:1.0;"/><text fill="#000000" font-family="sans-serif" font-size="13" lengthAdjust="spacing" textLength="219" x="98.5" y="694.6826">CompilationWrapper in {Wrapper} with</text><text fill="#000000" font-family="sans-serif" font-size="13" lengthAdjust="spacing" textLength="113" x="98.5" y="711.0342">activityDone = false</text><rect fill="#8CDC8C" height="3" style="stroke:#8CDC8C;stroke-width:1.0;" width="253" x="81.5" y="744.0664"/><line style="stroke:#0B910B;stroke-width:1.0;" x1="81.5" x2="334.5" y1="744.0664" y2="744.0664"/><line style="stroke:#0B910B;stroke-width:1.0;" x1="81.5" x2="334.5" y1="747.0664" y2="747.0664"/><rect fill="#8CDC8C" height="24.3516" style="stroke:#0B910B;stroke-width:2.0;" width="69" x="173.5" y="732.8906"/><text fill="#000000" font-family="sans-serif" font-size="13" font-weight="bold" lengthAdjust="spacing" textLength="51" x="179.5" y="750.3857">Execute</text><polygon fill="#FFE7A4" points="96.5,772.2422,319.5,772.2422,329.5,792.2422,319.5,812.2422,96.5,812.2422,86.5,792.2422,96.5,772.2422" style="stroke:#914E0B;stroke-width:1.0;"/><text fill="#000000" font-family="sans-serif" font-size="13" lengthAdjust="spacing" textLength="219" x="98.5" y="789.7373">CompilationWrapper in {Wrapper} with</text><text fill="#000000" font-family="sans-serif" font-size="13" lengthAdjust="spacing" textLength="113" x="98.5" y="806.0889">activityDone = false</text><rect fill="#8CDC8C" height="3" style="stroke:#8CDC8C;stroke-width:1.0;" width="253" x="81.5" y="839.1211"/><line style="stroke:#0B910B;stroke-width:1.0;" x1="81.5" x2="334.5" y1="839.1211" y2="839.1211"/><line style="stroke:#0B910B;stroke-width:1.0;" x1="81.5" x2="334.5" y1="842.1211" y2="842.1211"/><rect fill="#8CDC8C" height="24.3516" style="stroke:#0B910B;stroke-width:2.0;" width="69" x="173.5" y="827.9453"/><text fill="#000000" font-family="sans-serif" font-size="13" font-weight="bold" lengthAdjust="spacing" textLength="51" x="179.5" y="845.4404">Execute</text><polygon fill="#FFE7A4" points="96.5,867.2969,319.5,867.2969,329.5,887.2969,319.5,907.2969,96.5,907.2969,86.5,887.2969,96.5,867.2969" style="stroke:#914E0B;stroke-width:1.0;"/><text fill="#000000" font-family="sans-serif" font-size="13" lengthAdjust="spacing" textLength="219" x="98.5" y="884.792">CompilationWrapper in {Wrapper} with</text><text fill="#000000" font-family="sans-serif" font-size="13" lengthAdjust="spacing" textLength="113" x="98.5" y="901.1436">activityDone = false</text><rect fill="#8CDC8C" height="3" style="stroke:#8CDC8C;stroke-width:1.0;" width="253" x="81.5" y="934.1758"/><line style="stroke:#0B910B;stroke-width:1.0;" x1="81.5" x2="334.5" y1="934.1758" y2="934.1758"/><line style="stroke:#0B910B;stroke-width:1.0;" x1="81.5" x2="334.5" y1="937.1758" y2="937.1758"/><rect fill="#8CDC8C" height="24.3516" style="stroke:#0B910B;stroke-width:2.0;" width="69" x="173.5" y="923"/><text fill="#000000" font-family="sans-serif" font-size="13" font-weight="bold" lengthAdjust="spacing" textLength="51" x="179.5" y="940.4951">Execute</text><polygon fill="#FFE7A4" points="96.5,962.3516,319.5,962.3516,329.5,982.3516,319.5,1002.3516,96.5,1002.3516,86.5,982.3516,96.5,962.3516" style="stroke:#914E0B;stroke-width:1.0;"/><text fill="#000000" font-family="sans-serif" font-size="13" lengthAdjust="spacing" textLength="219" x="98.5" y="979.8467">CompilationWrapper in {Wrapper} with</text><text fill="#000000" font-family="sans-serif" font-size="13" lengthAdjust="spacing" textLength="113" x="98.5" y="996.1982">activityDone = false</text><rect fill="#8CDC8C" height="3" style="stroke:#8CDC8C;stroke-width:1.0;" width="253" x="81.5" y="1029.2305"/><line style="stroke:#0B910B;stroke-width:1.0;" x1="81.5" x2="334.5" y1="1029.2305" y2="1029.2305"/><line style="stroke:#0B910B;stroke-width:1.0;" x1="81.5" x2="334.5" y1="1032.2305" y2="1032.2305"/><rect fill="#8CDC8C" height="24.3516" style="stroke:#0B910B;stroke-width:2.0;" width="69" x="173.5" y="1018.0547"/><text fill="#000000" font-family="sans-serif" font-size="13" font-weight="bold" lengthAdjust="spacing" textLength="51" x="179.5" y="1035.5498">Execute</text><polygon fill="#FFE7A4" points="96.5,1057.4063,319.5,1057.4063,329.5,1077.4063,319.5,1097.4063,96.5,1097.4063,86.5,1077.4063,96.5,1057.4063" style="stroke:#914E0B;stroke-width:1.0;"/><text fill="#000000" font-family="sans-serif" font-size="13" lengthAdjust="spacing" textLength="219" x="98.5" y="1074.9014">CompilationWrapper in {Wrapper} with</text><text fill="#000000" font-family="sans-serif" font-size="13" lengthAdjust="spacing" textLength="113" x="98.5" y="1091.2529">activityDone = false</text><rect fill="#8CDC8C" height="3" style="stroke:#8CDC8C;stroke-width:1.0;" width="253" x="81.5" y="1124.2852"/><line style="stroke:#0B910B;stroke-width:1.0;" x1="81.5" x2="334.5" y1="1124.2852" y2="1124.2852"/><line style="stroke:#0B910B;stroke-width:1.0;" x1="81.5" x2="334.5" y1="1127.2852" y2="1127.2852"/><rect fill="#8CDC8C" height="24.3516" style="stroke:#0B910B;stroke-width:2.0;" width="69" x="173.5" y="1113.1094"/><text fill="#000000" font-family="sans-serif" font-size="13" font-weight="bold" lengthAdjust="spacing" textLength="51" x="179.5" y="1130.6045">Execute</text><polygon fill="#FFE7A4" points="96.5,1152.4609,319.5,1152.4609,329.5,1172.4609,319.5,1192.4609,96.5,1192.4609,86.5,1172.4609,96.5,1152.4609" style="stroke:#914E0B;stroke-width:1.0;"/><text fill="#000000" font-family="sans-serif" font-size="13" lengthAdjust="spacing" textLength="219" x="98.5" y="1169.9561">CompilationWrapper in {Wrapper} with</text><text fill="#000000" font-family="sans-serif" font-size="13" lengthAdjust="spacing" textLength="113" x="98.5" y="1186.3076">activityDone = false</text><rect fill="#8CDC8C" height="3" style="stroke:#8CDC8C;stroke-width:1.0;" width="253" x="81.5" y="1219.3398"/><line style="stroke:#0B910B;stroke-width:1.0;" x1="81.5" x2="334.5" y1="1219.3398" y2="1219.3398"/><line style="stroke:#0B910B;stroke-width:1.0;" x1="81.5" x2="334.5" y1="1222.3398" y2="1222.3398"/><rect fill="#8CDC8C" height="24.3516" style="stroke:#0B910B;stroke-width:2.0;" width="69" x="173.5" y="1208.1641"/><text fill="#000000" font-family="sans-serif" font-size="13" font-weight="bold" lengthAdjust="spacing" textLength="51" x="179.5" y="1225.6592">Execute</text><polygon fill="#FFE7A4" points="96.5,1247.5156,319.5,1247.5156,329.5,1267.5156,319.5,1287.5156,96.5,1287.5156,86.5,1267.5156,96.5,1247.5156" style="stroke:#914E0B;stroke-width:1.0;"/><text fill="#000000" font-family="sans-serif" font-size="13" lengthAdjust="spacing" textLength="219" x="98.5" y="1265.0107">CompilationWrapper in {Wrapper} with</text><text fill="#000000" font-family="sans-serif" font-size="13" lengthAdjust="spacing" textLength="113" x="98.5" y="1281.3623">activityDone = false</text><rect fill="#8CDC8C" height="3" style="stroke:#8CDC8C;stroke-width:1.0;" width="253" x="81.5" y="1314.3945"/><line style="stroke:#0B910B;stroke-width:1.0;" x1="81.5" x2="334.5" y1="1314.3945" y2="1314.3945"/><line style="stroke:#0B910B;stroke-width:1.0;" x1="81.5" x2="334.5" y1="1317.3945" y2="1317.3945"/><rect fill="#8CDC8C" height="24.3516" style="stroke:#0B910B;stroke-width:2.0;" width="69" x="173.5" y="1303.2188"/><text fill="#000000" font-family="sans-serif" font-size="13" font-weight="bold" lengthAdjust="spacing" textLength="51" x="179.5" y="1320.7139">Execute</text><polygon fill="#FFE7A4" points="96.5,1342.5703,319.5,1342.5703,329.5,1362.5703,319.5,1382.5703,96.5,1382.5703,86.5,1362.5703,96.5,1342.5703" style="stroke:#914E0B;stroke-width:1.0;"/><text fill="#000000" font-family="sans-serif" font-size="13" lengthAdjust="spacing" textLength="219" x="98.5" y="1360.0654">CompilationWrapper in {Wrapper} with</text><text fill="#000000" font-family="sans-serif" font-size="13" lengthAdjust="spacing" textLength="113" x="98.5" y="1376.417">activityDone = false</text><rect fill="#8CDC8C" height="3" style="stroke:#8CDC8C;stroke-width:1.0;" width="253" x="81.5" y="1409.4492"/><line style="stroke:#0B910B;stroke-width:1.0;" x1="81.5" x2="334.5" y1="1409.4492" y2="1409.4492"/><line style="stroke:#0B910B;stroke-width:1.0;" x1="81.5" x2="334.5" y1="1412.4492" y2="1412.4492"/><rect fill="#8CDC8C" height="24.3516" style="stroke:#0B910B;stroke-width:2.0;" width="69" x="173.5" y="1398.2734"/><text fill="#000000" font-family="sans-serif" font-size="13" font-weight="bold" lengthAdjust="spacing" textLength="51" x="179.5" y="1415.7686">Execute</text><polygon fill="#FFE7A4" points="96.5,1437.625,319.5,1437.625,329.5,1457.625,319.5,1477.625,96.5,1477.625,86.5,1457.625,96.5,1437.625" style="stroke:#914E0B;stroke-width:1.0;"/><text fill="#000000" font-family="sans-serif" font-size="13" lengthAdjust="spacing" textLength="219" x="98.5" y="1455.1201">CompilationWrapper in {Wrapper} with</text><text fill="#000000" font-family="sans-serif" font-size="13" lengthAdjust="spacing" textLength="113" x="98.5" y="1471.4717">activityDone = false</text><rect fill="#8CDC8C" height="3" style="stroke:#8CDC8C;stroke-width:1.0;" width="253" x="81.5" y="1504.5039"/><line style="stroke:#0B910B;stroke-width:1.0;" x1="81.5" x2="334.5" y1="1504.5039" y2="1504.5039"/><line style="stroke:#0B910B;stroke-width:1.0;" x1="81.5" x2="334.5" y1="1507.5039" y2="1507.5039"/><rect fill="#8CDC8C" height="24.3516" style="stroke:#0B910B;stroke-width:2.0;" width="69" x="173.5" y="1493.3281"/><text fill="#000000" font-family="sans-serif" font-size="13" font-weight="bold" lengthAdjust="spacing" textLength="51" x="179.5" y="1510.8232">Execute</text><polygon fill="#FFE7A4" points="96.5,1532.6797,319.5,1532.6797,329.5,1552.6797,319.5,1572.6797,96.5,1572.6797,86.5,1552.6797,96.5,1532.6797" style="stroke:#914E0B;stroke-width:1.0;"/><text fill="#000000" font-family="sans-serif" font-size="13" lengthAdjust="spacing" textLength="219" x="98.5" y="1550.1748">CompilationWrapper in {Wrapper} with</text><text fill="#000000" font-family="sans-serif" font-size="13" lengthAdjust="spacing" textLength="113" x="98.5" y="1566.5264">activityDone = false</text><rect fill="#8CDC8C" height="3" style="stroke:#8CDC8C;stroke-width:1.0;" width="253" x="81.5" y="1599.5586"/><line style="stroke:#0B910B;stroke-width:1.0;" x1="81.5" x2="334.5" y1="1599.5586" y2="1599.5586"/><line style="stroke:#0B910B;stroke-width:1.0;" x1="81.5" x2="334.5" y1="1602.5586" y2="1602.5586"/><rect fill="#8CDC8C" height="24.3516" style="stroke:#0B910B;stroke-width:2.0;" width="69" x="173.5" y="1588.3828"/><text fill="#000000" font-family="sans-serif" font-size="13" font-weight="bold" lengthAdjust="spacing" textLength="51" x="179.5" y="1605.8779">Execute</text><polygon fill="#FFE7A4" points="96.5,1627.7344,319.5,1627.7344,329.5,1647.7344,319.5,1667.7344,96.5,1667.7344,86.5,1647.7344,96.5,1627.7344" style="stroke:#914E0B;stroke-width:1.0;"/><text fill="#000000" font-family="sans-serif" font-size="13" lengthAdjust="spacing" textLength="219" x="98.5" y="1645.2295">CompilationWrapper in {Wrapper} with</text><text fill="#000000" font-family="sans-serif" font-size="13" lengthAdjust="spacing" textLength="113" x="98.5" y="1661.5811">activityDone = false</text><rect fill="#8CDC8C" height="3" style="stroke:#8CDC8C;stroke-width:1.0;" width="253" x="81.5" y="1694.6133"/><line style="stroke:#0B910B;stroke-width:1.0;" x1="81.5" x2="334.5" y1="1694.6133" y2="1694.6133"/><line style="stroke:#0B910B;stroke-width:1.0;" x1="81.5" x2="334.5" y1="1697.6133" y2="1697.6133"/><rect fill="#8CDC8C" height="24.3516" style="stroke:#0B910B;stroke-width:2.0;" width="69" x="173.5" y="1683.4375"/><text fill="#000000" font-family="sans-serif" font-size="13" font-weight="bold" lengthAdjust="spacing" textLength="51" x="179.5" y="1700.9326">Execute</text><polygon fill="#FFE7A4" points="96.5,1722.7891,319.5,1722.7891,329.5,1742.7891,319.5,1762.7891,96.5,1762.7891,86.5,1742.7891,96.5,1722.7891" style="stroke:#914E0B;stroke-width:1.0;"/><text fill="#000000" font-family="sans-serif" font-size="13" lengthAdjust="spacing" textLength="219" x="98.5" y="1740.2842">CompilationWrapper in {Wrapper} with</text><text fill="#000000" font-family="sans-serif" font-size="13" lengthAdjust="spacing" textLength="113" x="98.5" y="1756.6357">activityDone = false</text><rect fill="#8CDC8C" height="3" style="stroke:#8CDC8C;stroke-width:1.0;" width="253" x="81.5" y="1789.668"/><line style="stroke:#0B910B;stroke-width:1.0;" x1="81.5" x2="334.5" y1="1789.668" y2="1789.668"/><line style="stroke:#0B910B;stroke-width:1.0;" x1="81.5" x2="334.5" y1="1792.668" y2="1792.668"/><rect fill="#8CDC8C" height="24.3516" style="stroke:#0B910B;stroke-width:2.0;" width="69" x="173.5" y="1778.4922"/><text fill="#000000" font-family="sans-serif" font-size="13" font-weight="bold" lengthAdjust="spacing" textLength="51" x="179.5" y="1795.9873">Execute</text><polygon fill="#FFE7A4" points="96.5,1817.8438,319.5,1817.8438,329.5,1837.8438,319.5,1857.8438,96.5,1857.8438,86.5,1837.8438,96.5,1817.8438" style="stroke:#914E0B;stroke-width:1.0;"/><text fill="#000000" font-family="sans-serif" font-size="13" lengthAdjust="spacing" textLength="219" x="98.5" y="1835.3389">CompilationWrapper in {Wrapper} with</text><text fill="#000000" font-family="sans-serif" font-size="13" lengthAdjust="spacing" textLength="108" x="98.5" y="1851.6904">activityDone = true</text><!--MD5=[e703d7f6dc7df21232df80614271a3ea]
@startuml
hide footbox
skinparam shadowing false
skinparam ArrowColor #0b910b
skinparam SequenceLifeLineBorderColor #0b910b
skinparam SequenceLifeLineBackgroundColor #3ec43e
skinparam ParticipantBorderColor #043204
skinparam ParticipantBackgroundColor #3ec43e
skinparam NoteBackgroundColor #ffe7a4
skinparam NoteBorderColor #914e0b
skinparam SequenceDividerBackgroundColor #8cdc8c
skinparam SequenceDividerBorderColor #0b910b
skinparam SequenceGroupBackgroundColor #8cdc8c
skinparam SequenceGroupBorderColor #043204

title CompilationWrapperTrace of CompilationWrapper

participant "CompilationWrapper" as System <<SUT>>





hnote over System 
CompilationWrapper in {Wrapper} with
activityDone = false
endhnote


== Execute ==


hnote over System 
CompilationWrapper in {Wrapper} with
activityDone = false
endhnote


== Execute ==


hnote over System 
CompilationWrapper in {Wrapper} with
activityDone = false
endhnote


== Execute ==


hnote over System 
CompilationWrapper in {Wrapper} with
activityDone = false
endhnote


== Execute ==


hnote over System 
CompilationWrapper in {Wrapper} with
activityDone = false
endhnote


== Execute ==


hnote over System 
CompilationWrapper in {Wrapper} with
activityDone = false
endhnote


== Execute ==


hnote over System 
CompilationWrapper in {Wrapper} with
activityDone = false
endhnote


== Execute ==


hnote over System 
CompilationWrapper in {Wrapper} with
activityDone = false
endhnote


== Execute ==


hnote over System 
CompilationWrapper in {Wrapper} with
activityDone = false
endhnote


== Execute ==


hnote over System 
CompilationWrapper in {Wrapper} with
activityDone = false
endhnote


== Execute ==


hnote over System 
CompilationWrapper in {Wrapper} with
activityDone = false
endhnote


== Execute ==


hnote over System 
CompilationWrapper in {Wrapper} with
activityDone = false
endhnote


== Execute ==


hnote over System 
CompilationWrapper in {Wrapper} with
activityDone = false
endhnote


== Execute ==


hnote over System 
CompilationWrapper in {Wrapper} with
activityDone = false
endhnote


== Execute ==


hnote over System 
CompilationWrapper in {Wrapper} with
activityDone = false
endhnote


== Execute ==


hnote over System 
CompilationWrapper in {Wrapper} with
activityDone = false
endhnote


== Execute ==


hnote over System 
CompilationWrapper in {Wrapper} with
activityDone = false
endhnote


== Execute ==


hnote over System 
CompilationWrapper in {Wrapper} with
activityDone = false
endhnote


== Execute ==


hnote over System 
CompilationWrapper in {Wrapper} with
activityDone = true
endhnote

@enduml

PlantUML version 1.2021.5(Sun Apr 25 13:20:28 CEST 2021)
(EPL source distribution)
Java Runtime: OpenJDK Runtime Environment
JVM: OpenJDK 64-Bit Server VM
Default Encoding: UTF-8
Language: en
Country: GB
--></g></svg>